<svg width="468" height="121" viewBox="0 0 468 121" fill="none" xmlns="http://www.w3.org/2000/svg">
<g clip-path="url(#clip0_210_29411)">
<rect width="468" height="121" fill="white"/>
<path d="M75.4 88.1L53.8 97.5V96.6C49.5 97.7 45.1 98.3 40.6 98.5C20.3 98.3 4.2 87.7 4 75.1V70.4C10.6 80.1 24.3 86.6 40.6 86.3C46 86.5 51.3 85.8 56.5 84.4L58.4 79.7C52.6 81.5 46.6 82.5 40.6 82.5C20.3 82.6 4.2 72 4 59.1V55.3C10.6 64.3 24.2 70.7 40.6 70.4C47.7 70.8 54.8 69.5 61.2 66.6L62.1 61.9C55.4 65.2 48 66.9 40.5 66.6C20.2 66.9 4.1 56.3 3.9 43.2V39.4C10.5 48.6 24.2 55 40.5 55.3C49.3 55 58 52.8 65.9 48.8L66.8 43.2C60.3 48 50.7 51.2 40.6 51.6C20.2 51.1 4.1 40.5 3.9 27.2C4.1 14.6 20.2 3.89999 40.5 3.79999C52.6 3.99999 63.8 8.29999 70.5 15.1L71.2 16.1H75.9L75.2 15C68.5 6 55.2 0 40.4 0C18 0 0 12.4 0 27.2V76C0.8 90.5 18.3 102.3 40.4 102.3C55.2 102.2 68.3 96.4 75.4 88.1Z" fill="#030405"/>
<path d="M66.6001 121.2L74.2001 89L52.4001 98.5L65.7001 42.6H40.1001L46.7001 15.1H128.2L121.6 42.6H95.1001L89.4001 57.8L118.8 45.5L66.6001 121.2ZM79.9001 82.3L76.1001 101.2L107.4 53.8L81.8001 65.2L93.2001 38.7H118.8L123.5 18.8H49.6001L44.9001 38.7H70.5001L58.2001 91.7L79.9001 82.3Z" fill="#030405"/>
<path d="M178.8 33.5C178.8 34.9 178.4 36.2 177.9 37.4C177.3 38.6 176.5 39.7 175.5 40.6C173.2 42.4 170.4 43.4 167.5 43.2C165.9 43.3 164.3 43 162.8 42.4C161.3 41.8 160 40.8 158.9 39.6C156.8 37.2 155.8 33.8 155.8 29.5V27.8C155.7 25.3 156.2 22.9 157.2 20.6C158.1 18.6 159.5 17 161.3 15.8C163.5 14.6 166 14 168.5 14.2C171 14.4 173.4 15.3 175.4 16.8C177.5 18.7 178.7 21.4 178.9 24.2H173.1C173.1 22.7 172.6 21.3 171.6 20.2C170.5 19.3 169 18.9 167.6 19C166.8 18.9 165.9 19.1 165.1 19.5C164.3 19.9 163.7 20.4 163.2 21.1C162.2 22.5 161.7 24.7 161.7 27.6V29.7C161.7 32.8 162.2 35 163.1 36.4C163.6 37.1 164.2 37.7 165 38C165.8 38.4 166.6 38.5 167.5 38.5C169 38.6 170.4 38.2 171.5 37.3C172.5 36.3 173 34.9 173 33.5H178.8Z" fill="#030405"/>
<path d="M205.9 29.4C206 31.9 205.5 34.4 204.4 36.7C203.5 38.7 202 40.4 200.2 41.6C198.3 42.7 196.1 43.3 193.9 43.3C191.7 43.3 189.5 42.7 187.6 41.6C185.7 40.4 184.2 38.8 183.3 36.8C182.3 34.5 181.7 32.1 181.8 29.6V28.2C181.7 25.7 182.3 23.2 183.3 20.8C184.2 18.8 185.7 17.1 187.6 15.9C189.5 14.8 191.7 14.2 193.9 14.2C196.1 14.2 198.3 14.8 200.2 15.9C202.1 17.1 203.5 18.8 204.5 20.8C205.5 23.1 206.1 25.6 206 28.1V29.4H205.9ZM200 28.1C200 25.1 199.5 22.9 198.4 21.3C197.9 20.6 197.2 20 196.4 19.6C195.6 19.2 194.7 19 193.9 19C193 19 192.1 19.2 191.4 19.6C190.6 20 189.9 20.6 189.4 21.3C188.3 22.8 187.8 25.1 187.8 28V29.4C187.7 31.7 188.2 34.1 189.4 36.1C189.9 36.8 190.6 37.4 191.4 37.8C192.2 38.2 193.1 38.4 194 38.4C194.9 38.4 195.8 38.2 196.6 37.8C197.4 37.4 198.1 36.8 198.6 36.1C199.6 34.6 200.2 32.3 200.2 29.4V28.1H200Z" fill="#030405"/>
<path d="M216.3 42.8H210.5V14.5H216.3V42.8Z" fill="#030405"/>
<path d="M244.7 42.8H238.9L227.6 24.2V42.8H221.8V14.5H227.6L239 33.1V14.5H244.8V42.8H244.7Z" fill="#030405"/>
<path d="M270.5 19.3H261.8V42.9H256.1V19.3H247.6V14.6H270.6V19.3H270.5Z" fill="#030405"/>
<path d="M290.9 30.6H279.7V38.2H292.8V42.9H273.8V14.6H292.7V19.3H279.6V26H290.8V30.6H290.9Z" fill="#030405"/>
<path d="M302.1 38.1H314.5V42.8H296.3V14.5H302.1V38.1Z" fill="#030405"/>
<path d="M334.8 30.6H323.6V38.2H336.7V42.9H317.7V14.6H336.6V19.3H323.5V26H334.7V30.6H334.8Z" fill="#030405"/>
<path d="M362.6 39.3C361.4 40.7 359.9 41.7 358.2 42.2C356.2 42.9 354 43.3 351.8 43.2C349.5 43.3 347.3 42.7 345.4 41.6C343.5 40.5 342 38.9 341.1 36.9C340 34.7 339.5 32.2 339.6 29.7V27.8C339.5 25.3 340 22.8 341 20.5C341.9 18.5 343.3 16.9 345.1 15.8C347 14.7 349.2 14.1 351.4 14.2C354.8 14.2 357.4 15 359.3 16.6C361.3 18.4 362.5 20.9 362.7 23.6H357C356.9 22.2 356.3 21 355.3 20C354.3 19.2 353 18.8 351.6 18.9C350.7 18.9 349.8 19 349 19.4C348.2 19.8 347.5 20.4 347 21.1C346 22.6 345.4 24.8 345.4 27.7V29.5C345.4 32.5 346 34.7 347.1 36.2C347.7 37 348.4 37.6 349.3 38C350.2 38.4 351.1 38.6 352.1 38.5C354.3 38.5 355.8 38 356.8 37.1V32.2H351.5V27.9H362.6V39.3Z" fill="#030405"/>
<path d="M377.7 32.5H373.1V42.9H367.3V14.6H377.8C381.1 14.6 383.7 15.3 385.5 16.8C386.4 17.6 387.1 18.5 387.6 19.6C388.1 20.7 388.3 21.9 388.2 23.1C388.3 24.8 387.8 26.5 386.9 27.9C386 29.3 384.6 30.3 383.1 31L389.2 42.6V42.9H382.9L377.7 32.5ZM373.1 27.7H377.8C379 27.8 380.3 27.4 381.2 26.6C381.6 26.2 381.9 25.7 382.1 25.2C382.3 24.7 382.4 24.1 382.4 23.5C382.4 22.9 382.3 22.4 382.2 21.8C382 21.3 381.7 20.8 381.3 20.3C380.8 19.9 380.3 19.6 379.7 19.4C379.1 19.2 378.5 19.1 377.8 19.2H373.1V27.7Z" fill="#030405"/>
<path d="M408.6 37H398.4L396.5 42.8H390.3L400.8 14.5H406.2L416.8 42.8H410.6L408.6 37ZM400 32.3H407.1L403.5 21.7L400 32.3Z" fill="#030405"/>
<path d="M425.3 32.9V42.9H419.5V14.6H430.5C432.4 14.6 434.3 15 436.1 15.8C437.6 16.5 438.9 17.7 439.8 19.1C440.7 20.6 441.1 22.3 441.1 24C441.2 25.2 440.9 26.5 440.4 27.6C439.9 28.7 439.2 29.7 438.2 30.5C436.3 32.1 433.7 32.9 430.3 32.9H425.3ZM425.3 28.1H430.5C431.8 28.2 433 27.8 434 27C434.4 26.6 434.7 26.1 435 25.6C435.2 25.1 435.3 24.5 435.3 23.9C435.3 23.3 435.2 22.7 435 22.1C434.8 21.5 434.5 21 434.1 20.5C433.7 20.1 433.1 19.7 432.5 19.5C431.9 19.3 431.3 19.2 430.7 19.2H425.4V28.1H425.3Z" fill="#030405"/>
<path d="M468.1 42.8H462.3V30.7H450.9V42.8H445.1V14.5H450.9V26H462.3V14.5H468.1V42.8Z" fill="#030405"/>
<path d="M174 73.1H166.8V92.7H161.9V73.1H154.8V69.2H174V73.1Z" fill="#030405"/>
<path d="M181 77.1C181.6 76.4 182.3 75.8 183.1 75.4C183.9 75 184.8 74.8 185.7 74.8C189.5 74.8 191.4 77 191.5 81.4V92.6H186.8V81.5C186.9 80.7 186.6 79.9 186.2 79.3C185.9 79 185.6 78.8 185.2 78.7C184.8 78.6 184.4 78.5 184 78.6C183.4 78.6 182.8 78.7 182.3 79C181.8 79.3 181.3 79.7 181 80.2V92.6H176.3V67.7H181V77.1Z" fill="#030405"/>
<path d="M203 93.1C201.8 93.1 200.7 93 199.6 92.6C198.5 92.2 197.5 91.6 196.7 90.8C195.9 90 195.2 89 194.8 87.9C194.4 86.8 194.2 85.7 194.2 84.5V84C194.2 82.4 194.5 80.8 195.2 79.3C195.8 78 196.8 76.9 198.1 76.1C199.4 75.3 200.9 74.9 202.4 75C203.5 74.9 204.5 75.1 205.5 75.5C206.5 75.9 207.4 76.5 208.1 77.3C209.5 78.8 210.2 81 210.2 83.7V85.6H199.1C199.2 86.7 199.7 87.6 200.5 88.4C201.3 89.1 202.3 89.5 203.4 89.4C204.2 89.4 205 89.3 205.8 88.9C206.5 88.6 207.2 88 207.7 87.4L210 90C209.3 91 208.3 91.8 207.2 92.3C205.8 92.8 204.4 93.1 203 93.1ZM202.5 78.7C202.1 78.7 201.7 78.8 201.3 78.9C200.9 79.1 200.6 79.3 200.3 79.6C199.7 80.4 199.3 81.3 199.2 82.3H205.7V81.9C205.7 81 205.4 80.2 204.9 79.5C204.6 79.2 204.2 79 203.8 78.8C203.3 78.7 202.9 78.7 202.5 78.7Z" fill="#030405"/>
<path d="M222.4 92.7V78.6H219.8V75.2H222.4V73.7C222.3 72.9 222.5 72 222.8 71.2C223.1 70.4 223.5 69.7 224.1 69.1C225.4 68 227.1 67.4 228.8 67.5C229.6 67.5 230.4 67.6 231.2 67.8V71.4C230.7 71.3 230.3 71.2 229.8 71.3C228 71.3 227.2 72.1 227.2 73.8V75.2H230.7V78.6H227.1V92.7H222.4Z" fill="#030405"/>
<path d="M243.5 91C242.9 91.7 242.2 92.3 241.4 92.6C240.6 93 239.7 93.1 238.8 93.1C238 93.2 237.2 93 236.5 92.8C235.8 92.5 235.1 92.1 234.5 91.5C233.4 90.2 232.9 88.5 233 86.8V75.3H237.7V86.6C237.7 88.4 238.5 89.3 240.2 89.3C240.8 89.4 241.5 89.2 242.1 89C242.7 88.7 243.2 88.3 243.5 87.7V75.3H248.2V92.8H243.8L243.5 91Z" fill="#030405"/>
<path d="M257.2 70.9V75.2H260.2V78.6H257.2V87.3C257.2 87.8 257.3 88.3 257.6 88.7C257.8 88.9 258 89 258.3 89.1C258.5 89.2 258.8 89.2 259.1 89.2C259.6 89.2 260 89.2 260.5 89.1V92.6C259.6 92.9 258.6 93 257.7 93C254.4 93 252.7 91.3 252.7 88V78.6H250.1V75.2H252.7V70.9H257.2Z" fill="#030405"/>
<path d="M273.3 91C272.7 91.7 272 92.3 271.2 92.6C270.4 93 269.5 93.1 268.6 93.1C267.8 93.2 267 93 266.3 92.8C265.6 92.5 264.9 92.1 264.3 91.5C263.2 90.2 262.7 88.5 262.8 86.8V75.3H267.5V86.6C267.5 88.4 268.3 89.3 270 89.3C270.6 89.4 271.3 89.2 271.9 89C272.5 88.7 273 88.3 273.3 87.7V75.3H278V92.8H273.6L273.3 91Z" fill="#030405"/>
<path d="M291.2 79.6C290.6 79.5 290.1 79.5 289.5 79.5C287.7 79.5 286.6 80.1 286 81.3V92.8H281.3V75.3H285.7L285.8 77.4C286.2 76.7 286.7 76.1 287.4 75.6C288.1 75.2 288.9 74.9 289.7 75C290.2 75 290.7 75.1 291.2 75.2V79.6Z" fill="#030405"/>
<path d="M301.2 93.1C300 93.1 298.9 93 297.8 92.6C296.7 92.2 295.7 91.6 294.9 90.8C294.1 90 293.4 89 293 87.9C292.6 86.8 292.4 85.7 292.4 84.5V84C292.4 82.4 292.7 80.8 293.4 79.3C294 78 295 76.9 296.3 76.1C297.6 75.3 299.1 74.9 300.6 75C301.7 74.9 302.7 75.1 303.7 75.5C304.7 75.9 305.6 76.5 306.3 77.3C307.7 78.8 308.4 81 308.4 83.7V85.6H297.2C297.3 86.7 297.8 87.6 298.6 88.4C299.4 89.1 300.4 89.5 301.5 89.4C302.3 89.4 303.1 89.3 303.9 88.9C304.6 88.6 305.3 88 305.8 87.4L308.1 90C307.4 91 306.4 91.8 305.3 92.3C303.9 92.8 302.6 93.1 301.2 93.1ZM300.6 78.7C300.2 78.7 299.8 78.8 299.4 78.9C299 79.1 298.7 79.3 298.4 79.6C297.8 80.4 297.4 81.3 297.3 82.3H303.8V81.9C303.8 81 303.5 80.2 303 79.5C302.7 79.2 302.3 79 301.9 78.8C301.5 78.7 301.1 78.7 300.6 78.7Z" fill="#030405"/>
<path d="M318.6 83.8C318.6 82.2 318.9 80.6 319.6 79.2C320.2 77.9 321.2 76.8 322.5 76C323.8 75.2 325.3 74.9 326.9 74.9C328 74.9 329 75 330 75.4C331 75.8 331.9 76.3 332.7 77.1C334.3 78.7 335.1 80.8 335.2 83V84.2C335.3 86.6 334.5 88.9 333 90.7C331.4 92.3 329.2 93.1 327 93.1C324.7 93.1 322.6 92.2 321 90.7C319.4 88.9 318.6 86.5 318.7 84.1V83.8H318.6ZM323.2 84.2C323.1 85.5 323.4 86.9 324.1 88C324.4 88.4 324.8 88.7 325.3 89C325.8 89.2 326.3 89.3 326.8 89.4C327.3 89.4 327.8 89.3 328.3 89.1C328.8 88.9 329.2 88.5 329.5 88.1C330.2 86.8 330.6 85.4 330.5 83.9C330.6 82.6 330.2 81.2 329.5 80.1C329.2 79.7 328.8 79.3 328.3 79.1C327.8 78.9 327.3 78.8 326.8 78.8C326.3 78.8 325.8 78.9 325.3 79.1C324.8 79.3 324.4 79.7 324.1 80.1C323.5 81.3 323.1 82.7 323.2 84.2Z" fill="#030405"/>
<path d="M339.3 92.7V78.6H336.7V75.2H339.3V73.7C339.2 72.9 339.4 72 339.7 71.2C340 70.4 340.4 69.7 341 69.1C342.3 68 344 67.4 345.7 67.5C346.5 67.5 347.3 67.6 348.1 67.8V71.4C347.6 71.3 347.2 71.2 346.7 71.3C344.9 71.3 344.1 72.1 344.1 73.8V75.2H347.6V78.6H344.1V92.7H339.3Z" fill="#030405"/>
<path d="M362.6 75.2L362.7 77.2C363.3 76.5 364.1 75.9 364.9 75.5C365.8 75.1 366.7 74.9 367.7 75C368.7 74.9 369.6 75.1 370.4 75.6C371.2 76.1 371.9 76.8 372.3 77.7C372.9 76.8 373.7 76.1 374.6 75.7C375.5 75.2 376.5 75 377.6 75.1C378.4 75 379.2 75.2 379.9 75.4C380.6 75.7 381.3 76.1 381.8 76.7C382.8 78.2 383.3 79.9 383.2 81.7V92.9H378.5V81.7C378.6 80.9 378.4 80.2 377.9 79.5C377.6 79.2 377.3 79 376.9 78.9C376.5 78.8 376.2 78.7 375.8 78.8C375.2 78.8 374.5 78.9 374 79.3C373.5 79.7 373.1 80.2 372.9 80.8V92.8H368.2V81.6C368.3 80.8 368.1 80 367.6 79.4C367.3 79.1 367 79 366.7 78.8C366.3 78.7 366 78.6 365.6 78.7C365 78.7 364.4 78.8 363.9 79.1C363.4 79.4 363 79.8 362.7 80.4V92.8H358V75.3H362.6V75.2Z" fill="#030405"/>
<path d="M386.1 83.8C386.1 82.2 386.4 80.6 387.1 79.2C387.7 77.9 388.7 76.8 390 76C391.3 75.2 392.8 74.9 394.4 74.9C395.5 74.9 396.5 75 397.5 75.4C398.5 75.8 399.4 76.3 400.2 77.1C401.8 78.7 402.6 80.8 402.7 83V84.2C402.8 86.6 402 88.9 400.5 90.7C398.9 92.3 396.7 93.1 394.5 93.1C392.3 93.1 390.1 92.2 388.5 90.7C386.9 88.9 386.1 86.5 386.2 84.1V83.8H386.1ZM390.8 84.2C390.7 85.5 391 86.9 391.7 88C392 88.4 392.4 88.7 392.9 89C393.4 89.2 393.9 89.3 394.4 89.4C394.9 89.5 395.4 89.3 395.9 89.1C396.4 88.9 396.8 88.5 397.1 88.1C397.8 86.8 398.2 85.4 398.1 83.9C398.2 82.6 397.8 81.2 397.1 80.1C396.8 79.7 396.4 79.3 395.9 79.1C395.4 78.9 394.9 78.8 394.4 78.8C393.9 78.8 393.4 78.9 392.9 79.1C392.4 79.3 392 79.7 391.7 80.1C391 81.3 390.7 82.7 390.8 84.2Z" fill="#030405"/>
<path d="M409.9 75.2L410 77.2C410.6 76.4 411.4 75.8 412.2 75.4C413.1 75 414 74.8 415 74.8C415.8 74.7 416.5 74.9 417.3 75.1C418 75.4 418.7 75.8 419.2 76.4C420.2 77.8 420.7 79.5 420.6 81.3V92.6H415.9V81.4C416 80.6 415.7 79.8 415.3 79.2C415 79 414.7 78.8 414.3 78.6C413.9 78.5 413.5 78.4 413.2 78.5C412.6 78.5 412 78.6 411.5 78.9C411 79.2 410.5 79.6 410.3 80.2V92.6H405.6V75.1H409.9V75.2Z" fill="#030405"/>
<path d="M432.3 93.1C431.1 93.1 430 93 428.9 92.6C427.8 92.2 426.8 91.6 426 90.8C425.2 90 424.5 89 424.1 87.9C423.7 86.8 423.5 85.7 423.5 84.5V84C423.5 82.4 423.8 80.8 424.5 79.3C425.1 78 426.1 76.9 427.4 76.1C428.7 75.3 430.2 74.9 431.7 75C432.8 74.9 433.8 75.1 434.8 75.5C435.8 75.9 436.7 76.5 437.4 77.3C438.8 78.8 439.5 81 439.5 83.7V85.6H428.3C428.4 86.7 428.9 87.6 429.7 88.4C430.5 89.1 431.5 89.5 432.6 89.4C433.4 89.4 434.2 89.3 435 88.9C435.7 88.6 436.4 88 436.9 87.4L439.2 90C438.5 91 437.5 91.8 436.4 92.3C435 92.8 433.6 93.1 432.3 93.1ZM431.7 78.7C431.3 78.7 430.9 78.8 430.5 78.9C430.1 79.1 429.8 79.3 429.5 79.6C428.9 80.4 428.5 81.3 428.4 82.3H434.9V81.9C434.9 81 434.6 80.2 434.1 79.5C433.8 79.2 433.4 79 433 78.8C432.6 78.7 432.1 78.7 431.7 78.7Z" fill="#030405"/>
<path d="M448.4 86.1L451.6 75.2H456.6L449.6 95.4L449.2 96.3C448.8 97.3 448.1 98.2 447.2 98.8C446.3 99.4 445.2 99.7 444.1 99.7C443.4 99.7 442.7 99.6 442 99.4V95.9H442.7C443.4 95.9 444.1 95.8 444.7 95.5C445.2 95.2 445.5 94.7 445.7 94.2L446.3 92.8L440.2 75.2H445.2L448.4 86.1Z" fill="#030405"/>
</g>
<defs>
<clipPath id="clip0_210_29411">
<rect width="468" height="121" fill="white"/>
</clipPath>
</defs>
</svg>
