<svg width="32" height="32" viewBox="0 0 32 32" xmlns="http://www.w3.org/2000/svg">
<path fill-rule="evenodd" clip-rule="evenodd" d="M8.05048 20.9242C9.39506 22.2746 11.1934 22.9836 13.0086 22.9836C13.8826 22.9836 14.7734 22.8148 15.6137 22.4771C15.7369 22.4247 15.8468 22.3522 15.9406 22.2652C16.9193 22.754 17.986 23.0003 19.0586 23.0003V22.9834C20.8402 22.9834 22.6217 22.3082 23.9663 20.9578C25.2773 19.6411 26 17.9025 26 16.0288C26 14.1551 25.2773 12.3996 23.9495 11.0661C21.7988 8.90606 18.589 8.45222 15.9932 9.69622C13.349 8.41019 10.1228 8.9343 8.03368 11.0325C6.72271 12.3491 6 14.0878 6 15.9614C6 17.8351 6.72271 19.5907 8.05048 20.9242ZM13.8732 11.2698C12.34 10.97 10.7137 11.4298 9.57994 12.5686C8.68916 13.4632 8.18494 14.6617 8.18494 15.9446C8.18494 17.2275 8.68916 18.4428 9.59675 19.3543C10.742 20.4905 12.3399 20.974 13.8696 20.6981C12.6892 19.3978 12.05 17.7402 12.05 15.9782C12.05 14.2232 12.6956 12.5588 13.8732 11.2698ZM15.6299 12.6021C16.5543 11.6569 17.7645 11.2011 18.9914 11.2011C20.2183 11.2011 21.462 11.6737 22.4033 12.619C23.3108 13.5306 23.8151 14.7459 23.8151 16.0288C23.8151 17.3117 23.3108 18.5102 22.4201 19.4048C20.5713 21.2785 17.5292 21.2616 15.6467 19.3879C14.7391 18.4764 14.2349 17.261 14.2349 15.9782C14.2349 14.6953 14.7392 13.4968 15.6299 12.6021Z" />
</svg>
