<svg width="32" height="32" viewBox="0 0 32 32" xmlns="http://www.w3.org/2000/svg">
<path fill-rule="evenodd" clip-rule="evenodd" d="M15.9999 22.0336C11.5781 22.0336 7.97266 18.437 7.97266 14.0168C7.97266 9.59664 11.5781 6 15.9999 6C20.4216 6 24.0271 9.59664 24.0271 14.0168C24.0271 18.437 20.4216 22.0336 15.9999 22.0336ZM15.9999 8.18487C12.7856 8.18487 10.1835 10.8067 10.1835 14.0168C10.1835 17.2269 12.7856 19.8487 15.9999 19.8487C19.2142 19.8487 21.8162 17.2269 21.8162 14.0168C21.8162 10.8067 19.2142 8.18487 15.9999 8.18487ZM26 24.9076C26 25.5127 25.5068 26.0001 24.8946 26.0001H7.10544C6.4932 26.0001 6 25.4959 6 24.8908C6 24.2858 6.4932 23.7984 7.10544 23.7984H24.8946C25.5068 23.7984 26 24.3026 26 24.9076ZM15.9916 16.7057C15.9944 16.7057 15.9973 16.7057 16.0001 16.7057H15.9831C15.9859 16.7057 15.9888 16.7057 15.9916 16.7057ZM15.2178 16.3864C15.4199 16.5861 15.7053 16.7034 15.9916 16.7057C16.2779 16.7034 16.5633 16.5861 16.7654 16.3864L19.3504 13.7982C19.7926 13.3612 19.7926 12.6721 19.3504 12.2519C18.9083 11.815 18.211 11.815 17.7858 12.2519L15.9831 14.0671L14.1804 12.2519C13.7552 11.8318 13.0579 11.8318 12.6158 12.2519C12.1906 12.6721 12.1906 13.3612 12.6158 13.7982L15.2178 16.3864Z" />
</svg>
