<svg width="32" height="32" viewBox="0 0 32 32" xmlns="http://www.w3.org/2000/svg">
<path d="M22.9412 23.0115C22.3361 23.0115 21.8487 22.5257 21.8487 21.9225V10.178H10.1849V21.9225C10.1849 22.5257 9.69749 23.0115 9.09244 23.0115C8.4874 23.0115 8 22.5257 8 21.9225V9.08901C8 8.48587 8.4874 8 9.09244 8H22.9412C23.5462 8 24.0336 8.48587 24.0336 9.08901V21.9225C24.0336 22.5257 23.5462 23.0115 22.9412 23.0115Z" />
<path d="M15.4615 18.8736C15.159 18.8736 14.8565 18.7396 14.6548 18.5218L12.8397 16.5448C12.4363 16.1092 12.4531 15.4056 12.9069 15.0035C13.3607 14.6014 14.0498 14.6349 14.4531 15.0705L15.3775 16.0925L17.4783 13.3281C17.8481 12.8422 18.5204 12.7585 19.0078 13.127C19.4952 13.4956 19.5792 14.1658 19.2094 14.6516L16.3187 18.4548C16.117 18.7061 15.8313 18.8736 15.4952 18.8904C15.4952 18.8904 15.4615 18.8904 15.4447 18.8904L15.4615 18.8736Z" />
<path d="M24.9076 24H7.09243C6.48739 24 6 23.5142 6 22.911C6 22.3079 6.48739 21.822 7.09243 21.822H24.9076C25.5126 21.822 26 22.3079 26 22.911C26 23.5142 25.5126 24 24.9076 24Z" />
</svg>
