<svg width="32" height="32" viewBox="0 0 32 32" xmlns="http://www.w3.org/2000/svg">
<path d="M11.8351 16.2038C11.6163 15.9853 11.3471 15.8844 11.061 15.8844C10.7749 15.8844 10.5057 15.9853 10.2869 16.2038L6.31552 20.171C5.89483 20.5913 5.89483 21.2973 6.31552 21.7176L10.2869 25.6848C10.7076 26.1051 11.4144 26.1051 11.8351 25.6848C12.2558 25.2646 12.2558 24.5585 11.8351 24.1383L9.74858 22.054L17.9612 22.054C18.567 22.054 19.055 21.5665 19.055 20.9613C19.055 20.3561 18.567 19.8686 17.9612 19.8686L9.71461 19.8686L11.8351 17.7504C12.2558 17.3301 12.2558 16.6241 11.8351 16.2038Z"/>
<path d="M22.2687 12.1523L20.1649 14.2538C19.7442 14.6741 19.7442 15.3801 20.1649 15.8004C20.5856 16.2206 21.2924 16.2206 21.7131 15.8004L25.6845 11.8332C26.1052 11.4129 26.1052 10.7069 25.6845 10.2866L21.7131 6.3194C21.4943 6.10086 21.2251 6 20.939 6C20.6529 6 20.3837 6.10086 20.1649 6.31939C19.7442 6.73965 19.7442 7.44568 20.1649 7.86594L22.2681 9.96692L14.0403 9.96692C13.4345 9.96692 12.9465 10.4544 12.9465 11.0596C12.9465 11.6648 13.4345 12.1523 14.0403 12.1523L22.2687 12.1523Z"/>
</svg>
