<svg viewBox="0 0 240 240" fill="none" xmlns="http://www.w3.org/2000/svg">
<path d="M155.32 71.3H92.9801C85.5795 71.3 79.5801 77.2994 79.5801 84.7V147.04C79.5801 154.441 85.5795 160.44 92.9801 160.44H155.32C162.721 160.44 168.72 154.441 168.72 147.04V84.7C168.72 77.2994 162.721 71.3 155.32 71.3Z" fill="#072D63"/>
<path d="M122.57 51.84C135.781 51.84 146.49 41.1307 146.49 27.92C146.49 14.7093 135.781 4 122.57 4C109.36 4 98.6504 14.7093 98.6504 27.92C98.6504 41.1307 109.36 51.84 122.57 51.84Z" fill="#FF7044"/>
<path d="M122.57 236.43C135.781 236.43 146.49 225.721 146.49 212.51C146.49 199.299 135.781 188.59 122.57 188.59C109.36 188.59 98.6504 199.299 98.6504 212.51C98.6504 225.721 109.36 236.43 122.57 236.43Z" fill="#FF7044"/>
<path d="M214.381 139.06C227.592 139.06 238.301 128.351 238.301 115.14C238.301 101.929 227.592 91.22 214.381 91.22C201.17 91.22 190.461 101.929 190.461 115.14C190.461 128.351 201.17 139.06 214.381 139.06Z" fill="#FF7044"/>
<path d="M190.459 75.7599C203.67 75.7599 214.379 65.0506 214.379 51.8399C214.379 38.6293 203.67 27.9199 190.459 27.9199C177.248 27.9199 166.539 38.6293 166.539 51.8399C166.539 65.0506 177.248 75.7599 190.459 75.7599Z" fill="#FFC136"/>
<path d="M55.6602 75.7599C68.8709 75.7599 79.5802 65.0506 79.5802 51.8399C79.5802 38.6293 68.8709 27.9199 55.6602 27.9199C42.4496 27.9199 31.7402 38.6293 31.7402 51.8399C31.7402 65.0506 42.4496 75.7599 55.6602 75.7599Z" fill="#FFC136"/>
<path d="M55.6602 202.36C68.8709 202.36 79.5802 191.651 79.5802 178.44C79.5802 165.229 68.8709 154.52 55.6602 154.52C42.4496 154.52 31.7402 165.229 31.7402 178.44C31.7402 191.651 42.4496 202.36 55.6602 202.36Z" fill="#FFC136"/>
<path d="M192.631 207.55C205.842 207.55 216.551 196.841 216.551 183.63C216.551 170.419 205.842 159.71 192.631 159.71C179.42 159.71 168.711 170.419 168.711 183.63C168.711 196.841 179.42 207.55 192.631 207.55Z" fill="#FFC136"/>
<path d="M25.92 139.06C39.1307 139.06 49.84 128.351 49.84 115.14C49.84 101.929 39.1307 91.22 25.92 91.22C12.7093 91.22 2 101.929 2 115.14C2 128.351 12.7093 139.06 25.92 139.06Z" fill="#FF7044"/>
</svg>
