<svg viewBox="0 0 221 65" fill="none" xmlns="http://www.w3.org/2000/svg">
<path d="M0.843994 63.5184H10.626V40.7738C10.626 32.1039 15.69 26.5256 22.989 26.5256C29.767 26.5256 33.886 31.4171 33.886 39.2293V63.5184H43.668V38.2847C43.668 25.6678 36.548 17.6004 24.793 17.6004C21.927 17.5119 19.075 18.0496 16.438 19.1761C13.8 20.3027 11.44 21.9909 9.522 24.1233L8.49299 18.7161H0.843994V63.5184ZM76.09 64.634C90.246 64.634 100.289 54.9353 100.289 41.1159C100.289 27.3834 90.251 17.5978 76.09 17.5978C61.847 17.5978 51.809 27.3834 51.809 41.1159C51.809 54.93 61.847 64.6288 76.09 64.6288V64.634ZM61.505 41.1159C61.416 39.1764 61.733 37.2398 62.435 35.4296C63.137 33.6195 64.208 31.9755 65.58 30.6027C66.953 29.2298 68.596 28.1582 70.406 27.4562C72.215 26.7542 74.151 26.4373 76.09 26.5256C78.023 26.4457 79.951 26.7691 81.752 27.4751C83.553 28.1812 85.188 29.2546 86.552 30.6269C87.915 31.9992 88.979 33.6405 89.674 35.4463C90.37 37.2521 90.682 39.1829 90.591 41.1159C90.682 43.0489 90.37 44.9797 89.674 46.7856C88.979 48.5914 87.915 50.2326 86.552 51.6049C85.188 52.9773 83.553 54.0506 81.752 54.7567C79.951 55.4628 78.023 55.7861 76.09 55.7062C74.151 55.7946 72.214 55.4775 70.404 54.7752C68.594 54.0729 66.951 53.0008 65.578 51.6274C64.206 50.2539 63.135 48.6093 62.433 46.7986C61.732 44.9878 61.416 43.0506 61.505 41.1107V41.1159ZM109.376 63.5184H119.159V0H109.379L109.376 63.5184ZM149.357 64.634C152.187 64.7301 155.003 64.1946 157.6 63.0663C160.197 61.938 162.51 60.2453 164.371 58.1112L165.486 63.5184H173.114V18.7108H163.345V41.4553C163.345 50.1253 158.369 55.7036 151.162 55.7036C144.47 55.7036 140.438 50.8121 140.438 42.9999V18.7108H130.656V43.9445C130.656 56.5614 137.605 64.6288 149.36 64.6288L149.357 64.634ZM202.295 64.634C213.705 64.634 220.999 59.4847 220.999 51.4173C220.999 44.2076 215.252 39.4003 204.01 37.2559C195.43 35.5403 192.771 33.9931 192.771 30.8198C192.771 27.4729 195.859 25.4994 201.093 25.4994C206.84 25.4994 210.273 27.8176 210.617 31.9355H220.226C219.626 22.8366 212.598 17.603 201.093 17.603C189.767 17.603 183.162 22.4103 183.162 30.7356C183.162 38.0321 188.481 42.4079 199.978 44.2971C207.869 45.6706 211.388 47.8151 211.388 51.2489C211.388 54.5958 208.042 56.5693 202.379 56.5693C195.946 56.5693 192.084 53.8222 191.913 49.2728H182.307C182.307 58.5348 190.285 64.6288 202.298 64.6288L202.295 64.634Z"/>
</svg>
