<svg viewBox="0 0 84 84" fill="none" xmlns="http://www.w3.org/2000/svg">
<path d="M41.9851 0C33.6812 0 25.5638 2.46321 18.6593 7.07824C11.7549 11.6932 6.3737 18.2527 3.19594 25.9272C0.0181832 33.6017 -0.813252 42.0465 0.806755 50.1937C2.42676 58.3409 6.42533 65.8247 12.2971 71.6986C18.1688 77.5724 25.65 81.5724 33.7943 83.1929C41.9386 84.8135 50.3804 83.9818 58.0522 80.8029C65.7239 77.624 72.2813 72.2407 76.8946 65.3339C81.508 58.427 83.9704 50.3068 83.9704 42C83.9704 30.8609 79.5469 20.1779 71.6732 12.3014C63.7994 4.42486 53.1203 0 41.9851 0ZM56.6651 62.9973H27.3081C25.6338 62.9973 24.0282 62.332 22.8443 61.1477C21.6605 59.9634 20.9952 58.3572 20.9952 56.6824V27.315C20.9952 25.6401 21.6605 24.0338 22.8443 22.8495C24.0282 21.6652 25.6338 20.9999 27.3081 20.9999H56.6651C58.3393 20.9999 59.9449 21.6652 61.1288 22.8495C62.3127 24.0338 62.9779 25.6401 62.9779 27.315V56.6824C62.9779 58.3572 62.3127 59.9634 61.1288 61.1477C59.9449 62.332 58.3393 62.9973 56.6651 62.9973Z" />
</svg>
