<svg width="24" height="24" viewBox="0 0 24 24" fill="none" xmlns="http://www.w3.org/2000/svg">
<path fill-rule="evenodd" clip-rule="evenodd" d="M3 6.5C3 4.56701 4.56701 3 6.5 3H15.25C16.2165 3 17 3.7835 17 4.75V8H19C20.1046 8 21 8.89545 21 10V19C21 20.1046 20.1046 21 19 21H13C12.4477 21 12 20.5523 12 20C12 19.4477 12.4477 19 13 19H19V10H6.5C5.9632 10 5.45463 9.87915 5 9.66318V10.5C5 11.0523 4.55228 11.5 4 11.5C3.44772 11.5 3 11.0523 3 10.5V6.5ZM5 6.5C5 7.32843 5.67157 8 6.5 8H15V5H6.5C5.67157 5 5 5.67157 5 6.5ZM5.49613 12.8862C5.80749 12.7046 6.19251 12.7046 6.50387 12.8862L9.50387 14.6362C9.81109 14.8154 10 15.1443 10 15.5V19C10 19.3557 9.81109 19.6846 9.50387 19.8638L6.50387 21.6138C6.19251 21.7954 5.80749 21.7954 5.49613 21.6138L2.49613 19.8638C2.18891 19.6846 2 19.3557 2 19V15.5C2 15.1443 2.18891 14.8154 2.49613 14.6362L5.49613 12.8862ZM4 16.0744V18.4256L6 19.5923L8 18.4256V16.0744L6 14.9077L4 16.0744Z" fill="#566479"/>
<path fill-rule="evenodd" clip-rule="evenodd" d="M14.25 14.5C14.25 13.8096 14.8096 13.25 15.5 13.25C16.1904 13.25 16.75 13.8096 16.75 14.5C16.75 15.1904 16.1904 15.75 15.5 15.75C14.8096 15.75 14.25 15.1904 14.25 14.5Z" fill="#566479"/>
</svg>
