<svg width="24" height="24" viewBox="0 0 24 24" fill="none" xmlns="http://www.w3.org/2000/svg">
<path fill-rule="evenodd" clip-rule="evenodd" d="M12 5C8.134 5 5 8.134 5 12C5 15.866 8.134 19 12 19C14.5897 19 16.8523 17.5942 18.0641 15.4993C18.3406 15.0212 18.9524 14.8579 19.4304 15.1344C19.9085 15.4109 20.0718 16.0227 19.7953 16.5007C18.2407 19.1882 15.3325 21 12 21C7.36744 21 3.55237 17.5 3.05493 13H2C1.44772 13 1 12.5523 1 12C1 11.4477 1.44772 11 2 11H3.05493C3.55237 6.50005 7.36744 3 12 3C15.3325 3 18.2407 4.81177 19.7953 7.49928C20.0718 7.97735 19.9085 8.58908 19.4304 8.86561C18.9524 9.14215 18.3406 8.97878 18.0641 8.50071C16.8523 6.40581 14.5897 5 12 5ZM12 9C10.3431 9 9 10.3431 9 12C9 13.6568 10.3432 15 12 15C13.6568 15 15 13.6568 15 12C15 10.3432 13.6568 9 12 9ZM7 12C7 9.23858 9.23858 7 12 7C14.4189 7 16.4367 8.71775 16.9 11H22C22.5523 11 23 11.4477 23 12C23 12.5523 22.5523 13 22 13H16.9C16.4367 15.2822 14.4189 17 12 17C9.23857 17 7 14.7614 7 12Z"/>
</svg>
