<svg viewBox="0 0 17 17" fill="none" xmlns="http://www.w3.org/2000/svg">
<path fill-rule="evenodd" clip-rule="evenodd" d="M0.439342 0.439342C1.02513 -0.146447 1.97487 -0.146447 2.56066 0.439342L8.25 6.12868L13.9393 0.439342C14.5251 -0.146447 15.4749 -0.146447 16.0607 0.439342C16.6464 1.02513 16.6464 1.97487 16.0607 2.56066L10.3713 8.25L16.0607 13.9393C16.6464 14.5251 16.6464 15.4749 16.0607 16.0607C15.4749 16.6464 14.5251 16.6464 13.9393 16.0607L8.25 10.3713L2.56066 16.0607C1.97487 16.6464 1.02513 16.6464 0.439342 16.0607C-0.146447 15.4749 -0.146447 14.5251 0.439342 13.9393L6.12868 8.25L0.439342 2.56066C-0.146447 1.97487 -0.146447 1.02513 0.439342 0.439342Z" />
</svg>
