<svg width="24" height="24" viewBox="0 0 24 24" fill="none" xmlns="http://www.w3.org/2000/svg">
<path fill-rule="evenodd" clip-rule="evenodd" d="M12 1C12.5523 1 13 1.44772 13 2V8C13 8.55228 12.5523 9 12 9C11.4477 9 11 8.55228 11 8V2C11 1.44772 11.4477 1 12 1ZM5.29289 5.29289C5.68342 4.90237 6.31658 4.90237 6.70711 5.29289L8.20711 6.79289C8.59763 7.18342 8.59763 7.81658 8.20711 8.20711C7.81658 8.59763 7.18342 8.59763 6.79289 8.20711L5.29289 6.70711C4.90237 6.31658 4.90237 5.68342 5.29289 5.29289ZM18.7071 5.29289C19.0976 5.68342 19.0976 6.31658 18.7071 6.70711L17.2071 8.20711C16.8166 8.59763 16.1834 8.59763 15.7929 8.20711C15.4024 7.81658 15.4024 7.18342 15.7929 6.79289L17.2929 5.29289C17.6834 4.90237 18.3166 4.90237 18.7071 5.29289ZM1 12C1 11.4477 1.44772 11 2 11H8C8.55228 11 9 11.4477 9 12C9 12.5523 8.55228 13 8 13H2C1.44772 13 1 12.5523 1 12ZM15 12C15 11.4477 15.4477 11 16 11H22C22.5523 11 23 11.4477 23 12C23 12.5523 22.5523 13 22 13H16C15.4477 13 15 12.5523 15 12ZM12 15C12.5523 15 13 15.4477 13 16V22C13 22.5523 12.5523 23 12 23C11.4477 23 11 22.5523 11 22V16C11 15.4477 11.4477 15 12 15ZM8.20711 15.7929C8.59763 16.1834 8.59763 16.8166 8.20711 17.2071L6.70711 18.7071C6.31658 19.0976 5.68342 19.0976 5.29289 18.7071C4.90237 18.3166 4.90237 17.6834 5.29289 17.2929L6.79289 15.7929C7.18342 15.4024 7.81658 15.4024 8.20711 15.7929ZM15.7929 15.7929C16.1834 15.4024 16.8166 15.4024 17.2071 15.7929L18.7071 17.2929C19.0976 17.6834 19.0976 18.3166 18.7071 18.7071C18.3166 19.0976 17.6834 19.0976 17.2929 18.7071L15.7929 17.2071C15.4024 16.8166 15.4024 16.1834 15.7929 15.7929Z" fill="black"/>
</svg>
