<svg width="24" height="24" viewBox="0 0 24 24" fill="none" xmlns="http://www.w3.org/2000/svg">
<path fill-rule="evenodd" clip-rule="evenodd" d="M12 4C11.1716 4 10.5 4.67158 10.5 5.5V6C10.5 6.55228 10.0523 7 9.5 7H5V19H19V16.4646C17.3039 16.2219 16 14.7632 16 13C16 11.2368 17.3039 9.77806 19 9.53545V7H14.5C13.9477 7 13.5 6.55228 13.5 6V5.5C13.5 4.67158 12.8284 4 12 4ZM8.53544 5C8.77806 3.30385 10.2368 2 12 2C13.7632 2 15.2219 3.30385 15.4646 5H19C20.1046 5 21 5.89545 21 7V10.5C21 11.0523 20.5523 11.5 20 11.5H19.5C18.6716 11.5 18 12.1716 18 13C18 13.8284 18.6716 14.5 19.5 14.5H20C20.5523 14.5 21 14.9477 21 15.5V19C21 20.1046 20.1046 21 19 21H5C3.89545 21 3 20.1046 3 19V7C3 5.89544 3.89544 5 5 5H8.53544Z" />
</svg>
