<svg viewBox="0 0 32 32" xmlns="http://www.w3.org/2000/svg">
<path d="M24.9084 14.1347C24.3039 14.1347 23.8169 13.6473 23.8169 13.0422V8.18494H18.9637C18.3591 8.18494 17.8721 7.69753 17.8721 7.09247C17.8721 6.48741 18.3591 6 18.9637 6H24.9084C25.513 6 26 6.48741 26 7.09247V13.0422C26 13.6473 25.513 14.1347 24.9084 14.1347Z" />
<path fill-rule="evenodd" clip-rule="evenodd" d="M11.8272 26.0003C8.61973 26.0003 6 23.3784 6 20.1682C6 17.4219 7.92978 15.0865 10.5291 14.4852C11.1213 11.8945 13.4479 9.94951 16.2105 9.94951C19.418 9.94951 22.0377 12.5714 22.0377 15.7816C22.0377 18.5466 20.0942 20.8752 17.5056 21.4679C16.9083 24.0636 14.5653 26.0003 11.8272 26.0003ZM16.3334 19.4436C16.2926 19.4449 16.2516 19.4456 16.2105 19.4456C14.1953 19.4456 12.5664 17.8153 12.5664 15.7984C12.5664 13.7816 14.1953 12.1513 16.2105 12.1513C18.2257 12.1513 19.8546 13.7816 19.8546 15.7984C19.8546 17.687 18.4264 19.2365 16.5902 19.4261C16.5014 19.4219 16.4155 19.4281 16.3334 19.4436ZM15.2201 21.5291C14.6794 22.8741 13.3579 23.8154 11.844 23.8154C9.82884 23.8154 8.1999 22.1851 8.1999 20.1682C8.1999 18.6548 9.13821 17.3336 10.4711 16.7911C10.895 19.2018 12.809 21.1123 15.2201 21.5291Z" />
</svg>
