<svg xmlns="http://www.w3.org/2000/svg" viewBox="0 0 24 24" fill="none">
  <path d="M11 8C11 5.79086 9.20914 4 7 4H2C1.44772 4 1 4.44772 1 5V19C1 19.5523 1.44772 20 2 20H8.723C9.24367 20 9.72335 20.1253 10.1234 20.3725C10.4822 20.5942 10.7822 20.8974 11 21.2561V8Z" fill="currentColor" />
  <path d="M13 21.2561C13.2178 20.8974 13.5178 20.5942 13.8766 20.3725C14.2766 20.1253 14.7563 20 15.277 20H22C22.5523 20 23 19.5523 23 19V5C23 4.44772 22.5523 4 22 4H17C14.7909 4 13 5.79086 13 8V21.2561Z" fill="currentColor" />
</svg>
