<svg width="24" height="24" viewBox="0 0 24 24" fill="none" xmlns="http://www.w3.org/2000/svg">
<path fill-rule="evenodd" clip-rule="evenodd" d="M18.0019 5L6.00195 5.00002C5.44967 5.00002 5.00195 5.44773 5.00195 6.00002V16.0358C5.00195 16.588 5.44969 17.0358 6.00195 17.0358H8.65157C9.12139 17.0358 9.57623 17.2012 9.93632 17.503L12.0014 19.2341L14.0997 17.4957C14.4585 17.1985 14.9098 17.0358 15.3757 17.0358H18.0019V17.0358C18.5542 17.0357 19.002 16.5879 19.002 16.0358V6C19.002 5.44777 18.5543 5 18.0019 5ZM6.00195 3.00002L18.0019 3C19.6587 3 21.002 4.34309 21.002 6V16.0358C21.002 17.6927 19.6587 19.0357 18.0021 19.0358H15.3757L12.6357 21.3058C12.264 21.6138 11.7253 21.6123 11.3553 21.3022L8.65164 19.0358L6.00195 19.0358C4.34508 19.0358 3.00195 17.6926 3.00195 16.0358V6.00002C3.00195 4.34317 4.3451 3.00002 6.00195 3.00002Z"/>
<path fill-rule="evenodd" clip-rule="evenodd" d="M10.0424 9.72582C9.90307 9.87449 9.74844 10.1591 9.74844 10.6675C9.74844 11.2364 10.1833 11.882 10.9094 12.4818C11.2455 12.7595 11.5915 12.9827 11.8631 13.1336C11.9126 13.1611 11.9583 13.1854 11.9998 13.2068C12.0413 13.1854 12.087 13.1611 12.1365 13.1336C12.4081 12.9827 12.754 12.7595 13.0902 12.4818C13.8163 11.882 14.2511 11.2364 14.2511 10.6675C14.2511 10.1591 14.0965 9.87451 13.9571 9.72583C13.8129 9.57205 13.628 9.5 13.4448 9.5C13.1977 9.5 13.0004 9.57357 12.8625 9.64883C12.7937 9.68637 12.7435 9.72235 12.7149 9.74469C12.7035 9.75363 12.696 9.75999 12.6928 9.76283C12.5067 9.94169 12.2585 10.0419 11.9998 10.0419C11.7412 10.0419 11.493 9.94173 11.3069 9.76288C11.3036 9.76005 11.2962 9.75368 11.2847 9.74473C11.2562 9.72238 11.206 9.68639 11.1371 9.64885C10.9991 9.57358 10.8018 9.5 10.5547 9.5C10.3715 9.5 10.1866 9.57205 10.0424 9.72582ZM11.9998 7.84325C11.6459 7.66526 11.155 7.5 10.5547 7.5C9.83484 7.5 9.11656 7.7892 8.58337 8.35793C8.0454 8.93177 7.74844 9.73092 7.74844 10.6675C7.74844 12.1759 8.8038 13.3366 9.63562 14.0238C10.0785 14.3896 10.5284 14.68 10.8918 14.8819C11.0733 14.9828 11.243 15.0669 11.3884 15.1292C11.4601 15.16 11.5372 15.1902 11.6138 15.2148L11.6165 15.2156C11.6631 15.2306 11.8176 15.2801 11.9998 15.2801C12.182 15.2801 12.3366 15.2305 12.3831 15.2156L12.3858 15.2147C12.4624 15.1902 12.5395 15.1599 12.6112 15.1292C12.7566 15.0669 12.9262 14.9828 13.1077 14.8819C13.4712 14.68 13.9211 14.3896 14.3639 14.0238C15.1957 13.3366 16.2511 12.1759 16.2511 10.6675C16.2511 9.7309 15.9541 8.93175 15.4161 8.35792C14.8829 7.7892 14.1647 7.5 13.4448 7.5C12.8445 7.5 12.3537 7.66525 11.9998 7.84325Z"/>
</svg>
