<svg xmlns="http://www.w3.org/2000/svg" viewBox="0 0 24 24" fill="none">
  <path fill-rule="evenodd" clip-rule="evenodd" d="M11.6749 2.05431C11.8856 1.9819 12.1144 1.9819 12.3251 2.05431L20.3251 4.80431C20.7289 4.94312 21 5.32301 21 5.75V11.9123C21 14.7191 19.8511 16.7418 18.1875 18.3168C16.6151 19.8054 14.5552 20.9162 12.6319 21.9533L12.4748 22.038C12.1785 22.1979 11.8215 22.1979 11.5252 22.038L11.3681 21.9533C9.44484 20.9162 7.38493 19.8054 5.8125 18.3168C4.14891 16.7418 3 14.7191 3 11.9123V5.75C3 5.32301 3.27112 4.94312 3.67492 4.80431L11.6749 2.05431ZM15.2071 10.4571C15.5976 10.0666 15.5976 9.43342 15.2071 9.04289C14.8166 8.65237 14.1834 8.65237 13.7929 9.04289L11 11.8358L10.2071 11.0429C9.81658 10.6524 9.18342 10.6524 8.79289 11.0429C8.40237 11.4334 8.40237 12.0666 8.79289 12.4571L10.2929 13.9571C10.4804 14.1446 10.7348 14.25 11 14.25C11.2652 14.25 11.5196 14.1446 11.7071 13.9571L15.2071 10.4571Z" fill="currentColor" />
</svg>
