<svg viewBox="0 0 180 39" fill="none" xmlns="http://www.w3.org/2000/svg">
<path fill-rule="evenodd" clip-rule="evenodd" d="M94.7225 8.76405C94.7142 7.54448 94.9062 6.33185 95.2904 5.17439C95.6127 4.16018 96.1296 3.21864 96.8127 2.40262C97.4591 1.64263 98.2661 1.03545 99.1754 0.624832C100.143 0.212536 101.183 0 102.234 0C103.285 0 104.326 0.212536 105.293 0.624832C106.202 1.03545 107.009 1.64263 107.655 2.40262C108.334 3.22139 108.851 4.16211 109.178 5.17439C109.55 6.33409 109.732 7.54625 109.717 8.76405C109.732 9.98369 109.549 11.1977 109.178 12.3594C108.854 13.3693 108.337 14.3067 107.655 15.1198C107.01 15.8798 106.203 16.4855 105.293 16.8919C104.326 17.3042 103.285 17.5167 102.234 17.5167C101.183 17.5167 100.143 17.3042 99.1754 16.8919C98.2651 16.4855 97.4578 15.8798 96.8127 15.1198C96.1274 14.3096 95.61 13.3713 95.2904 12.3594C94.9062 11.2 94.7142 9.98546 94.7225 8.76405ZM96.9944 8.76405C96.9811 9.70185 97.1093 10.6363 97.3749 11.5358C97.5857 12.2928 97.9362 13.0037 98.4087 13.6317C98.8492 14.1953 99.4152 14.6484 100.062 14.9551C100.738 15.2583 101.47 15.4151 102.211 15.4151C102.952 15.4151 103.685 15.2583 104.361 14.9551C105.005 14.6466 105.569 14.1937 106.008 13.6317C106.49 13.0075 106.85 12.2985 107.07 11.5415C107.331 10.6411 107.458 9.70707 107.445 8.76973C107.457 7.83427 107.331 6.90218 107.07 6.00363C106.85 5.24484 106.49 4.53397 106.008 3.90779C105.569 3.3423 105.005 2.88558 104.361 2.57302C103.685 2.2698 102.952 2.11304 102.211 2.11304C101.47 2.11304 100.738 2.2698 100.062 2.57302C99.4146 2.88396 98.8489 3.34088 98.4087 3.90779C97.9288 4.53433 97.5704 5.2452 97.3522 6.00363C97.0876 6.89945 96.9592 7.83002 96.9717 8.76405H96.9944ZM47.2041 15.3056C47.0851 15.2685 46.9599 15.2556 46.8359 15.2675H45.1149L46.2962 11.8596H53.1974L54.3674 15.2675H52.4418C52.3187 15.256 52.1946 15.2692 52.0765 15.3063C51.9585 15.3433 51.8491 15.4035 51.7547 15.4833C51.5949 15.7009 51.5219 15.9703 51.5502 16.2387C51.523 16.5071 51.5958 16.776 51.7547 16.9941C51.8496 17.0729 51.9591 17.1321 52.0771 17.1682C52.1952 17.2042 52.3191 17.2165 52.4418 17.2042H57.4799C57.6036 17.217 57.7285 17.2049 57.8475 17.1689C57.9664 17.1327 58.0771 17.0733 58.1728 16.9941C58.3316 16.776 58.4044 16.5071 58.3773 16.2387C58.4055 15.9703 58.3326 15.7009 58.1728 15.4833C58.0774 15.4031 57.967 15.3427 57.8481 15.3056C57.7291 15.2685 57.6039 15.2556 57.4799 15.2675H56.6166L51.5898 1.23827C51.5069 0.947981 51.3238 0.696461 51.073 0.528285C50.792 0.373283 50.4737 0.298615 50.1528 0.312451H44.9331C44.809 0.300549 44.6838 0.313506 44.5649 0.350567C44.4459 0.387626 44.3355 0.448045 44.2401 0.528285C44.0758 0.750123 44.0025 1.02658 44.0357 1.30074C44.0076 1.56922 44.0804 1.83857 44.2401 2.05616C44.3355 2.13641 44.4459 2.19682 44.5649 2.23387C44.6838 2.27095 44.809 2.2839 44.9331 2.27199H47.5913L42.8827 15.2675H42.0819C41.9587 15.256 41.8345 15.2692 41.7165 15.3063C41.5986 15.3433 41.4891 15.4035 41.3946 15.4833C41.2348 15.7009 41.162 15.9703 41.1901 16.2387C41.1629 16.5071 41.2359 16.776 41.3946 16.9941C41.4895 17.0729 41.5992 17.1321 41.7171 17.1682C41.8351 17.2042 41.959 17.2165 42.0819 17.2042H46.8132C46.9368 17.217 47.0617 17.2049 47.1808 17.1689C47.2997 17.1327 47.4104 17.0733 47.506 16.9941C47.6649 16.776 47.7377 16.5071 47.7105 16.2387C47.7454 15.9731 47.6805 15.704 47.5288 15.4833C47.4334 15.4031 47.323 15.3427 47.2041 15.3056ZM52.5441 9.94546H46.9665L49.6247 2.27199H49.8974L52.5441 9.94546ZM16.278 9.58935C17.9803 9.50379 19.3343 8.09651 19.3343 6.373C19.3343 4.59439 17.8924 3.15253 16.1137 3.15253C14.3351 3.15253 12.8933 4.59439 12.8933 6.373C12.8933 8.09889 14.2509 9.50769 15.9564 9.58969L16.0664 16.2788C14.9929 16.2942 14.0464 16.835 13.4726 17.6556L7.88774 13.7661C8.18087 13.2807 8.34954 12.7118 8.34954 12.1035C8.34954 10.3248 6.90769 8.883 5.12907 8.883C3.35045 8.883 1.9086 10.3248 1.9086 12.1035C1.9086 13.8821 3.35045 15.3239 5.12907 15.3239C6.18389 15.3239 7.12026 14.8168 7.70768 14.0331L13.4146 17.7415C13.0849 18.2468 12.8933 18.8505 12.8933 19.4989C12.8933 19.8157 12.939 20.1218 13.0243 20.411L6.2426 22.4102C5.78893 21.1812 4.60703 20.3049 3.22047 20.3049C1.44185 20.3049 0 21.7468 0 23.5255C0 25.304 1.44185 26.7459 3.22047 26.7459C4.99909 26.7459 6.44094 25.304 6.44094 23.5255C6.44094 23.2468 6.40554 22.9763 6.33898 22.7184L13.0544 20.5076C13.3317 21.3491 13.9465 22.0373 14.7385 22.4119L11.7338 28.7499C11.3667 28.6043 10.9664 28.5244 10.5475 28.5244C8.7689 28.5244 7.32706 29.9662 7.32706 31.7449C7.32706 33.5235 8.7689 34.9654 10.5475 34.9654C12.3261 34.9654 13.768 33.5235 13.768 31.7449C13.768 30.5013 13.0631 29.4223 12.0311 28.8857L14.8322 22.4544C15.2249 22.6249 15.6583 22.7194 16.1137 22.7194C16.5948 22.7194 17.0513 22.6139 17.4613 22.4248L20.3888 28.8088C19.2712 29.314 18.4936 30.4387 18.4936 31.7449C18.4936 33.5235 19.9355 34.9654 21.714 34.9654C23.4927 34.9654 24.9344 33.5235 24.9344 31.7449C24.9344 29.9662 23.4927 28.5244 21.714 28.5244C21.3559 28.5244 21.0115 28.5828 20.6897 28.6907L17.5526 22.3809C18.315 21.9996 18.9049 21.3246 19.1742 20.5042L25.9051 22.7201C25.8388 22.9775 25.8036 23.2474 25.8036 23.5255C25.8036 25.304 27.2455 26.7459 29.024 26.7459C30.8027 26.7459 32.2446 25.304 32.2446 23.5255C32.2446 21.7468 30.8027 20.3049 29.024 20.3049C27.637 20.3049 26.4547 21.1819 26.0014 22.4117L19.2042 20.4079C19.2888 20.1196 19.3343 19.8145 19.3343 19.4989C19.3343 18.8521 19.1436 18.2499 18.8154 17.7454L24.5209 14.0342C25.1084 14.8173 26.0443 15.3239 27.0987 15.3239C28.8772 15.3239 30.3191 13.8821 30.3191 12.1035C30.3191 10.3248 28.8772 8.883 27.0987 8.883C25.32 8.883 23.8782 10.3248 23.8782 12.1035C23.8782 12.7123 24.0472 13.2817 24.3408 13.7673L18.7577 17.6597C18.186 16.8394 17.2422 16.2976 16.1709 16.2789L16.278 9.58935ZM60.4165 2.27191C60.2925 2.28382 60.1673 2.27087 60.0483 2.2338C59.9294 2.19674 59.819 2.13633 59.7236 2.05609C59.5639 1.83849 59.4909 1.56914 59.5192 1.30067C59.4919 1.03403 59.5646 0.766779 59.7236 0.550929C59.819 0.470688 59.9294 0.41027 60.0483 0.37321C60.1673 0.336149 60.2925 0.323192 60.4165 0.335094H65.0229C65.147 0.323192 65.2721 0.336149 65.3911 0.37321C65.5102 0.41027 65.6205 0.470688 65.7159 0.550929C65.8748 0.766779 65.9477 1.03403 65.9204 1.30067C65.9485 1.56914 65.8755 1.83849 65.7159 2.05609C65.6205 2.13633 65.5102 2.19674 65.3911 2.2338C65.2721 2.27087 65.147 2.28382 65.0229 2.27191H63.4326V11.3597C63.417 11.9963 63.4954 12.6317 63.6655 13.2454C63.7967 13.7186 64.0402 14.1531 64.3754 14.512C64.7065 14.8499 65.1194 15.0964 65.5738 15.2276C66.68 15.5153 67.8415 15.5153 68.9477 15.2276C69.3999 15.095 69.8106 14.8486 70.1404 14.512C70.4777 14.1546 70.7215 13.7195 70.8505 13.2454C71.0224 12.632 71.103 11.9966 71.0889 11.3597V2.27191H69.4929C69.3698 2.28402 69.2453 2.27114 69.1274 2.23405C69.0093 2.19696 68.8999 2.13644 68.8058 2.05609C68.6414 1.84056 68.5661 1.57011 68.5956 1.30067C68.5664 1.03301 68.6417 0.764442 68.8058 0.550929C68.8999 0.470577 69.0093 0.410047 69.1274 0.372962C69.2453 0.335876 69.3698 0.322996 69.4929 0.335094H74.105C74.2282 0.322996 74.3524 0.335876 74.4706 0.372962C74.5887 0.410047 74.6981 0.470577 74.7922 0.550929C74.9562 0.764442 75.0315 1.03301 75.0023 1.30067C75.0319 1.57011 74.9566 1.84056 74.7922 2.05609C74.6981 2.13644 74.5887 2.19696 74.4706 2.23405C74.3524 2.27114 74.2282 2.28402 74.105 2.27191H73.2246V11.6153C73.2421 12.5094 73.1018 13.3996 72.81 14.245C72.5621 14.9391 72.1579 15.5668 71.6286 16.0796C71.0911 16.5775 70.4485 16.9482 69.7486 17.1645C68.1194 17.6341 66.3908 17.6341 64.7616 17.1645C64.0656 16.9469 63.4271 16.5762 62.8929 16.0796C62.3602 15.5697 61.9553 14.9411 61.7115 14.245C61.4171 13.4003 61.2767 12.5096 61.2969 11.6153V2.27191H60.4165ZM79.8699 2.27199H83.6696V15.2675H80.3071C80.1839 15.2554 80.0596 15.2683 79.9415 15.3053C79.8234 15.3424 79.714 15.403 79.6199 15.4833C79.4576 15.6999 79.3826 15.9695 79.4097 16.2387C79.3837 16.5079 79.4585 16.7771 79.6199 16.9941C79.7145 17.0735 79.8241 17.133 79.9422 17.169C80.0603 17.2052 80.1844 17.2172 80.3071 17.2042H89.1733C89.2962 17.2165 89.4201 17.2042 89.5381 17.1682C89.656 17.1321 89.7657 17.0729 89.8606 16.9941C90.0219 16.7771 90.0969 16.5079 90.0708 16.2387C90.098 15.9695 90.023 15.6999 89.8606 15.4833C89.7661 15.4035 89.6566 15.3433 89.5387 15.3063C89.4208 15.2692 89.2965 15.256 89.1733 15.2675H85.7996V2.27199H89.5993V6.67388C89.5864 6.80237 89.6009 6.93216 89.6421 7.05458C89.6832 7.17701 89.75 7.28926 89.8379 7.38385C90.0796 7.55266 90.3738 7.62924 90.6672 7.59969C90.9621 7.62812 91.2579 7.55169 91.5021 7.38385C91.592 7.28488 91.6592 7.16763 91.6995 7.04018C91.7396 6.91271 91.7517 6.77807 91.735 6.64547V1.27803C91.7623 1.01139 91.6894 0.744135 91.5305 0.528285C91.4352 0.448045 91.3248 0.387626 91.2057 0.350567C91.0869 0.313506 90.9616 0.300549 90.8375 0.312451H78.6316C78.5075 0.300549 78.3823 0.313506 78.2634 0.350567C78.1444 0.387626 78.034 0.448045 77.9386 0.528285C77.7798 0.744135 77.7068 1.01139 77.7342 1.27803V6.67388C77.7215 6.8019 77.7357 6.93115 77.7758 7.05339C77.8159 7.17564 77.881 7.28818 77.9671 7.38385C78.2113 7.55169 78.5069 7.62812 78.802 7.59969C79.0954 7.62924 79.3895 7.55266 79.6313 7.38385C79.723 7.28602 79.792 7.16907 79.8332 7.04141C79.8746 6.91374 79.8871 6.77853 79.8699 6.64547V2.27199ZM112.841 2.2718H113.938L113.943 15.2673H112.989C112.739 15.2445 112.489 15.3222 112.296 15.4831C112.136 15.7007 112.063 15.9701 112.092 16.2385C112.065 16.5069 112.137 16.7758 112.296 16.9939C112.49 17.1529 112.739 17.2285 112.989 17.204H118.027C118.15 17.217 118.274 17.205 118.392 17.1688C118.51 17.1328 118.62 17.0733 118.714 16.9939C118.878 16.7782 118.953 16.5079 118.924 16.2385C118.954 15.9691 118.879 15.6986 118.714 15.4831C118.62 15.4028 118.511 15.3422 118.393 15.3052C118.275 15.2681 118.15 15.2552 118.027 15.2673H116.079V3.55546L123.463 16.7441C123.586 16.9677 123.756 17.1616 123.963 17.312C124.165 17.4538 124.408 17.5255 124.655 17.5165C124.946 17.5411 125.235 17.4583 125.468 17.2836C125.552 17.2067 125.618 17.1126 125.662 17.0078C125.706 16.9028 125.727 16.7896 125.723 16.6759V2.2491H126.535C126.66 2.26099 126.785 2.24804 126.904 2.21098C127.023 2.17391 127.133 2.1135 127.229 2.03326C127.388 1.81566 127.461 1.54631 127.433 1.27784C127.46 1.0112 127.387 0.743948 127.229 0.528098C127.131 0.451137 127.019 0.394425 126.899 0.361268C126.779 0.328112 126.653 0.319177 126.53 0.334983H121.918C121.795 0.323533 121.67 0.33672 121.552 0.373778C121.434 0.410835 121.325 0.471018 121.231 0.550818C121.072 0.766668 120.999 1.03392 121.026 1.30056C120.998 1.56903 121.071 1.83838 121.231 2.05598C121.325 2.13578 121.434 2.19597 121.552 2.23301C121.67 2.27007 121.795 2.28327 121.918 2.2718H123.588V12.7795L116.84 0.732572C116.755 0.597686 116.633 0.489116 116.49 0.418927C116.347 0.348739 116.187 0.319682 116.028 0.334983H112.841C112.591 0.312221 112.342 0.389857 112.148 0.550818C111.99 0.766668 111.917 1.03392 111.944 1.30056C111.916 1.56903 111.989 1.83838 112.148 2.05598C112.342 2.21694 112.591 2.29457 112.841 2.2718ZM129.676 8.76378C129.662 7.54598 129.844 6.33382 130.216 5.17412C130.542 4.16184 131.059 3.22111 131.738 2.40235C132.385 1.64236 133.192 1.03518 134.101 0.62456C135.069 0.212431 136.11 0 137.162 0C138.215 0 139.256 0.212431 140.224 0.62456C141.125 1.03883 141.923 1.6457 142.564 2.40235C143.247 3.21946 143.766 4.16056 144.092 5.17412C144.464 6.33382 144.646 7.54598 144.631 8.76378C144.646 9.98342 144.464 11.1974 144.092 12.3591C143.768 13.3703 143.249 14.3082 142.564 15.1195C141.92 15.8781 141.115 16.4836 140.207 16.8916C139.239 17.3037 138.198 17.5163 137.145 17.5163C136.093 17.5163 135.052 17.3037 134.084 16.8916C133.174 16.4852 132.366 15.8795 131.721 15.1195C131.04 14.3065 130.523 13.369 130.199 12.3591C129.833 11.1965 129.657 9.98249 129.676 8.76378ZM131.948 8.76378C131.936 9.70112 132.062 10.6351 132.323 11.5355C132.536 12.2929 132.888 13.0038 133.363 13.6314C133.802 14.1935 134.366 14.6464 135.01 14.9548C135.686 15.258 136.419 15.4148 137.16 15.4148C137.901 15.4148 138.633 15.258 139.309 14.9548C139.956 14.6482 140.522 14.195 140.962 13.6314C141.442 13.0059 141.802 12.2973 142.024 11.5412C142.285 10.6408 142.411 9.7068 142.399 8.76946C142.411 7.834 142.285 6.90191 142.024 6.00336C141.802 5.24553 141.442 4.5351 140.962 3.90751C140.522 3.34061 139.956 2.88369 139.309 2.57275C138.633 2.26953 137.901 2.11277 137.16 2.11277C136.419 2.11277 135.686 2.26953 135.01 2.57275C134.365 2.8853 133.802 3.34203 133.363 3.90751C132.881 4.53369 132.521 5.24457 132.3 6.00336C132.041 6.9001 131.914 7.83022 131.926 8.76378H131.948ZM147.676 2.27211H148.346L147.994 15.2676H147.221C147.098 15.2555 146.974 15.2684 146.856 15.3055C146.738 15.3426 146.628 15.4031 146.534 15.4834C146.372 15.7 146.297 15.9696 146.324 16.2388C146.298 16.508 146.373 16.7772 146.534 16.9942C146.629 17.0736 146.738 17.1331 146.856 17.1691C146.974 17.2053 147.099 17.2173 147.221 17.2044H151.703C151.827 17.2171 151.951 17.205 152.07 17.169C152.189 17.1328 152.3 17.0735 152.396 16.9942C152.555 16.7761 152.627 16.5072 152.6 16.2388C152.629 15.9704 152.556 15.701 152.396 15.4834C152.3 15.4032 152.19 15.3428 152.071 15.3057C151.952 15.2687 151.827 15.2557 151.703 15.2676H150.124L150.425 3.61256L153.356 11.729C153.443 12.011 153.616 12.259 153.85 12.439C154.093 12.5896 154.376 12.6629 154.662 12.6492C154.953 12.6757 155.244 12.5976 155.482 12.429C155.72 12.2603 155.891 12.0121 155.963 11.729L158.86 3.61256L159.172 15.2676H157.593C157.469 15.2557 157.344 15.2687 157.225 15.3057C157.106 15.3428 156.995 15.4032 156.9 15.4834C156.74 15.701 156.667 15.9704 156.695 16.2388C156.668 16.5072 156.741 16.7761 156.9 16.9942C156.996 17.0735 157.106 17.1328 157.225 17.169C157.344 17.205 157.469 17.2171 157.593 17.2044H162.074C162.324 17.2288 162.573 17.1532 162.767 16.9942C162.925 16.7761 163 16.5072 162.971 16.2388C163 15.9704 162.927 15.701 162.767 15.4834C162.573 15.3225 162.325 15.2448 162.074 15.2676H161.307L160.944 2.24941H161.654C161.777 2.2615 161.902 2.24862 162.019 2.21153C162.137 2.17445 162.246 2.11392 162.341 2.03356C162.505 1.81804 162.581 1.54759 162.551 1.27815C162.581 1.01049 162.505 0.74192 162.341 0.528407C162.246 0.448056 162.137 0.387525 162.019 0.35044C161.902 0.313354 161.777 0.300474 161.654 0.312572H158.65C158.195 0.312572 157.917 0.471609 157.809 0.784L154.668 9.45143L151.504 0.784C151.402 0.471609 151.129 0.312572 150.68 0.312572H147.676C147.551 0.304196 147.426 0.321001 147.308 0.361984C147.19 0.402967 147.081 0.46729 146.989 0.551126C146.83 0.766976 146.757 1.03423 146.784 1.30086C146.756 1.56934 146.829 1.83869 146.989 2.05629C147.083 2.13609 147.193 2.19627 147.31 2.23332C147.428 2.27038 147.553 2.28357 147.676 2.27211ZM171.043 10.2237L166.124 2.27191H165.125C165.002 2.28402 164.877 2.27114 164.759 2.23405C164.64 2.19696 164.531 2.13644 164.437 2.05609C164.272 1.84056 164.198 1.57011 164.227 1.30067C164.198 1.03301 164.274 0.764442 164.437 0.550929C164.531 0.470577 164.64 0.410047 164.759 0.372962C164.877 0.335876 165.002 0.322996 165.125 0.335094H169.879C170.129 0.312332 170.378 0.389966 170.571 0.550929C170.73 0.766779 170.803 1.03403 170.776 1.30067C170.804 1.56914 170.732 1.83849 170.571 2.05609C170.378 2.21705 170.129 2.29468 169.879 2.27191H168.554L172.099 8.07104L175.701 2.27191H174.774C174.524 2.29468 174.275 2.21705 174.082 2.05609C173.921 1.83849 173.849 1.56914 173.877 1.30067C173.85 1.03403 173.923 0.766779 174.082 0.550929C174.275 0.389966 174.524 0.312332 174.774 0.335094H179.102C179.225 0.323644 179.35 0.336831 179.468 0.373889C179.587 0.410945 179.695 0.471129 179.79 0.550929C179.948 0.766779 180.022 1.03403 179.994 1.30067C180.022 1.56914 179.95 1.83849 179.79 2.05609C179.695 2.13589 179.587 2.19608 179.468 2.23312C179.35 2.27018 179.225 2.28338 179.102 2.27191H178.131L173.179 10.2237V15.2901H176.399C176.522 15.2787 176.647 15.2919 176.765 15.3289C176.882 15.366 176.992 15.4261 177.085 15.5059C177.247 15.7235 177.319 15.9929 177.291 16.2614C177.318 16.5298 177.245 16.7987 177.085 17.0167C176.991 17.0955 176.882 17.1547 176.763 17.1909C176.645 17.2269 176.522 17.2392 176.399 17.2269H167.828C167.705 17.2398 167.582 17.2278 167.463 17.1917C167.345 17.1557 167.236 17.0962 167.141 17.0167C166.977 16.8011 166.901 16.5307 166.931 16.2614C166.901 15.992 166.977 15.7215 167.141 15.5059C167.234 15.4256 167.345 15.3651 167.462 15.328C167.58 15.2909 167.705 15.278 167.828 15.2901H171.043V10.2237ZM51.7207 38.0548C52.7574 37.7414 53.7373 37.2639 54.6231 36.6406C54.823 36.4876 54.9571 36.2641 54.998 36.0158C55.0191 35.7101 54.9327 35.4066 54.7537 35.1581C54.5492 34.7946 54.3277 34.5901 54.1005 34.5901C53.9884 34.5803 53.8755 34.5928 53.7683 34.6269C53.6611 34.661 53.5616 34.7161 53.4757 34.7889C52.7944 35.3196 52.0254 35.727 51.2037 35.993C50.3304 36.2648 49.4205 36.4007 48.506 36.3963C47.7812 36.4056 47.0641 36.2482 46.4101 35.9362C45.779 35.6255 45.2287 35.1725 44.8027 34.6129C44.3342 33.9832 43.9857 33.2727 43.7746 32.517C43.5233 31.6167 43.4009 30.6854 43.411 29.7508C43.3995 28.8147 43.5297 27.882 43.7972 26.9848C44.0213 26.2236 44.3854 25.5109 44.8707 24.8832C45.3146 24.3139 45.8841 23.8552 46.535 23.5429C47.1991 23.2301 47.9252 23.0709 48.6593 23.0771C49.264 23.0659 49.8659 23.1619 50.437 23.361C50.9003 23.5304 51.3237 23.7933 51.6809 24.1336C52.0051 24.453 52.2536 24.8412 52.4079 25.2694C52.5627 25.6973 52.6415 26.1491 52.6407 26.6043C52.6281 26.7322 52.6423 26.8615 52.6824 26.9837C52.7225 27.1059 52.7876 27.2185 52.8736 27.3142C53.1286 27.4576 53.4162 27.5327 53.7086 27.5327C54.001 27.5327 54.2885 27.4576 54.5435 27.3142C54.6296 27.2185 54.6946 27.1059 54.7347 26.9837C54.7749 26.8615 54.7891 26.7322 54.7764 26.6043V21.9069C54.7884 21.779 54.7739 21.6499 54.7338 21.5278C54.6937 21.4056 54.629 21.293 54.5435 21.197C54.2868 21.0593 53.9999 20.9872 53.7086 20.9872C53.4173 20.9872 53.1304 21.0593 52.8736 21.197C52.7882 21.293 52.7235 21.4056 52.6834 21.5278C52.6434 21.6499 52.6289 21.779 52.6407 21.9069V22.7646C52.1769 22.2124 51.5944 21.7718 50.9369 21.4754C50.1757 21.1533 49.3548 20.9965 48.5285 21.0153C47.5027 20.9907 46.4841 21.1943 45.5467 21.6117C44.6491 22.0255 43.8539 22.6326 43.2179 23.3894C42.5424 24.2057 42.0313 25.145 41.7128 26.1556C41.3431 27.3175 41.1627 28.5316 41.1788 29.7508C41.1634 30.9688 41.3377 32.1819 41.6958 33.3462C42.005 34.352 42.5044 35.289 43.1669 36.1066C43.7977 36.8692 44.5914 37.4806 45.4898 37.8958C46.4456 38.3214 47.4825 38.5345 48.5285 38.5206C49.6098 38.5231 50.6854 38.3662 51.7207 38.0548ZM62.7735 36.2543C62.8976 36.241 63.0231 36.2533 63.1423 36.2904C63.2614 36.3275 63.3718 36.3887 63.4665 36.4701C63.6002 36.6983 63.6708 36.958 63.6708 37.2227C63.6708 37.4871 63.6002 37.747 63.4665 37.9752C63.3711 38.0554 63.2608 38.1159 63.1417 38.153C63.0227 38.1899 62.8976 38.2029 62.7735 38.191H58.0251C57.901 38.2029 57.776 38.1899 57.6569 38.153C57.538 38.1159 57.4275 38.0554 57.3321 37.9752C57.1984 37.747 57.1278 37.4871 57.1278 37.2227C57.1278 36.958 57.1984 36.6983 57.3321 36.4701C57.4269 36.3887 57.5372 36.3275 57.6563 36.2904C57.7755 36.2533 57.901 36.241 58.0251 36.2543H58.8203L63.5289 23.2303H60.8707C60.7471 23.243 60.6222 23.231 60.5031 23.195C60.3842 23.1588 60.2735 23.0994 60.1779 23.0202C60.0181 22.8026 59.9451 22.5332 59.9734 22.2648C59.9462 21.9964 60.019 21.7275 60.1779 21.5093C60.2735 21.4302 60.3842 21.3706 60.5031 21.3346C60.6222 21.2985 60.7471 21.2865 60.8707 21.2991H66.0905C66.4108 21.2836 66.7289 21.3563 67.0106 21.5093C67.2628 21.6785 67.4462 21.9324 67.5276 22.225L72.5541 36.2543H73.4232C73.5463 36.2415 73.6709 36.254 73.7892 36.2911C73.9073 36.3282 74.0167 36.3891 74.1105 36.4701C74.2442 36.6983 74.3148 36.958 74.3148 37.2227C74.3148 37.4871 74.2442 37.747 74.1105 37.9752C74.0159 38.0551 73.9065 38.1152 73.7886 38.1522C73.6706 38.1893 73.5463 38.2025 73.4232 38.191H68.3852C68.2611 38.2029 68.1359 38.1899 68.017 38.153C67.898 38.1159 67.7876 38.0554 67.6922 37.9752C67.5585 37.747 67.4879 37.4871 67.4879 37.2227C67.4879 36.958 67.5585 36.6983 67.6922 36.4701C67.7868 36.3887 67.8972 36.3275 68.0164 36.2904C68.1356 36.2533 68.261 36.241 68.3852 36.2543H70.3049L69.1349 32.8463H62.234L61.0524 36.2543H62.7735ZM62.9041 30.9321H68.4817L65.8349 23.2303H65.5679L62.9041 30.9321ZM76.4959 23.2303H78.802V36.2769H76.4959C76.3718 36.2638 76.2463 36.2761 76.1271 36.3132C76.008 36.3503 75.8976 36.4114 75.8029 36.4927C75.6692 36.721 75.5986 36.9808 75.5986 37.2454C75.5986 37.5099 75.6692 37.7698 75.8029 37.9979C75.8983 38.0781 76.0086 38.1386 76.1277 38.1757C76.2467 38.2127 76.3718 38.2256 76.4959 38.2138H84.3455C84.4686 38.2259 84.5931 38.213 84.711 38.1759C84.8291 38.1388 84.9385 38.0783 85.0326 37.9979C85.17 37.7709 85.2426 37.5107 85.2426 37.2454C85.2426 36.98 85.17 36.7198 85.0326 36.4927C84.9393 36.4112 84.8299 36.35 84.7116 36.3129C84.5934 36.2758 84.4686 36.2634 84.3455 36.2769H80.9375V32.0511H84.2773C85.1448 32.0645 86.0084 31.934 86.8333 31.6649C87.5293 31.4385 88.1711 31.0712 88.7189 30.5857C89.2339 30.1156 89.6324 29.5324 89.8833 28.8817C90.4208 27.4696 90.4208 25.9092 89.8833 24.497C89.6296 23.8479 89.2314 23.2652 88.7189 22.793C88.174 22.2983 87.5316 21.923 86.8333 21.6912C86.0094 21.4172 85.1452 21.2847 84.2773 21.2991H76.4959C76.3723 21.2865 76.2472 21.2985 76.1283 21.3346C76.0094 21.3706 75.8987 21.4302 75.8029 21.5093C75.6442 21.7275 75.5714 21.9964 75.5984 22.2648C75.5703 22.5332 75.6433 22.8026 75.8029 23.0202C75.8987 23.0994 76.0094 23.1588 76.1283 23.195C76.2472 23.231 76.3723 23.243 76.4959 23.2303ZM87.0093 29.1999C86.1445 29.8608 85.0675 30.182 83.982 30.103H80.9375V23.236H83.982C85.0702 23.1564 86.1493 23.4844 87.0093 24.1562C87.3564 24.478 87.6284 24.8723 87.8062 25.3111C87.9839 25.7499 88.0628 26.2223 88.0374 26.695C88.0633 27.1627 87.9843 27.6304 87.8065 28.0636C87.6286 28.4971 87.3562 28.8852 87.0093 29.1999ZM99.6072 23.2306H95.9892C95.8664 23.2427 95.7424 23.2306 95.6245 23.1944C95.5065 23.1584 95.397 23.0992 95.3019 23.0204C95.1421 22.8028 95.0693 22.5334 95.0975 22.265C95.0704 21.9966 95.1432 21.7277 95.3019 21.5095C95.397 21.4307 95.5065 21.3717 95.6245 21.3355C95.7424 21.2995 95.8664 21.2872 95.9892 21.2993H105.412C105.662 21.275 105.911 21.3507 106.105 21.5095C106.264 21.7277 106.337 21.9966 106.31 22.265C106.338 22.5334 106.265 22.8028 106.105 23.0204C105.911 23.1794 105.662 23.2549 105.412 23.2306H101.771V36.2545H105.645C105.769 36.2416 105.894 36.254 106.014 36.2911C106.133 36.3282 106.243 36.3892 106.338 36.4703C106.472 36.6985 106.542 36.9582 106.542 37.2229C106.542 37.4874 106.472 37.7472 106.338 37.9754C106.145 38.1365 105.895 38.214 105.645 38.1912H95.6768C95.5536 38.2034 95.4293 38.1905 95.3112 38.1534C95.1931 38.1162 95.0837 38.0558 94.9896 37.9754C94.8522 37.7483 94.7796 37.4881 94.7796 37.2229C94.7796 36.9576 94.8522 36.6972 94.9896 36.4703C95.0831 36.3887 95.1923 36.3275 95.3106 36.2903C95.4289 36.2532 95.5536 36.2409 95.6768 36.2545H99.6072V23.2306ZM113.284 23.2303H117.084V36.2543H113.722C113.599 36.2407 113.474 36.253 113.356 36.2901C113.237 36.3272 113.128 36.3885 113.035 36.4701C112.897 36.697 112.825 36.9574 112.825 37.2227C112.825 37.4879 112.897 37.7481 113.035 37.9752C113.129 38.0555 113.238 38.116 113.356 38.1531C113.474 38.1902 113.599 38.2032 113.722 38.191H122.577C122.7 38.2025 122.824 38.1893 122.942 38.1522C123.06 38.1152 123.169 38.0551 123.264 37.9752C123.401 37.7481 123.474 37.4879 123.474 37.2227C123.474 36.9574 123.401 36.697 123.264 36.4701C123.17 36.3891 123.061 36.3282 122.943 36.2911C122.824 36.254 122.7 36.2415 122.577 36.2543H119.214V23.2303H123.014V27.6323C123.001 27.7606 123.016 27.8904 123.057 28.0128C123.098 28.1352 123.165 28.2474 123.253 28.3422C123.49 28.5051 123.778 28.5795 124.065 28.5523C124.359 28.5825 124.655 28.508 124.9 28.3422C124.985 28.2462 125.05 28.1336 125.09 28.0114C125.13 27.8893 125.145 27.7602 125.133 27.6323V22.2648C125.16 21.9964 125.087 21.7275 124.928 21.5093C124.832 21.4302 124.722 21.3706 124.603 21.3346C124.484 21.2985 124.359 21.2865 124.235 21.2991H112.029C111.906 21.2865 111.781 21.2985 111.662 21.3346C111.543 21.3706 111.432 21.4302 111.336 21.5093C111.178 21.7275 111.105 21.9964 111.132 22.2648V27.6323C111.12 27.7602 111.134 27.8893 111.174 28.0114C111.214 28.1336 111.279 28.2462 111.365 28.3422C111.61 28.5084 111.905 28.583 112.2 28.5523C112.492 28.5836 112.786 28.5091 113.029 28.3422C113.119 28.2489 113.189 28.1372 113.233 28.0149C113.277 27.8923 113.295 27.7619 113.284 27.6323V23.2303ZM132.681 36.2544C132.804 36.2416 132.929 36.2541 133.047 36.2912C133.165 36.3283 133.274 36.3893 133.368 36.4701C133.502 36.6984 133.573 36.9582 133.573 37.2228C133.573 37.4873 133.502 37.7472 133.368 37.9753C133.274 38.0552 133.164 38.1154 133.046 38.1523C132.928 38.1894 132.804 38.2027 132.681 38.1912H127.927C127.803 38.203 127.678 38.1901 127.559 38.1531C127.44 38.116 127.329 38.0555 127.234 37.9753C127.1 37.7472 127.03 37.4873 127.03 37.2228C127.03 36.9582 127.1 36.6984 127.234 36.4701C127.329 36.3888 127.439 36.3277 127.558 36.2906C127.677 36.2535 127.803 36.2412 127.927 36.2544H128.722L133.431 23.2305H130.772C130.523 23.2548 130.274 23.1793 130.08 23.0203C129.92 22.8027 129.847 22.5334 129.875 22.265C129.848 21.9965 129.921 21.7276 130.08 21.5094C130.274 21.3506 130.523 21.275 130.772 21.2993H135.992C136.312 21.2838 136.631 21.3564 136.912 21.5094C137.165 21.6787 137.348 21.9326 137.429 22.2252L142.456 36.2544H143.325C143.448 36.2416 143.573 36.2541 143.691 36.2912C143.809 36.3283 143.918 36.3893 144.012 36.4701C144.15 36.6972 144.222 36.9575 144.222 37.2228C144.222 37.4881 144.15 37.7483 144.012 37.9753C143.918 38.0552 143.808 38.1154 143.69 38.1523C143.572 38.1894 143.448 38.2027 143.325 38.1912H138.287C138.163 38.203 138.038 38.1901 137.919 38.1531C137.8 38.116 137.689 38.0555 137.594 37.9753C137.46 37.7472 137.39 37.4873 137.39 37.2228C137.39 36.9582 137.46 36.6984 137.594 36.4701C137.689 36.3888 137.799 36.3277 137.918 36.2906C138.037 36.2535 138.163 36.2412 138.287 36.2544H140.207L139.071 32.8464H132.136L130.954 36.2544H132.681ZM132.806 30.9323H138.383L135.748 23.2305H135.481L132.806 30.9323ZM146.398 23.2305H148.704L148.721 36.2544H146.415C146.291 36.2415 146.165 36.254 146.046 36.2911C145.927 36.3282 145.817 36.3891 145.722 36.4701C145.588 36.6984 145.517 36.9582 145.517 37.2228C145.517 37.4873 145.588 37.7472 145.722 37.9753C145.915 38.1364 146.164 38.2139 146.415 38.1912H159.137C159.26 38.2033 159.385 38.1904 159.504 38.1533C159.622 38.1162 159.731 38.0557 159.824 37.9753C159.99 37.7598 160.064 37.4893 160.036 37.22V31.5741C160.048 31.4448 160.034 31.3141 159.993 31.1907C159.952 31.0674 159.884 30.9542 159.796 30.8585C159.554 30.6916 159.26 30.6171 158.967 30.6484C158.673 30.6182 158.378 30.6927 158.131 30.8585C158.046 30.9555 157.981 31.069 157.942 31.1922C157.901 31.3152 157.887 31.4453 157.899 31.5741V36.2544H150.839V23.2305H154.281C154.531 23.2548 154.78 23.1793 154.974 23.0203C155.134 22.8027 155.207 22.5334 155.179 22.265C155.206 21.9965 155.133 21.7276 154.974 21.5094C154.78 21.3506 154.531 21.275 154.281 21.2993H146.398C146.148 21.275 145.899 21.3506 145.705 21.5094C145.546 21.7276 145.473 21.9965 145.5 22.265C145.472 22.5334 145.545 22.8027 145.705 23.0203C145.899 23.1793 146.148 23.2548 146.398 23.2305Z" fill="white"/>
</svg>
