<svg viewBox="0 0 251 50" fill="none" xmlns="http://www.w3.org/2000/svg">
<path d="M43.0223 15.3658L43.023 14.7584L43.0223 14.758V5.13618L42.7149 4.96034L42.7207 4.9501L34.3897 0.198396L34.3626 0.182929L34.0427 0L33.7231 0.182929H33.7222L8.95463 14.3547L8.94495 14.3491L8.62828 14.5414L8.308 14.7247V14.736L0 19.7828V30.1408L24.9643 44.659V44.6674L25.2962 44.852L25.6123 45.0358L25.6193 45.0316L34.0188 49.7025L42.9921 44.522L43.0222 15.5047L43.0223 15.3658ZM1.28963 21.2596L25.0896 34.9326V43.2406L1.28963 29.399V21.2596ZM33.3979 30.7511V38.922L26.3792 43.0825V34.9259L33.3979 30.7511ZM17.906 20.4124L25.0195 16.2971L24.9668 24.4621L17.906 28.5465V20.4124ZM34.0207 11.1089L41.0817 15.1362L34.0377 19.2031L26.9132 15.2121L34.0207 11.1089ZM34.0427 1.48547L41.0841 5.51337L17.2655 19.2929L10.2324 15.1094L34.0427 1.48547ZM16.6163 20.4071V28.5408L9.59795 24.4394L9.59767 16.2325L16.6163 20.4071ZM25.6939 25.5315L32.7685 29.6254L25.729 33.8126L18.5292 29.6764L25.6939 25.5315ZM26.2569 24.3668L26.3084 16.3513L33.3975 20.3225L33.3892 28.494L26.2569 24.3668ZM35.2964 10.3519L41.7327 6.62838V14.0225L35.2964 10.3519ZM8.30828 23.8045L1.91229 20.13L8.30804 16.2448L8.30828 23.8045ZM33.377 40.4331L33.3694 47.8658L26.9035 44.2704L33.377 40.4331ZM34.6591 47.8437L34.6675 39.6682L34.6876 39.6562V29.2453L34.6781 29.2399L34.6872 20.3176L41.7313 16.2505L41.7037 43.7764L34.6591 47.8437Z" fill="white"/>
<path d="M69.185 25.1922C71.7886 25.9109 73.5297 27.62 73.5297 30.9103C73.5297 34.8076 71.1657 37.3793 66.2941 37.3793H56.7905V14.2994H64.2657C69.2492 14.2994 71.8686 16.6953 71.8686 20.6246C71.8686 22.6531 70.9899 24.3137 69.185 25.1922ZM64.3134 18.2756H61.4065V23.7062H64.5211C66.5656 23.7062 67.4601 22.4923 67.4601 20.927C67.4601 19.3937 66.4537 18.2756 64.3134 18.2756ZM65.3995 33.2743C67.987 33.2743 68.8815 31.8846 68.8815 30.3832C68.8815 28.8498 68.003 27.3963 65.3036 27.3963H61.4063V33.2743H65.3995ZM75.614 37.3793V12.8454H80.262V37.3793H75.614ZM91.0994 37.6987C85.8763 37.6987 82.1069 34.5201 82.1069 29.1534C82.1069 23.8186 85.8445 20.64 91.0994 20.64C96.3863 20.64 100.108 23.8186 100.108 29.1534C100.108 34.5203 96.3702 37.6987 91.0994 37.6987ZM91.0515 34.041C93.7189 34.041 95.5397 32.0924 95.5397 29.1534C95.5397 26.2144 93.7188 24.2657 91.0515 24.2657C88.4798 24.2657 86.6749 26.2144 86.6749 29.1534C86.6749 32.0924 88.4798 34.041 91.0515 34.041ZM109.38 37.6828C104.221 37.6828 100.579 34.2487 100.579 29.1535C100.579 24.0422 104.221 20.6401 109.38 20.6401C113.533 20.6401 116.648 22.7964 117.446 26.6777L113.197 27.1409C112.686 25.1762 111.265 24.2658 109.332 24.2658C106.856 24.2658 105.179 26.2145 105.179 29.1535C105.179 32.0764 106.856 34.0411 109.332 34.0411C111.265 34.0411 112.686 33.1147 113.197 31.1661L117.446 31.6293C116.647 35.5105 113.453 37.6828 109.38 37.6828ZM130.04 37.3793L124.754 30.479H123.795V37.3793H119.147V12.8454H123.795V27.2846H124.658L129.817 20.9594H135.024L128.555 28.5783L135.631 37.3793H130.04ZM149.407 25.1922C152.011 25.9109 153.752 27.62 153.752 30.9103C153.752 34.8076 151.388 37.3793 146.516 37.3793H137.013V14.2994H144.488C149.471 14.2994 152.091 16.6953 152.091 20.6246C152.091 22.6531 151.212 24.3137 149.407 25.1922ZM144.536 18.2756H141.629V23.7062H144.743C146.788 23.7062 147.682 22.4923 147.682 20.927C147.682 19.3937 146.676 18.2756 144.536 18.2756ZM145.622 33.2743C148.209 33.2743 149.104 31.8846 149.104 30.3832C149.104 28.8498 148.225 27.3963 145.526 27.3963H141.629V33.2743H145.622ZM166.714 20.9596H171.314V37.3793H166.953L166.841 35.3987C165.691 36.8522 163.871 37.6989 161.618 37.6989C157.673 37.6989 155.501 35.6383 155.501 32.0126V20.9596H160.117V31.0222C160.117 33.1944 161.475 33.9931 163.072 33.9931C164.973 33.9931 166.698 33.0347 166.714 30.016L166.714 20.9596ZM176.848 18.4996C175.395 18.4996 174.181 17.3177 174.181 15.8482C174.181 14.3947 175.395 13.2128 176.848 13.2128C178.27 13.2128 179.484 14.3947 179.484 15.8482C179.484 17.3177 178.27 18.4996 176.848 18.4996ZM174.5 37.3793V20.9596H179.132V37.3793H174.5ZM182.319 37.3793V12.8454H186.967V37.3793H182.319ZM201.797 12.8454H206.397V37.3793H202.037L201.925 35.2389C200.983 36.8522 199.002 37.7626 196.766 37.7626C192.437 37.7626 188.859 34.5682 188.859 29.2013C188.859 23.8344 192.453 20.64 196.766 20.64C198.922 20.64 200.823 21.4546 201.797 22.9401L201.797 12.8454ZM197.82 33.9452C200.264 33.9452 202.165 32.0764 202.165 29.2013C202.165 26.3263 200.248 24.4414 197.82 24.4414C195.376 24.4414 193.46 26.2463 193.46 29.2013C193.46 32.1403 195.376 33.9452 197.82 33.9452ZM225.029 28.9298L224.981 30.0319H212.81C213.001 32.7632 214.822 34.073 217.011 34.073C218.656 34.073 219.933 33.3063 220.556 31.8528L224.773 32.4757C223.687 35.7981 220.732 37.6988 217.042 37.6988C211.74 37.6988 208.274 34.5682 208.274 29.1696C208.274 23.771 211.835 20.6082 216.899 20.6082C221.547 20.6082 225.013 23.1797 225.029 28.9298ZM216.931 23.8665C214.839 23.8665 213.385 24.8408 212.938 27.0291H220.477C220.238 24.9367 218.816 23.8665 216.931 23.8665ZM231.363 23.5629C232.193 22.1094 234.349 20.7677 236.729 20.7677V24.8727C233.247 24.8727 231.586 25.895 231.586 29.377V37.3793H226.954V20.9596H231.363L231.363 23.5629ZM243.637 37.6987C239.948 37.6987 237.089 36.2452 236.498 33.1305L240.347 32.0444C240.842 33.8013 242.088 34.4881 243.637 34.4881C244.771 34.4881 246.001 34.1367 245.969 32.8429C245.953 31.1338 243.366 30.9901 240.762 30.0637C238.798 29.3769 236.913 28.3226 236.913 25.5594C236.913 22.1893 239.708 20.6399 243.35 20.6399C246.544 20.6399 249.212 21.8538 249.851 24.9845L246.289 25.7831C245.794 24.2498 244.708 23.7068 243.366 23.7068C242.152 23.7068 241.114 24.138 241.114 25.1603C241.114 26.454 243.014 26.7096 245.075 27.2687C247.614 27.9555 250.394 29.0577 250.394 32.5716C250.394 36.3412 247.183 37.6987 243.637 37.6987Z" fill="white"/>
</svg>
