<svg width="80" height="31" viewBox="0 0 80 31" fill="none" xmlns="http://www.w3.org/2000/svg">
<path d="M12.6255 7.77241C12.6898 7.77241 12.7225 7.8051 12.7225 7.86946V16.5214C12.7225 16.5857 12.6898 16.6184 12.6255 16.6184C12.5887 16.6184 12.5611 16.6041 12.5427 16.5765L6.52519 8.16058V16.5214C6.52519 16.5857 6.49557 16.6184 6.4353 16.6184C6.37504 16.6184 6.34541 16.5857 6.34541 16.5214V7.86946C6.34541 7.8051 6.3781 7.77241 6.44245 7.77241C6.47003 7.77241 6.49353 7.78672 6.51191 7.8143L12.5294 16.2302V7.86946C12.5294 7.8051 12.5621 7.77241 12.6265 7.77241H12.6255Z" fill="white"/>
<path d="M12.6254 17.2313C12.3905 17.2313 12.1729 17.1189 12.0412 16.9289L7.13808 10.0718V16.5214C7.13808 16.9259 6.83572 17.2313 6.4353 17.2313C6.03488 17.2313 5.73253 16.9259 5.73253 16.5214V7.86946C5.73253 7.46495 6.03795 7.15953 6.44245 7.15953C6.67228 7.15953 6.88067 7.26985 7.01346 7.46291L11.9155 14.3191V7.86946C11.9155 7.46495 12.2209 7.15953 12.6254 7.15953C13.03 7.15953 13.3354 7.46495 13.3354 7.86946V16.5214C13.3354 16.9259 13.03 17.2313 12.6254 17.2313Z" fill="white"/>
<path d="M19.9055 7.77241C19.9515 7.77241 19.9842 7.7908 20.0026 7.82757L23.7044 16.4938C23.7136 16.503 23.7177 16.5122 23.7177 16.5214C23.7177 16.5857 23.685 16.6184 23.6206 16.6184C23.5839 16.6184 23.5563 16.6 23.5379 16.5632L19.9055 8.10542L16.2864 16.5632C16.268 16.6 16.2405 16.6184 16.2037 16.6184C16.1393 16.6184 16.1066 16.5857 16.1066 16.5214C16.1066 16.5122 16.1107 16.503 16.1209 16.4938L19.8228 7.82757C19.8412 7.7908 19.8687 7.77241 19.9065 7.77241H19.9055Z" fill="white"/>
<path d="M23.6206 17.2313C23.353 17.2313 23.1109 17.0801 22.9894 16.836C22.9842 16.8258 22.9791 16.8145 22.975 16.8043L19.9065 9.6601L16.8503 16.8033C16.8452 16.8145 16.8411 16.8247 16.835 16.836C16.7134 17.0791 16.4713 17.2313 16.2037 17.2313C15.7992 17.2313 15.4938 16.9259 15.4938 16.5214C15.4938 16.407 15.5234 16.2977 15.5796 16.2006L19.2589 7.58753C19.264 7.57629 19.2691 7.56505 19.2742 7.55382C19.3958 7.31071 19.6379 7.15953 19.9055 7.15953C20.1731 7.15953 20.4234 7.3056 20.548 7.54973C20.5542 7.56199 20.5603 7.57527 20.5654 7.58753L24.2458 16.2027C24.3009 16.2997 24.3305 16.409 24.3305 16.5214C24.3305 16.9259 24.0251 17.2313 23.6206 17.2313Z" fill="white"/>
<path d="M31.0386 7.77241C32.3052 7.77241 33.3584 8.19326 34.2001 9.03394C34.2184 9.05232 34.2276 9.07582 34.2276 9.1034C34.2276 9.16775 34.1949 9.20044 34.1306 9.20044C34.103 9.20044 34.0795 9.19125 34.0611 9.17286C33.2572 8.35976 32.249 7.95322 31.0386 7.95322C29.8281 7.95322 28.8179 8.35772 28.0089 9.16673C27.1999 9.97574 26.7954 10.985 26.7954 12.1964C26.7954 13.4079 27.1999 14.4171 28.0089 15.2261C28.8179 16.0351 29.8271 16.4396 31.0386 16.4396C32.2501 16.4396 33.2572 16.0331 34.0611 15.22C34.0795 15.2016 34.103 15.1924 34.1306 15.1924C34.1949 15.1924 34.2276 15.2251 34.2276 15.2895C34.2276 15.317 34.2184 15.3405 34.2001 15.3589C33.3594 16.1996 32.3052 16.6204 31.0386 16.6204C29.772 16.6204 28.7301 16.1976 27.8843 15.3518C27.0385 14.506 26.6156 13.4549 26.6156 12.1975C26.6156 10.94 27.0385 9.88891 27.8843 9.04313C28.7301 8.19735 29.7811 7.77446 31.0386 7.77446V7.77241Z" fill="white"/>
<path d="M31.0386 17.2313C29.6187 17.2313 28.4124 16.744 27.4512 15.7828C26.4899 14.8226 26.0027 13.6153 26.0027 12.1954C26.0027 10.7756 26.4899 9.56817 27.4512 8.60798C28.4124 7.64677 29.6187 7.15953 31.0386 7.15953C32.4584 7.15953 33.6771 7.64473 34.6332 8.60083C34.767 8.73465 34.8405 8.9134 34.8405 9.1034C34.8405 9.5079 34.5351 9.81332 34.1306 9.81332C33.9386 9.81332 33.7598 9.73876 33.626 9.60494C32.9344 8.90523 32.0887 8.5661 31.0386 8.5661C29.9885 8.5661 29.1386 8.90421 28.442 9.59984C27.7464 10.2955 27.4083 11.1443 27.4083 12.1964C27.4083 13.2486 27.7464 14.0974 28.442 14.792C29.1376 15.4876 29.9865 15.8257 31.0386 15.8257C32.0907 15.8257 32.9344 15.4866 33.626 14.7879C33.7618 14.6521 33.9406 14.5785 34.1306 14.5785C34.5351 14.5785 34.8405 14.8839 34.8405 15.2884C34.8405 15.4795 34.767 15.6582 34.6321 15.792C33.6771 16.7481 32.4676 17.2323 31.0386 17.2323V17.2313Z" fill="white"/>
<path d="M37.957 7.86946C37.957 7.8051 37.9897 7.77241 38.0541 7.77241C38.1092 7.77241 38.1378 7.8051 38.1378 7.86946V16.5214C38.1378 16.5857 38.1082 16.6184 38.048 16.6184C37.9877 16.6184 37.9581 16.5857 37.9581 16.5214V7.86946H37.957Z" fill="white"/>
<path d="M38.0469 17.2313C37.6465 17.2313 37.3442 16.9259 37.3442 16.5214V7.86946C37.3442 7.46495 37.6496 7.15953 38.0541 7.15953C38.4586 7.15953 38.7507 7.46495 38.7507 7.86946V16.5214C38.7507 16.9259 38.4484 17.2313 38.048 17.2313H38.0469Z" fill="white"/>
<path d="M45.8469 7.77241C47.1033 7.77241 48.1739 8.2045 49.0564 9.06867C49.939 9.93284 50.3802 10.9747 50.3802 12.1954C50.3802 13.4161 49.939 14.458 49.0564 15.3221C48.1739 16.1863 47.1033 16.6184 45.8469 16.6184C45.0246 16.6184 44.282 16.4192 43.6222 16.0219C42.9613 15.6245 42.4485 15.0882 42.0828 14.4141C41.7171 13.7399 41.5353 13.0003 41.5353 12.1954C41.5353 11.3905 41.7181 10.652 42.0828 9.97676C42.4475 9.30259 42.9602 8.76631 43.6222 8.36794C44.283 7.97058 45.0246 7.77139 45.8469 7.77139V7.77241ZM45.8469 7.95322C44.6549 7.95322 43.6681 8.36181 42.8867 9.18001C42.1053 9.99821 41.7151 11.0033 41.7151 12.1954C41.7151 13.3875 42.1053 14.3926 42.8867 15.2108C43.6681 16.029 44.6549 16.4376 45.8469 16.4376C47.039 16.4376 48.086 16.0239 48.9318 15.1965C49.7776 14.3691 50.2005 13.3691 50.2005 12.1944C50.2005 11.0197 49.7776 10.0197 48.9318 9.19227C48.086 8.36487 47.0574 7.95117 45.8469 7.95117V7.95322Z" fill="white"/>
<path d="M45.8469 17.2313C44.9153 17.2313 44.0593 17.0015 43.3055 16.5469C42.5527 16.0954 41.9602 15.4754 41.5435 14.7052C41.1308 13.9442 40.9224 13.0994 40.9224 12.1954C40.9224 11.2914 41.1318 10.4477 41.5435 9.68564C41.9602 8.91647 42.5527 8.29643 43.3055 7.84392C44.0604 7.39038 44.9153 7.16055 45.8469 7.16055C47.2637 7.16055 48.4874 7.65597 49.4854 8.63148C50.4865 9.61209 50.9942 10.8113 50.9942 12.1964C50.9942 13.5816 50.4865 14.7808 49.4865 15.7614C48.4895 16.7379 47.2647 17.2323 45.848 17.2323L45.8469 17.2313ZM45.8469 8.5661C44.8193 8.5661 43.996 8.90523 43.33 9.60392C42.6558 10.3098 42.3279 11.1576 42.3279 12.1964C42.3279 13.2353 42.6558 14.0831 43.33 14.7889C43.996 15.4866 44.8193 15.8257 45.8469 15.8257C46.8745 15.8257 47.7704 15.4774 48.5038 14.7593C49.2331 14.0453 49.5876 13.2067 49.5876 12.1954C49.5876 11.1841 49.2331 10.3455 48.5028 9.6315C47.7693 8.91443 46.9001 8.56508 45.8459 8.56508L45.8469 8.5661Z" fill="white"/>
<path d="M60.0444 7.77241C60.1088 7.77241 60.1415 7.8051 60.1415 7.86946V16.5214C60.1415 16.5857 60.1088 16.6184 60.0444 16.6184C60.0077 16.6184 59.9801 16.6041 59.9617 16.5765L53.9442 8.16058V16.5214C53.9442 16.5857 53.9145 16.6184 53.8543 16.6184C53.794 16.6184 53.7644 16.5857 53.7644 16.5214V7.86946C53.7644 7.8051 53.7971 7.77241 53.8614 7.77241C53.889 7.77241 53.9125 7.78672 53.9309 7.8143L59.9484 16.2302V7.86946C59.9484 7.8051 59.9811 7.77241 60.0455 7.77241H60.0444Z" fill="white"/>
<path d="M60.0444 17.2313C59.8095 17.2313 59.5919 17.1189 59.4601 16.9289L54.5571 10.0718V16.5214C54.5571 16.9259 54.2547 17.2313 53.8543 17.2313C53.4539 17.2313 53.1515 16.9259 53.1515 16.5214V7.86946C53.1515 7.46495 53.4569 7.15953 53.8614 7.15953C54.0882 7.15953 54.3007 7.27291 54.4324 7.46291L59.3345 14.3191V7.86946C59.3345 7.46495 59.6399 7.15953 60.0444 7.15953C60.4489 7.15953 60.7544 7.46495 60.7544 7.86946V16.5214C60.7544 16.9259 60.4489 17.2313 60.0444 17.2313Z" fill="white"/>
<path d="M20.1405 21.4612C21.4071 21.4612 22.4602 21.8821 23.3019 22.7227C23.3203 22.7411 23.3295 22.7646 23.3295 22.7922C23.3295 22.8566 23.2968 22.8892 23.2325 22.8892C23.2049 22.8892 23.1814 22.8801 23.163 22.8617C22.3591 22.0486 21.3509 21.642 20.1405 21.642C18.93 21.642 17.9198 22.0465 17.1108 22.8555C16.3017 23.6645 15.8983 24.6738 15.8983 25.8852C15.8983 27.0967 16.3028 28.1059 17.1108 28.9149C17.9198 29.7239 18.929 30.1285 20.1405 30.1285C21.3519 30.1285 22.3591 29.7219 23.163 28.9088C23.1814 28.8904 23.2049 28.8812 23.2325 28.8812C23.2968 28.8812 23.3295 28.9139 23.3295 28.9783C23.3295 29.0058 23.3203 29.0293 23.3019 29.0477C22.4612 29.8884 21.4071 30.3093 20.1405 30.3093C18.8738 30.3093 17.8319 29.8864 16.9861 29.0406C16.1404 28.1948 15.7175 27.1437 15.7175 25.8863C15.7175 24.6288 16.1404 23.5777 16.9861 22.7319C17.8319 21.8862 18.883 21.4633 20.1405 21.4633V21.4612Z" fill="white"/>
<path d="M20.1405 30.9201C18.7206 30.9201 17.5132 30.4328 16.553 29.4716C15.5918 28.5104 15.1046 27.3041 15.1046 25.8842C15.1046 24.4644 15.5918 23.258 16.553 22.2968C17.5142 21.3356 18.7206 20.8483 20.1405 20.8483C21.5603 20.8483 22.7789 21.3335 23.735 22.2896C23.8688 22.4245 23.9424 22.6022 23.9424 22.7922C23.9424 23.1967 23.637 23.5021 23.2325 23.5021C23.0394 23.5021 22.8586 23.4265 22.7248 23.2897C22.0363 22.593 21.1895 22.2539 20.1405 22.2539C19.0914 22.2539 18.2395 22.592 17.5439 23.2876C16.8482 23.9832 16.5101 24.8321 16.5101 25.8832C16.5101 26.9343 16.8482 27.7842 17.5439 28.4788C18.2395 29.1744 19.0883 29.5125 20.1405 29.5125C21.1926 29.5125 22.0363 29.1734 22.7268 28.4747C22.8637 28.3378 23.0425 28.2653 23.2325 28.2653C23.637 28.2653 23.9424 28.5707 23.9424 28.9752C23.9424 29.1662 23.8688 29.344 23.735 29.4778C22.7789 30.4339 21.5695 30.9191 20.1405 30.9191V30.9201ZM23.5941 22.4265C23.5941 22.4265 23.5971 22.4296 23.5982 22.4306C23.5971 22.4296 23.5951 22.4275 23.5941 22.4265Z" fill="white"/>
<path d="M27.157 21.4612H30.249C31.0621 21.4612 31.7465 21.6134 32.3011 21.9188C33.0591 22.3346 33.438 22.9842 33.438 23.8668C33.438 24.7494 33.0591 25.399 32.3011 25.8148C31.9314 26.018 31.4788 26.157 30.9426 26.2305L34.0346 30.155C34.0438 30.1734 34.0489 30.1918 34.0489 30.2102C34.0489 30.2745 34.0213 30.3072 33.9651 30.3072C33.9283 30.3072 33.9008 30.2929 33.8824 30.2653L30.7352 26.2581C30.5687 26.2765 30.4073 26.2857 30.25 26.2857H27.2407V30.2091C27.2407 30.2735 27.2111 30.3062 27.1508 30.3062C27.0906 30.3062 27.061 30.2735 27.061 30.2091V26.1886C27.061 26.1335 27.0936 26.1049 27.158 26.1049H30.25C30.3144 26.1049 30.4298 26.0957 30.5963 26.0773L27.0742 21.6124C27.065 21.594 27.0599 21.5756 27.0599 21.5572C27.0599 21.4929 27.0926 21.4602 27.157 21.4602V21.4612ZM27.3368 21.641L30.8169 26.064C31.3716 25.9996 31.8333 25.8607 32.2031 25.6483C32.8967 25.2693 33.2429 24.6758 33.2429 23.8668C33.2429 23.0578 32.9007 22.4643 32.2174 22.0853C31.6811 21.7891 31.0253 21.642 30.249 21.642H27.3368V21.641Z" fill="white"/>
<path d="M33.9641 30.9201C33.7363 30.9201 33.5238 30.8139 33.391 30.6341L30.4543 26.8945C30.3848 26.8975 30.3164 26.8985 30.249 26.8985H27.8526V30.2091C27.8526 30.6137 27.5502 30.9191 27.1498 30.9191C26.7494 30.9191 26.4471 30.6137 26.4471 30.2091V26.1886C26.4471 25.7913 26.7525 25.492 27.157 25.492H29.3531L26.5931 21.9924C26.5686 21.9607 26.5472 21.927 26.5288 21.8913C26.4746 21.7861 26.4481 21.6737 26.4481 21.5572C26.4481 21.1527 26.7535 20.8473 27.158 20.8473H30.25C31.1642 20.8473 31.9538 21.0271 32.5974 21.3805C33.5484 21.9025 34.0519 22.7616 34.0519 23.8658C34.0519 24.97 33.5484 25.828 32.5974 26.351C32.4206 26.4481 32.2276 26.5329 32.0202 26.6054L34.5177 29.774C34.5433 29.8067 34.5657 29.8414 34.5841 29.8782C34.6362 29.9824 34.6638 30.0937 34.6638 30.2091C34.6638 30.6137 34.3645 30.9191 33.9672 30.9191L33.9641 30.9201ZM28.5983 22.2549L31.0774 25.4051C31.4002 25.3418 31.675 25.2458 31.8976 25.1181C31.9017 25.1161 31.9048 25.114 31.9089 25.112C32.4074 24.8392 32.63 24.4562 32.63 23.8678C32.63 23.2795 32.4115 22.8944 31.9201 22.6226C31.4788 22.3795 30.917 22.2559 30.249 22.2559H28.5993L28.5983 22.2549Z" fill="white"/>
<path d="M44.4741 21.4612C44.5384 21.4612 44.5711 21.4939 44.5711 21.5583C44.5711 21.5766 44.566 21.595 44.5578 21.6134L40.856 26.3275V30.2234C40.856 30.2786 40.8264 30.3062 40.7661 30.3062C40.7058 30.3062 40.6762 30.2786 40.6762 30.2234V26.3275L36.9887 21.6134C36.9703 21.595 36.9611 21.5766 36.9611 21.5583C36.9611 21.4939 36.9938 21.4612 37.0581 21.4612C37.0857 21.4612 37.1092 21.4755 37.1276 21.5031L40.7743 26.1345L44.4067 21.5031C44.425 21.4755 44.4485 21.4612 44.4761 21.4612H44.4741Z" fill="white"/>
<path d="M40.7651 30.9201C40.3647 30.9201 40.0623 30.6208 40.0623 30.2245V26.54L36.5188 22.0118C36.4075 21.8841 36.3462 21.7258 36.3462 21.5593C36.3462 21.1548 36.6516 20.8494 37.0561 20.8494C37.2757 20.8494 37.4831 20.9556 37.6159 21.1354L40.7712 25.1426L43.9143 21.1364C44.0471 20.9566 44.2534 20.8494 44.4741 20.8494C44.8786 20.8494 45.184 21.1548 45.184 21.5593C45.184 21.6716 45.1585 21.7809 45.1084 21.8841C45.089 21.9229 45.0665 21.9597 45.04 21.9934L41.4689 26.541V30.2255C41.4689 30.6218 41.1665 30.9211 40.7661 30.9211L40.7651 30.9201Z" fill="white"/>
<path d="M48.0656 21.4612H51.1576C51.9707 21.4612 52.6551 21.6134 53.2097 21.9188C53.9677 22.3346 54.3466 22.9842 54.3466 23.8668C54.3466 24.7494 53.9677 25.399 53.2097 25.8148C52.6551 26.1294 51.9707 26.2867 51.1576 26.2867H48.1493V30.2102C48.1493 30.2745 48.1197 30.3072 48.0594 30.3072C47.9992 30.3072 47.9696 30.2745 47.9696 30.2102V26.1896C47.9696 26.1345 48.0022 26.1059 48.0666 26.1059H51.1586C51.9349 26.1059 52.5917 25.9537 53.127 25.6483C53.8114 25.2693 54.1526 24.6758 54.1526 23.8668C54.1526 23.0578 53.8104 22.4643 53.127 22.0853C52.5907 21.7891 51.9349 21.642 51.1586 21.642H48.0666C48.0022 21.642 47.9696 21.6124 47.9696 21.5521C47.9696 21.4919 48.0022 21.4622 48.0666 21.4622L48.0656 21.4612Z" fill="white"/>
<path d="M48.0584 30.9201C47.658 30.9201 47.3557 30.6147 47.3557 30.2102V26.1896C47.3557 25.7923 47.6611 25.493 48.0656 25.493H51.1576C51.8226 25.493 52.3834 25.3663 52.8236 25.1161C53.3211 24.8403 53.5397 24.4562 53.5397 23.8668C53.5397 23.2774 53.3211 22.8933 52.8297 22.6216C52.3885 22.3785 51.8256 22.2549 51.1576 22.2549H48.0656C47.6611 22.2549 47.3557 21.9526 47.3557 21.5521C47.3557 21.1517 47.6611 20.8494 48.0656 20.8494H51.1576C52.0718 20.8494 52.8614 21.0291 53.5049 21.3826C54.4559 21.9045 54.9595 22.7646 54.9595 23.8678C54.9595 24.971 54.4559 25.8301 53.5049 26.3531C52.8665 26.7147 52.0749 26.9006 51.1576 26.9006H48.7622V30.2112C48.7622 30.6157 48.4599 30.9211 48.0594 30.9211L48.0584 30.9201Z" fill="white"/>
<path d="M57.3406 21.4612H64.7585C64.8045 21.4612 64.8352 21.4776 64.8484 21.5092C64.8627 21.5419 64.8627 21.5715 64.8484 21.5991C64.8352 21.6267 64.8045 21.641 64.7585 21.641H61.1395V30.2102C61.1395 30.2561 61.1262 30.2868 61.0976 30.3001C61.07 30.3133 61.0394 30.3133 61.0077 30.3001C60.975 30.2858 60.9597 30.2561 60.9597 30.2102V21.641H57.3406C57.3038 21.641 57.2752 21.6267 57.2568 21.5991C57.2384 21.5715 57.2384 21.5409 57.2568 21.5092C57.2752 21.4776 57.3028 21.4612 57.3406 21.4612Z" fill="white"/>
<path d="M61.0537 30.9232C60.9566 30.9232 60.8596 30.9038 60.7687 30.8649C60.5072 30.7516 60.3468 30.5023 60.3468 30.2102V22.2549H57.3406C57.1005 22.2549 56.8789 22.1374 56.7471 21.9403C56.601 21.7207 56.5918 21.4398 56.7246 21.2069C56.8523 20.9832 57.0822 20.8494 57.3406 20.8494H64.7585C65.0517 20.8494 65.302 21.0108 65.4123 21.2712C65.4961 21.4663 65.4909 21.688 65.396 21.8759C65.2785 22.1119 65.0405 22.2549 64.7585 22.2549H61.7523V30.2102C61.7523 30.4901 61.6114 30.7281 61.3744 30.8476C61.2722 30.8976 61.163 30.9232 61.0526 30.9232H61.0537Z" fill="white"/>
<path d="M71.5943 21.4612C72.8507 21.4612 73.9212 21.8933 74.8037 22.7575C75.6863 23.6216 76.1276 24.6635 76.1276 25.8842C76.1276 27.1049 75.6863 28.1468 74.8037 29.011C73.9212 29.8751 72.8507 30.3072 71.5943 30.3072C70.771 30.3072 70.0294 30.108 69.3685 29.7107C68.7076 29.3133 68.1948 28.777 67.8291 28.1029C67.4634 27.4277 67.2816 26.6891 67.2816 25.8842C67.2816 25.0793 67.4644 24.3408 67.8291 23.6656C68.1948 22.9914 68.7076 22.4551 69.3685 22.0578C70.0294 21.6604 70.771 21.4612 71.5943 21.4612ZM71.5943 21.641C70.4012 21.641 69.4155 22.0506 68.634 22.8678C67.8526 23.686 67.4624 24.6911 67.4624 25.8832C67.4624 27.0753 67.8526 28.0804 68.634 28.8986C69.4155 29.7168 70.4022 30.1254 71.5943 30.1254C72.7863 30.1254 73.8333 29.7117 74.6791 28.8843C75.5249 28.0569 75.9478 27.0569 75.9478 25.8822C75.9478 24.7075 75.5249 23.7074 74.6791 22.8801C73.8333 22.0527 72.8047 21.639 71.5943 21.639V21.641Z" fill="white"/>
<path d="M71.5943 30.9201C70.6627 30.9201 69.8077 30.6903 69.0528 30.2367C68.3 29.7842 67.7075 29.1642 67.2908 28.395C66.8781 27.633 66.6697 26.7882 66.6697 25.8842C66.6697 24.9802 66.8791 24.1365 67.2908 23.3744C67.7075 22.6053 68.3 21.9852 69.0528 21.5327C69.8077 21.0792 70.6627 20.8494 71.5943 20.8494C73.0111 20.8494 74.2358 21.3448 75.2328 22.3203C76.2338 23.3009 76.7405 24.5001 76.7405 25.8852C76.7405 27.2704 76.2328 28.4696 75.2328 29.4502C74.2358 30.4267 73.0111 30.9211 71.5943 30.9211V30.9201ZM71.5943 22.2549C70.5677 22.2549 69.7444 22.594 69.0774 23.2927C68.4032 23.9986 68.0753 24.8464 68.0753 25.8852C68.0753 26.9241 68.4032 27.7719 69.0774 28.4777C69.7444 29.1754 70.5677 29.5156 71.5943 29.5156C72.6209 29.5156 73.5167 29.1662 74.2511 28.4491C74.9805 27.7351 75.3349 26.8975 75.3349 25.8852C75.3349 24.873 74.9805 24.0353 74.2501 23.3213C73.5167 22.6043 72.6474 22.2549 71.5943 22.2549Z" fill="white"/>
<path d="M80 26.4971H71.3001V25.2713H78.7742V1.22577H1.22577V16.0055H6.4353V17.2313H0V0H80V26.4971Z" fill="white"/>
</svg>
