<svg viewBox="0 0 180 62" fill="none" xmlns="http://www.w3.org/2000/svg">
<path d="M81.9294 23.3631H83.4968V12.5252H87.9749V11.1981H77.5261V12.5252H81.9294V23.3631Z" fill="white"/>
<path d="M124.024 11.1981H121.859L115.665 16.2853V11.1981H114.097V23.3631H115.665V17.3912L122.083 23.2894L122.158 23.3631H124.397L117.232 16.8014L124.024 11.1981Z" fill="white"/>
<path d="M132.458 17.7598H138.802V16.4328H132.458V12.5252H139.175V11.1981H130.89V23.3631H139.473V22.036H132.458V17.7598Z" fill="white"/>
<path d="M157.759 23.3631V11.1981H156.266V21.2987L148.504 11.1981H146.713V23.3631H148.205V13.2625L155.967 23.3631H157.759Z" fill="white"/>
<path d="M84.243 43.1957L79.5411 38.0347H77.5261V50.1996H79.0187V39.9517L83.8698 45.26H84.6163L89.3929 40.0255V50.1996H90.8856V38.0347H88.945L84.243 43.1957Z" fill="white"/>
<path d="M100.439 44.5964H106.783V43.2695H100.439V39.3619H107.231V38.0347H98.8717V50.1996H107.529V48.8727H100.439V44.5964Z" fill="white"/>
<path d="M113.127 39.3619H117.605V50.1996H119.098V39.3619H123.576V38.0347H113.127V39.3619Z" fill="white"/>
<path d="M136.189 44.3015C136.562 44.1542 137.01 44.0066 137.309 43.7855C137.682 43.5644 137.906 43.1957 138.204 42.827C138.428 42.4583 138.578 41.9423 138.578 41.3524C138.578 40.8364 138.503 40.3204 138.279 39.9517C138.055 39.583 137.831 39.2881 137.533 38.9932C137.234 38.7721 136.861 38.551 136.488 38.4034C136.115 38.2561 135.741 38.1823 135.443 38.1085C135.144 38.0347 134.771 38.0347 134.473 38.0347C134.174 38.0347 133.95 38.0347 133.801 38.0347H130.218V50.1996H131.786V44.5964H133.801L137.458 50.1261L137.533 50.1996H139.324L135.518 44.4491C135.592 44.4491 135.891 44.3753 136.189 44.3015ZM136.861 41.9423C136.786 42.1634 136.637 42.3847 136.488 42.5321C136.264 42.7532 135.965 42.9008 135.592 43.0481C135.219 43.1957 134.697 43.2695 134.1 43.2695H131.711V39.3619H134.1C134.697 39.3619 135.219 39.4357 135.592 39.583C135.965 39.7306 136.264 39.8779 136.488 40.099C136.712 40.3204 136.861 40.4677 136.861 40.6888C136.936 40.9102 137.01 41.1313 137.01 41.2789C137.01 41.5 136.936 41.7211 136.861 41.9423Z" fill="white"/>
<path d="M148.131 38.0347H146.564V50.1996H148.131V38.0347Z" fill="white"/>
<path d="M179.403 45.1862C179.03 44.744 178.582 44.3753 178.134 44.1539C177.612 43.9328 177.089 43.7117 176.492 43.5641C175.895 43.4168 175.373 43.2695 174.925 43.1219C174.477 42.9746 174.029 42.6796 173.731 42.3847C173.432 42.0898 173.283 41.6473 173.283 41.1313C173.283 40.7626 173.358 40.4677 173.507 40.2466C173.656 40.0252 173.88 39.8041 174.104 39.583C174.328 39.4354 174.626 39.2881 175 39.2143C175.373 39.1405 175.671 39.067 176.044 39.067C176.567 39.067 177.015 39.1405 177.463 39.3619C177.836 39.5092 178.209 39.8041 178.507 40.1728L178.582 40.3201L179.926 39.4354L179.776 39.2881C179.328 38.6983 178.731 38.3296 178.134 38.1085C177.537 37.8874 176.791 37.7398 176.119 37.7398C175.522 37.7398 175 37.8136 174.477 37.9609C173.955 38.1085 173.507 38.3296 173.059 38.6245C172.686 38.9194 172.313 39.2881 172.089 39.7303C171.865 40.1728 171.716 40.6888 171.716 41.2049C171.716 41.7947 171.79 42.3109 172.014 42.6794C172.238 43.0481 172.462 43.4168 172.835 43.7117C173.134 44.0066 173.507 44.1539 173.955 44.3753C174.328 44.5226 174.776 44.6702 175.223 44.8175C175.671 44.9651 176.045 45.0389 176.492 45.1862C176.865 45.3338 177.238 45.4811 177.537 45.6284C177.836 45.776 178.06 45.9971 178.209 46.2183C178.358 46.4396 178.433 46.7345 178.433 47.1768C178.433 47.4717 178.358 47.7666 178.209 48.0615C178.06 48.3564 177.836 48.5778 177.612 48.7251C177.388 48.9462 177.089 49.0938 176.716 49.1676C176.343 49.2411 176.045 49.3149 175.597 49.3149C175 49.3149 174.402 49.1676 173.955 48.9462C173.507 48.7251 173.059 48.3564 172.76 47.9142L172.686 47.7666L171.193 48.6513L171.342 48.7989C171.865 49.4625 172.537 49.9785 173.283 50.1996C174.029 50.4945 174.85 50.6421 175.746 50.6421C176.268 50.6421 176.791 50.5683 177.313 50.4207C177.836 50.2734 178.283 50.0523 178.657 49.7574C179.03 49.4625 179.403 49.0938 179.627 48.6513C179.851 48.2091 180 47.693 180 47.1768C179.926 46.2185 179.701 45.6287 179.403 45.1862Z" fill="white"/>
<path d="M107.081 17.2437C107.081 13.7048 104.171 10.8295 100.588 10.8295C97.0058 10.8295 94.0951 13.7048 94.0951 17.2437C94.0951 20.7826 97.0058 23.658 100.588 23.658C104.171 23.658 107.081 20.7826 107.081 17.2437ZM105.589 17.2437C105.589 19.9716 103.35 22.1835 100.588 22.1835C97.8267 22.1835 95.5878 19.9716 95.5878 17.2437C95.5878 14.5158 97.8267 12.304 100.588 12.304C103.35 12.304 105.589 14.5158 105.589 17.2437Z" fill="white"/>
<path d="M161.192 39.1408C162.535 39.1408 163.804 39.6568 164.775 40.6888L164.924 40.8364L165.969 39.8044L165.82 39.6568C164.551 38.4034 162.909 37.6662 161.192 37.6662C157.61 37.6662 154.699 40.5415 154.699 44.0804C154.699 47.6193 157.61 50.4948 161.192 50.4948C162.983 50.4948 164.625 49.8312 165.82 48.504L165.969 48.3566L164.924 47.3243L164.775 47.4719C163.804 48.4302 162.535 49.0202 161.192 49.0202C158.43 49.0202 156.192 46.8083 156.192 44.0804C156.192 41.3524 158.43 39.1408 161.192 39.1408Z" fill="white"/>
<path d="M15.5692 35.2356C17.7218 34.1209 18.9776 31.7528 18.6944 29.3432C18.6735 29.1657 18.5779 29.0039 18.4319 28.8994C18.2837 28.7926 18.096 28.7534 17.9184 28.7911C17.5923 28.8612 17.3756 29.1634 17.4147 29.4949C17.6352 31.373 16.6556 33.2191 14.9777 34.0882C13.3598 34.9264 11.4056 34.7235 9.99885 33.5711C9.73989 33.3586 9.36773 33.3791 9.13369 33.6171C9.00625 33.7473 8.93876 33.9261 8.94891 34.1082C8.95875 34.2885 9.04334 34.4564 9.18148 34.5697C10.2222 35.4232 11.5351 35.8935 12.8784 35.8935C13.8079 35.8935 14.7382 35.6656 15.5692 35.2356Z" fill="white"/>
<path d="M18.8263 16.818C19.363 17.0653 19.9362 17.1907 20.5308 17.1907C21.608 17.1907 22.6611 16.7594 23.42 16.0078C23.5465 15.8821 23.6152 15.7068 23.6085 15.5266C23.6007 15.3444 23.5167 15.1734 23.378 15.0568C23.1222 14.8426 22.7518 14.8574 22.5154 15.0922C21.6888 15.9114 20.4228 16.1355 19.3639 15.6479C18.3435 15.1778 17.7008 14.1496 17.7263 13.0283C17.7338 12.6934 17.4896 12.4122 17.1589 12.3751C16.9793 12.3518 16.7971 12.4102 16.6601 12.53C16.5243 12.6484 16.4443 12.8193 16.4406 12.9978C16.4185 13.9413 16.7256 14.8705 17.3049 15.6137C17.706 16.1282 18.2323 16.5447 18.8263 16.818Z" fill="white"/>
<path d="M49.6462 21.3823C48.4362 22.0088 47.0671 22.0982 45.7907 21.6341C45.4763 21.5189 45.1336 21.6646 44.9924 21.9693C44.9163 22.1333 44.9129 22.3231 44.9824 22.4905C45.0518 22.658 45.1894 22.7897 45.3598 22.8512C46.0303 23.0944 46.7281 23.2178 47.4335 23.2178C48.3999 23.2175 49.3694 22.9792 50.238 22.5297C52.4038 21.4081 53.6971 19.1114 53.5322 16.679C53.5195 16.4976 53.4309 16.3287 53.2891 16.2149C53.1479 16.1024 52.9664 16.0539 52.7854 16.0814C52.4545 16.1337 52.2223 16.4254 52.2457 16.7596C52.378 18.6814 51.358 20.496 49.6462 21.3823Z" fill="white"/>
<path d="M58.5671 35.0096C58.5661 34.986 58.5637 34.9621 58.5608 34.9366C58.3341 33.1113 57.2391 31.5952 55.6314 30.881C55.4681 30.8082 55.2792 30.8098 55.1143 30.8836C54.9462 30.9594 54.8174 31.1041 54.7613 31.2795C54.6624 31.5921 54.8163 31.9301 55.1193 32.066C55.8774 32.4064 56.4805 32.9793 56.8643 33.7237C57.3125 34.5926 57.3964 35.5839 57.0999 36.5153C56.8043 37.4466 56.1635 38.2073 55.2966 38.6556C54.3976 39.1217 53.3331 39.1911 52.3759 38.846C52.0684 38.7348 51.7281 38.873 51.5831 39.1669C51.5016 39.3329 51.4945 39.5265 51.5639 39.6982C51.6315 39.8669 51.7675 39.9986 51.9364 40.0599C52.4764 40.2548 53.0422 40.3535 53.619 40.3535C54.4086 40.3535 55.1935 40.1636 55.8882 39.8037C57.6426 38.8951 58.6689 37.0579 58.5671 35.0096Z" fill="white"/>
<path fill-rule="evenodd" clip-rule="evenodd" d="M62.1877 34.0355C62.1517 35.779 62.5815 36.7471 62.865 37.1914C63.3553 37.9602 63.3763 38.9242 62.9197 39.7071L62.8747 39.7738C59.8388 43.6032 57.4324 47.7306 55.7159 52.0505L55.679 52.1274C55.178 52.9882 54.2471 53.4557 53.3062 53.3343C52.4364 53.2151 51.2278 53.7238 50.2475 54.3198C45.1896 58.0328 39.0463 60.0849 32.6581 60.0849C32.6431 60.0849 32.6284 60.0847 32.6136 60.0844C32.5992 60.0841 32.5844 60.0839 32.57 60.0839C32.5626 60.0839 32.5555 60.0841 32.5484 60.0844C32.5413 60.0844 32.5339 60.0847 32.5268 60.0847C31.4048 60.0839 30.2793 60.02 29.1627 59.895C27.1897 59.9077 26.0012 60.7685 25.6844 61.032C25.2595 61.3849 24.75 61.5789 24.2492 61.5789C23.9414 61.5789 23.6478 61.5063 23.3769 61.3665L23.2947 61.3159C20.0499 58.8649 16.5382 57.0553 12.8453 55.9274L12.7515 55.8903C11.9865 55.4958 11.5648 54.6342 11.6636 53.6882C11.8461 51.9403 10.5818 50.4848 10.5688 50.4705L10.5372 50.4315C7.40648 47.0337 5.07375 42.8949 3.7976 38.4708C3.29711 37.1924 2.09395 36.7398 1.37477 36.4693C0.516576 36.1466 -0.010275 35.483 0.000151956 34.7371L0.0126064 34.6235C0.745969 31.2717 0.792892 27.9615 0.154529 24.7705L0.141206 24.7032L0.142075 24.635C0.153081 23.8294 0.773485 23.1271 1.68498 22.8871C3.51984 22.4039 4.07045 20.9126 4.07565 20.8978L4.1049 20.8279C5.81434 15.5833 8.95721 10.9036 13.1885 7.30657L13.2094 7.28277C13.7549 6.76031 13.6115 5.77449 13.5345 5.24444C13.4273 4.50762 13.7 3.86943 14.2469 3.57951L14.3532 3.5357C16.723 2.84677 18.8223 1.73587 20.6082 0.228283L20.7075 0.160087C21.3094 -0.158844 22.0587 0.00917929 22.5864 0.5713C23.4269 1.46773 24.3422 1.32234 24.4436 1.30318L24.4946 1.29448C27.0834 0.5713 29.7853 0.202457 32.5084 0.202164C35.6758 0.202164 38.7891 0.695215 41.766 1.66739C43.2238 2.00982 44.4374 1.95004 45.3627 1.48717C46.1758 1.0806 47.0919 1.16011 47.7539 1.6935L47.8194 1.75532C50.7577 5.01369 54.084 7.69515 57.7151 9.73468L57.793 9.7869C58.525 10.376 58.8017 11.3612 58.4932 12.2469C57.8417 14.1167 58.7444 15.7853 58.7828 15.8553C59.7363 17.6121 60.5046 19.4645 61.0859 21.3746C61.9662 24.2151 62.4281 27.201 62.4281 30.2568C62.4281 31.5261 62.345 32.787 62.1877 34.0355ZM53.0053 52.03C53.1639 52.0282 53.3215 52.0331 53.4764 52.0534C53.8802 52.1077 54.3113 51.8907 54.5451 51.5116C56.2908 47.1239 58.7478 42.9087 61.8353 39.0094C62.0173 38.674 62.0012 38.2359 61.7792 37.888C61.7074 37.7752 61.6282 37.636 61.5475 37.4715C61.3805 38.1439 61.194 38.812 60.9801 39.4722C60.927 39.6364 60.8121 39.7699 60.6571 39.8474C60.5651 39.8941 60.4662 39.917 60.3665 39.917C60.296 39.917 60.225 39.9053 60.1563 39.8822C59.8218 39.7666 59.645 39.4103 59.7552 39.071C60.2994 37.3904 60.6803 35.6636 60.9041 33.9098C60.9104 33.671 60.9228 33.4241 60.9459 33.162C61.0493 32.1577 61.1022 31.1428 61.1032 30.143C61.1053 27.5159 60.7434 24.9038 60.0419 22.3909C60.0335 22.3619 60.0259 22.3327 60.0182 22.3036C60.0096 22.271 60.0009 22.2384 59.9914 22.2061C59.9672 22.121 59.9412 22.0364 59.9151 21.9518C59.9007 21.9047 59.8859 21.8576 59.872 21.8105C58.5468 17.5068 56.2101 13.554 52.9761 10.2585C52.7305 10.0086 52.7289 9.60266 52.9735 9.35395C53.2186 9.10524 53.6513 9.10438 53.8938 9.35192C55.0404 10.52 56.0733 11.7713 57.0002 13.0848C57.0405 12.6797 57.1252 12.2557 57.2767 11.8212C57.399 11.4686 57.3003 11.0731 57.0313 10.8314C53.3091 8.73233 49.9008 5.98358 46.9001 2.66135C46.6603 2.48578 46.2828 2.47069 45.9377 2.64277C45.5934 2.81517 45.2212 2.94051 44.8274 3.02932C45.3404 3.25888 45.847 3.50237 46.3457 3.76121C46.499 3.84103 46.6113 3.97624 46.6626 4.14282C46.7142 4.31085 46.6968 4.48875 46.614 4.64312C46.4969 4.85961 46.2796 4.98121 46.0519 4.98121C45.9503 4.98121 45.8472 4.95712 45.7499 4.90635C41.7342 2.82213 37.2072 1.71994 32.6581 1.71994C29.0796 1.71994 25.5926 2.37521 22.2942 3.66777C21.9632 3.79808 21.5977 3.6428 21.4627 3.31402C21.3964 3.15209 21.3981 2.97361 21.4667 2.81197C21.5351 2.65176 21.6614 2.52873 21.8221 2.46546C22.0059 2.39356 22.1913 2.32754 22.3768 2.26152C22.4451 2.23722 22.5134 2.21292 22.5815 2.18832C22.2713 2.01769 21.9536 1.78234 21.6475 1.45615C21.5296 1.32991 21.416 1.28899 21.3541 1.28899C19.4772 2.85259 17.2846 4.01251 14.8398 4.73772C14.816 4.78127 14.7856 4.88951 14.8103 5.05723C14.8552 5.36747 14.9212 5.82599 14.8948 6.32512C15.6714 5.74357 16.4766 5.19653 17.3124 4.6916C17.4602 4.60251 17.6339 4.57668 17.8025 4.6202C17.9725 4.66404 18.1144 4.7714 18.2022 4.92316C18.3801 5.22992 18.2798 5.61501 17.9749 5.79899C10.5172 10.3043 5.43786 18.1444 4.38705 26.7712C4.34679 27.1022 4.07426 27.341 3.7516 27.341C3.72872 27.341 3.70583 27.3397 3.68208 27.3374C3.50801 27.3192 3.3519 27.2332 3.2424 27.096C3.13408 26.9593 3.086 26.7894 3.10715 26.6182C3.24182 25.5132 3.44023 24.4209 3.69799 23.3457C3.254 23.6678 2.70137 23.9548 2.01231 24.1365C1.70443 24.2174 1.47214 24.4075 1.43593 24.604C2.08559 27.9176 2.03722 31.3468 1.29285 34.7989C1.32268 34.967 1.52978 35.1486 1.81855 35.257C2.25033 35.4194 2.86858 35.6522 3.46571 36.0697C3.32205 35.3505 3.19634 34.6269 3.10744 33.8973C3.08629 33.7258 3.13437 33.5564 3.2424 33.4205C3.35161 33.2825 3.50772 33.1965 3.68208 33.1783C4.03573 33.1391 4.34418 33.3901 4.38734 33.7445C5.28378 41.0914 9.12757 47.9621 14.9331 52.5943C15.2117 52.8175 15.2609 53.2122 15.0452 53.4931C14.938 53.6321 14.7836 53.7204 14.6095 53.7415C14.5826 53.7451 14.5563 53.7467 14.5299 53.7467C14.3854 53.7467 14.2469 53.6986 14.1328 53.6074C13.7146 53.274 13.3082 52.9269 12.9097 52.5715C12.9717 52.9651 12.9913 53.3842 12.9456 53.8225C12.9044 54.2172 13.0348 54.5558 13.2868 54.7122C17.0802 55.8801 20.687 57.7397 24.0074 60.2395C24.2577 60.345 24.5835 60.2686 24.8616 60.0384C25.0348 59.8945 25.4119 59.6097 25.979 59.3319C24.1627 58.9149 22.3872 58.3261 20.6641 57.5648C20.506 57.495 20.3849 57.3669 20.3235 57.2037C20.2615 57.0392 20.2679 56.8612 20.3412 56.7022C20.4898 56.38 20.8608 56.2408 21.1869 56.3844C23.8006 57.5386 26.54 58.2799 29.3642 58.6039H29.3681C30.4208 58.7245 31.485 58.7886 32.5592 58.7923C38.4569 58.7824 44.0931 57.0138 48.8786 53.6747L49.0538 53.5539C49.1798 53.4676 49.3408 53.3624 49.5247 53.2491C51.237 51.9879 52.8194 50.5289 54.2339 48.8853C54.4667 48.6148 54.8623 48.5813 55.134 48.8081C55.2684 48.9203 55.3505 49.0788 55.3652 49.2542C55.3792 49.428 55.3247 49.5956 55.2122 49.7266C54.5141 50.5378 53.7771 51.3058 53.0053 52.03Z" fill="white"/>
<path d="M38.1849 40.1045C38.0153 40.0686 37.8432 40.1055 37.7001 40.203C37.5547 40.3017 37.4574 40.4508 37.4258 40.6239C37.3624 40.9728 37.5865 41.3015 37.9361 41.3712C42.9855 42.3876 47.5974 44.8555 51.2733 48.5084C51.3988 48.6331 51.5605 48.6963 51.7218 48.6986C51.8856 48.7009 52.0495 48.6401 52.1773 48.5154C52.3028 48.3933 52.3722 48.2293 52.3728 48.0537C52.3741 47.8796 52.307 47.7164 52.1847 47.5948C48.3268 43.7605 43.4863 41.1703 38.1849 40.1045Z" fill="white"/>
<path d="M27.6918 40.5147C27.661 40.3416 27.564 40.192 27.4191 40.0927C27.2749 39.9945 27.1021 39.9584 26.9332 39.9924C21.8579 41 17.1742 43.4201 13.3883 46.9909C13.2623 47.1099 13.1911 47.271 13.1876 47.4451C13.1838 47.621 13.2487 47.7873 13.3709 47.913C13.4984 48.0448 13.6675 48.1097 13.8358 48.1079C13.9922 48.1064 14.1486 48.0469 14.2734 47.9294C17.8814 44.5272 22.3448 42.221 27.1813 41.2596C27.5298 41.1902 27.7544 40.8628 27.6918 40.5147Z" fill="white"/>
<path d="M45.3622 46.3751C45.2133 46.2883 45.0384 46.2655 44.8711 46.312C44.7015 46.3587 44.5613 46.4694 44.4755 46.6235C44.3048 46.9324 44.4114 47.3147 44.7186 47.4939C45.8575 48.1581 46.9496 48.9251 47.9652 49.7745C48.088 49.8768 48.2353 49.9272 48.3823 49.9272C48.5607 49.9272 48.7374 49.8524 48.8645 49.7059C48.9797 49.5733 49.0357 49.4034 49.0218 49.228C49.0081 49.0545 48.9276 48.8975 48.7953 48.7866C47.7213 47.8876 46.5661 47.0761 45.3622 46.3751Z" fill="white"/>
<path d="M42.3857 46.0638C42.4694 46.1064 42.5572 46.1303 42.644 46.1358C42.8873 46.1516 43.1256 46.0282 43.2485 45.7988C43.3321 45.6442 43.3495 45.4657 43.2971 45.2973C43.2456 45.1313 43.133 44.9962 42.9794 44.9174C42.017 44.4222 41.0114 43.9867 39.9911 43.6227C39.8275 43.5655 39.6528 43.5754 39.4971 43.6513C39.3388 43.7287 39.2215 43.8633 39.1654 44.0304C39.0539 44.3658 39.2291 44.7226 39.5642 44.8418C40.5272 45.185 41.4762 45.5964 42.3857 46.0638Z" fill="white"/>
<path d="M25.0269 44.4852C24.9727 44.3176 24.856 44.1823 24.6984 44.104C24.5429 44.0261 24.3668 44.016 24.2037 44.0716C21.1955 45.1202 18.4515 46.7242 16.0478 48.84C15.9177 48.954 15.841 49.1128 15.8314 49.2871C15.8221 49.4628 15.8818 49.6309 16.0003 49.761C16.1298 49.9032 16.3067 49.9744 16.4837 49.9707C16.6317 49.9684 16.7797 49.9143 16.9016 49.8075C19.1782 47.8045 21.7757 46.2853 24.6225 45.2933C24.9588 45.1764 25.136 44.8212 25.0269 44.4852Z" fill="white"/>
<path d="M39.7736 47.2308C39.6126 47.1677 39.4367 47.1729 39.2781 47.2446C39.1194 47.3163 38.9945 47.4517 38.9353 47.6148C38.8157 47.9459 38.9803 48.3062 39.3109 48.4361C41.442 49.271 43.3908 50.4735 45.1031 52.0104C45.2286 52.1229 45.3838 52.179 45.5379 52.179C45.7084 52.179 45.8775 52.1104 46.004 51.9755C46.1247 51.8472 46.1868 51.6791 46.1794 51.5027C46.1721 51.328 46.0971 51.1683 45.9685 51.0529C44.1365 49.4087 42.0522 48.1225 39.7736 47.2308Z" fill="white"/>
<path d="M24.6742 48.0152C24.6047 47.8523 24.4758 47.7281 24.311 47.6642C24.1485 47.601 23.9724 47.6062 23.8154 47.6782C21.9429 48.5359 20.2135 49.6716 18.6746 51.0526C18.5463 51.1677 18.471 51.3275 18.4635 51.5016C18.4559 51.6783 18.5182 51.8466 18.639 51.9755C18.7653 52.1104 18.9347 52.1787 19.1047 52.1787C19.2588 52.1787 19.4138 52.1226 19.5392 52.0106C20.9798 50.7185 22.5969 49.6573 24.3457 48.8557C24.6681 48.7079 24.8123 48.3384 24.6742 48.0152Z" fill="white"/>
<path d="M38.0224 50.1545C37.8614 50.0926 37.6859 50.0994 37.5284 50.1729C37.37 50.2467 37.2464 50.3836 37.1891 50.5486C37.0747 50.8796 37.2435 51.2382 37.5744 51.3655C39.171 51.9792 40.6348 52.866 41.9249 54.0023C42.0504 54.113 42.2045 54.1673 42.3581 54.1673C42.5294 54.1673 42.6993 54.0989 42.8258 53.9636C42.9452 53.836 43.0089 53.6627 43.0005 53.4875C42.9918 53.3137 42.9155 53.1552 42.7861 53.0412C41.3741 51.7958 39.7715 50.8251 38.0224 50.1545Z" fill="white"/>
<path d="M31.3645 49.832C31.3466 49.6579 31.2577 49.496 31.1207 49.3874C30.9836 49.2799 30.8127 49.2305 30.6438 49.2562C27.5479 49.6714 24.6724 50.9911 22.3275 53.0734C22.1983 53.1877 22.123 53.3467 22.1149 53.5208C22.1074 53.6956 22.1711 53.8684 22.2907 53.9963C22.4167 54.1306 22.5862 54.1984 22.757 54.1984C22.9106 54.1984 23.0655 54.1431 23.1909 54.0321C25.3389 52.1286 27.9712 50.9204 30.8029 50.5377C31.1536 50.4904 31.4005 50.1804 31.3645 49.832Z" fill="white"/>
<path d="M38.324 54.5661C36.5396 53.3706 34.4543 52.7382 32.294 52.7382C30.1319 52.7382 28.0456 53.3709 26.2605 54.5676C26.1108 54.6684 26.0074 54.8264 25.977 55.0026C25.9466 55.1775 25.988 55.3521 26.0934 55.4947C26.2206 55.6667 26.4156 55.7587 26.6121 55.7587C26.7325 55.7587 26.854 55.7241 26.9614 55.6519C28.5374 54.5905 30.3815 54.0295 32.294 54.0295C34.2042 54.0295 36.0475 54.59 37.6236 55.6503C37.9058 55.8403 38.2867 55.7699 38.4918 55.4924C38.597 55.3497 38.6378 55.1756 38.6078 55.001C38.577 54.8251 38.4734 54.6664 38.324 54.5661Z" fill="white"/>
<path d="M31.2669 36.7794C31.2803 36.609 31.2246 36.4437 31.1104 36.3141C30.9955 36.1839 30.8308 36.1052 30.6456 36.0966C30.3016 36.0755 30.0083 36.3416 29.9815 36.6903C29.9047 37.653 29.7274 38.6432 29.4541 39.6336C28.9312 41.5205 28.0698 43.3035 27.029 44.6559C26.8156 44.9323 26.8543 45.3221 27.1152 45.5424L27.1247 45.5505C27.2415 45.6489 27.3846 45.7012 27.5342 45.7012C27.5571 45.7012 27.5803 45.6999 27.6039 45.6973C27.7799 45.6786 27.9367 45.5902 28.0453 45.4491C29.1884 43.966 30.1296 42.0228 30.6956 39.9787C30.9928 38.9048 31.1848 37.8284 31.2669 36.7794Z" fill="white"/>
<path d="M28.5625 48.1183C28.6793 48.2155 28.8221 48.2669 28.971 48.2669C28.9962 48.2669 29.0215 48.2654 29.0465 48.2625C29.224 48.2417 29.3813 48.1516 29.4897 48.0087C30.3416 46.8831 31.0841 45.4977 31.637 44.0008C31.6967 43.8389 31.6889 43.6633 31.6142 43.5063C31.5395 43.3486 31.4022 43.2263 31.237 43.1701C30.9048 43.0574 30.5478 43.2299 30.425 43.5627C29.9166 44.9357 29.2395 46.2018 28.4662 47.2242C28.2534 47.5049 28.2963 47.8975 28.5625 48.1183Z" fill="white"/>
<path d="M37.4058 45.9907C37.43 45.9933 37.4542 45.9943 37.4787 45.9943C37.6283 45.9943 37.7722 45.9421 37.889 45.8447C38.1544 45.6223 38.1954 45.2291 37.9818 44.9493C36.9337 43.5756 36.0651 41.7656 35.5354 39.8525C35.2576 38.849 35.0764 37.8448 34.9967 36.8678C34.968 36.5158 34.6695 36.2513 34.3236 36.2707C34.149 36.2791 33.9827 36.3594 33.8678 36.4911C33.7526 36.622 33.6973 36.7886 33.7113 36.9606C33.7968 38.0228 33.9927 39.112 34.2934 40.1975C34.866 42.2668 35.8134 44.2343 36.961 45.7379C37.0702 45.8813 37.228 45.9709 37.4058 45.9907Z" fill="white"/>
<path d="M36.5025 48.7314C35.3523 47.061 34.3699 44.868 33.737 42.556C33.4001 41.3252 33.1678 40.1001 33.0466 38.9143C33.0106 38.5656 32.7096 38.3125 32.349 38.3424C32.1754 38.3562 32.0187 38.4375 31.9071 38.5716C31.7969 38.7033 31.7467 38.8693 31.7638 39.039C31.8927 40.2997 32.1378 41.5981 32.494 42.8972C33.166 45.3515 34.216 47.6884 35.4509 49.4781C35.5477 49.6185 35.6937 49.7112 35.8631 49.7393C35.8978 49.7447 35.9326 49.7476 35.9673 49.7476C36.1035 49.7476 36.239 49.7039 36.3497 49.6213L36.254 49.4919L36.3626 49.6125C36.6398 49.4064 36.7011 49.0195 36.5025 48.7314Z" fill="white"/>
<path fill-rule="evenodd" clip-rule="evenodd" d="M32.3035 20.7405C30.7869 20.7405 29.553 19.504 29.553 17.9848C29.553 16.4653 30.7869 15.2293 32.3035 15.2293C33.8202 15.2293 35.0538 16.4653 35.0538 17.9848C35.0538 19.504 33.8202 20.7405 32.3035 20.7405ZM32.3038 19.449C33.1092 19.449 33.7647 18.7923 33.7647 17.9846C33.7647 17.1776 33.1092 16.5209 32.3038 16.5209C31.4979 16.5209 30.8424 17.1776 30.8424 17.9846C30.8424 18.7923 31.4979 19.449 32.3038 19.449Z" fill="white"/>
<path fill-rule="evenodd" clip-rule="evenodd" d="M16.0425 30.0283C16.0425 31.7907 14.6117 33.2242 12.8527 33.2242C11.0941 33.2242 9.66296 31.7907 9.66296 30.0283C9.66296 28.2662 11.0941 26.8322 12.8527 26.8322C14.6117 26.8322 16.0425 28.2662 16.0425 30.0283ZM12.8528 28.124C11.8049 28.124 10.9522 28.9783 10.9522 30.0283C10.9522 31.0783 11.8049 31.9329 12.8528 31.9329C13.9007 31.9329 14.7537 31.0783 14.7537 30.0283C14.7537 28.9783 13.9007 28.124 12.8528 28.124Z" fill="white"/>
<path fill-rule="evenodd" clip-rule="evenodd" d="M51.1104 36.6339C50.4342 35.3236 50.9484 33.7051 52.2572 33.0275C52.8911 32.6998 53.615 32.6385 54.2939 32.855C54.9741 33.0719 55.5288 33.5414 55.8566 34.1759C56.1838 34.8112 56.245 35.5361 56.0288 36.2174C55.8118 36.8984 55.3436 37.4545 54.71 37.7826C54.3328 37.978 53.9101 38.0812 53.4877 38.0812C52.4819 38.0812 51.5707 37.5267 51.1104 36.6339ZM54.7113 34.7691C54.5419 34.441 54.255 34.1978 53.9028 34.0855C53.7652 34.0416 53.6237 34.019 53.4817 34.019C53.2612 34.019 53.0479 34.0715 52.8488 34.1749C52.5213 34.3443 52.2793 34.6319 52.167 34.985C52.0547 35.3376 52.0863 35.7128 52.2554 36.0407C52.6055 36.7186 53.4406 36.9852 54.1185 36.6352C54.4459 36.4653 54.6884 36.1779 54.8005 35.8251C54.9125 35.4725 54.8807 35.0973 54.7113 34.7691Z" fill="white"/>
<path fill-rule="evenodd" clip-rule="evenodd" d="M47.4341 20.5267C47.0645 20.5267 46.6934 20.4663 46.333 20.3445C45.4669 20.0514 44.7656 19.4367 44.3587 18.6131C43.9518 17.7895 43.889 16.8577 44.1817 15.9894C44.4745 15.1203 45.0879 14.4168 45.909 14.0097C46.73 13.6025 47.6603 13.5398 48.528 13.8335C49.0467 14.0088 49.5197 14.308 49.8958 14.6977C50.1404 14.9514 50.3448 15.2427 50.5039 15.5643C50.9106 16.3867 50.9729 17.3185 50.6796 18.1886C50.3866 19.0577 49.7732 19.7609 48.9523 20.1683C48.472 20.4063 47.9546 20.5267 47.4341 20.5267ZM46.4809 15.167C45.9685 15.4215 45.5853 15.86 45.4024 16.4027C45.146 17.1656 45.3338 18.0005 45.8938 18.5815C46.1326 18.829 46.4193 19.0101 46.7457 19.121C47.2881 19.3044 47.8681 19.2655 48.3805 19.011C48.8926 18.7568 49.2758 18.318 49.4586 17.775C49.6414 17.2326 49.6022 16.6508 49.3489 16.1371C49.0951 15.6235 48.6572 15.2401 48.1156 15.057C47.5743 14.8742 46.9938 14.9125 46.4809 15.167Z" fill="white"/>
<path fill-rule="evenodd" clip-rule="evenodd" d="M22.6241 12.9963C22.6241 14.1165 21.714 15.0281 20.5957 15.0281C19.4774 15.0281 18.5674 14.1165 18.5674 12.9963C18.5674 11.8759 19.4774 10.9641 20.5957 10.9641C21.714 10.9641 22.6241 11.8759 22.6241 12.9963ZM20.5957 12.1066C20.1063 12.1066 19.708 12.5059 19.708 12.9963C19.708 13.4868 20.1063 13.8858 20.5957 13.8858C21.0858 13.8858 21.4841 13.4868 21.4841 12.9963C21.4841 12.5059 21.0858 12.1066 20.5957 12.1066Z" fill="white"/>
<path fill-rule="evenodd" clip-rule="evenodd" d="M25.8696 37.4649C25.677 37.5722 25.4476 37.569 25.2576 37.4558C25.0676 37.3433 24.9538 37.1442 24.9538 36.9228V30.5958C24.9538 30.1798 25.1753 29.7885 25.5316 29.5749L26.8099 28.8099C26.9301 28.7382 26.9932 28.6016 26.9717 28.4623C26.776 27.1925 26.6765 25.7371 26.6765 24.1364C26.6765 16.648 29.4583 6.61549 32.3025 6.61549C33.9954 6.61549 35.3442 9.89331 36.1785 12.6432C37.2743 16.2577 37.9287 20.5541 37.9287 24.1364C37.9287 25.7365 37.829 27.192 37.6336 28.4615C37.612 28.601 37.6757 28.7377 37.7951 28.8094L39.075 29.5749C39.4314 29.7885 39.6529 30.1798 39.6529 30.5958V36.9228C39.6529 37.1442 39.539 37.3433 39.3491 37.4558C39.2518 37.5137 39.1434 37.5428 39.0353 37.5428C38.9332 37.5428 38.8309 37.5168 38.737 37.4649L34.932 35.3628C34.6763 35.222 34.387 35.1472 34.0956 35.1472H30.511C30.2196 35.1472 29.9302 35.222 29.6746 35.3631L25.8696 37.4649ZM35.5312 34.1746L37.1867 30.0098C37.1935 29.993 37.2067 29.9862 37.2138 29.9836C37.2217 29.981 37.2356 29.9787 37.2504 29.988L37.9637 30.4147C38.2104 30.5622 38.3638 30.833 38.3638 31.1206L38.3588 35.7754C38.3546 35.7783 38.3488 35.776 38.3488 35.776L35.5501 34.2297C35.5312 34.2193 35.5228 34.1957 35.5312 34.1746ZM29.0604 34.2279L26.2427 35.7671V31.1206C26.2427 30.833 26.3962 30.5622 26.6429 30.4147L27.3615 29.9846C27.3744 29.9768 27.3859 29.9787 27.3938 29.981C27.4015 29.9836 27.412 29.9898 27.4175 30.0031L29.0775 34.1796C29.0846 34.1975 29.0775 34.2183 29.0604 34.2279ZM35.9368 29.6581L34.2673 33.8553L30.3374 33.8585L28.9249 30.305L28.6637 29.6635L35.9368 29.6581ZM36.265 28.3719C36.3113 28.3719 36.3503 28.3405 36.3568 28.2966C36.5446 27.0889 36.6396 25.689 36.6396 24.1358C36.6396 15.799 33.4837 7.90666 32.3025 7.90666C31.1215 7.90666 27.9654 15.7989 27.9654 24.136C27.9654 25.6892 28.0606 27.0891 28.2484 28.2966C28.255 28.3405 28.2939 28.3722 28.3399 28.3722L36.265 28.3719Z" fill="white"/>
<path d="M174.056 11.469H172.453V15.8026H171.787V11.469H170.181V10.9128H174.056V11.469Z" fill="white"/>
<path d="M179.941 10.9128V15.8026H179.354V12.2095C179.354 12.1617 179.355 12.1105 179.357 12.0559C179.362 12.0013 179.367 11.9456 179.371 11.8887L177.672 14.9461C177.619 15.0485 177.538 15.0996 177.43 15.0996H177.333C177.225 15.0996 177.144 15.0485 177.091 14.9461L175.357 11.8751C175.371 11.9956 175.378 12.1071 175.378 12.2095V15.8026H174.791V10.9128H175.285C175.345 10.9128 175.391 10.9185 175.423 10.9299C175.455 10.9412 175.486 10.9731 175.516 11.0254L177.226 14.035C177.254 14.0896 177.28 14.1465 177.305 14.2056C177.333 14.2648 177.358 14.325 177.382 14.3865C177.404 14.325 177.429 14.2648 177.454 14.2056C177.479 14.1442 177.507 14.0862 177.537 14.0316L179.216 11.0254C179.243 10.9731 179.273 10.9412 179.306 10.9299C179.34 10.9185 179.387 10.9128 179.447 10.9128H179.941Z" fill="white"/>
</svg>
