<svg width="20" height="15" viewBox="0 0 20 15" fill="none" xmlns="http://www.w3.org/2000/svg">
<g>
<path d="M0 0H20V15H0V0Z" fill="#EE1C25"/>
<path d="M2.39999 5.55L3.74997 1.5L5.09996 5.55L1.5 3.075H5.99994L2.39999 5.55Z" fill="#FFFF00"/>
<path d="M8.25528 1.57758L6.86598 1.88546L7.79269 0.805567L7.7018 2.25896L6.93083 0.97227L8.25528 1.57758Z" fill="#FFFF00"/>
<path d="M9.65744 3.35459L8.25748 3.09954L9.53048 2.46359L8.88302 3.76798L8.67142 2.28298L9.65744 3.35459Z" fill="#FFFF00"/>
<path d="M9.45319 5.84766L8.27898 5.0438L9.70066 4.98235L8.57751 5.90925L8.98995 4.46707L9.45319 5.84766Z" fill="#FFFF00"/>
<path d="M7.68715 7.47621L6.91452 6.28121L8.24962 6.77363L6.85564 7.19481L7.79308 6.02384L7.68715 7.47621Z" fill="#FFFF00"/>
</g>
</svg>
