<svg width="20" height="15" viewBox="0 0 20 15" fill="none" xmlns="http://www.w3.org/2000/svg">
<g clip-path="url(#clip0_445_886)">
<path d="M20 0L0 15H20V0Z" fill="#012169"/>
<path d="M20 0H19.9375L0 15H2.53125L10 9.40625L17.5 15H20V13.0938L12.5 7.53125L20 1.9375V0Z" fill="white"/>
<path d="M20 13.75L13.25 8.78125H11.5312L20 15V13.75Z" fill="#C8102E"/>
<path d="M7.6875 10.5L7.5 9.40625L0 15H1.6875L7.6875 10.5Z" fill="#C8102E"/>
<path d="M20 0.09375V0H19.9375L12.2264 5.80149L12.2188 5.96875L20 0.09375Z" fill="#C8102E"/>
<path d="M6.64575 10H7.53117V15H12.5312V10H19.9999V5H13.2916L6.64575 10Z" fill="white"/>
<path d="M7.93335 9.03125H8.53114V15H11.5311V9.03125H19.9999V6.03125H11.9208L7.93335 9.03125Z" fill="#C8102E"/>
<path d="M0 0H20L0 15V0Z" fill="#C8102E"/>
<path d="M3.07854 12.691L1.53687 13.8473H0V12.691H3.07854Z" fill="white"/>
<path d="M6.15546 10.3834L4.61379 11.5396H0V10.3834H6.15546Z" fill="white"/>
<path d="M9.23237 8.07567L7.69071 9.23192H0V8.07567H9.23237Z" fill="white"/>
<path d="M12.3093 5.76798L10.7676 6.92423H0V5.76798H12.3093Z" fill="white"/>
<path d="M15.3862 3.46029L13.8445 4.61654H0V3.46029H15.3862Z" fill="white"/>
<path d="M18.4631 1.15259L16.9215 2.30884H0V1.15259H18.4631Z" fill="white"/>
<path d="M0 0H11.4V6.45L9.23075 8.07694H0V0Z" fill="#3C3B6E"/>
<path d="M10.5426 7.09302L10.2583 7.30629L10.011 7.12663H10.3463L10.4499 6.80772L10.5426 7.09302Z" fill="white"/>
<path d="M1.05356 0.665107L0.949936 0.346191L0.846315 0.665107H0.510986L0.782273 0.862208L0.678652 1.18112L0.949936 0.984023L1.22122 1.18112L1.1176 0.862208L1.38889 0.665107H1.05356Z" fill="white"/>
<path d="M1.05356 2.28049L0.949936 1.96158L0.846315 2.28049H0.510986L0.782273 2.4776L0.678652 2.79651L0.949936 2.59941L1.22122 2.79651L1.1176 2.4776L1.38889 2.28049H1.05356Z" fill="white"/>
<path d="M0.949936 3.57694L1.05356 3.89588H1.38889L1.1176 4.09297L1.22122 4.41188L0.949936 4.21479L0.678652 4.41188L0.78227 4.09297L0.510986 3.89588H0.846308L0.949936 3.57694Z" fill="white"/>
<path d="M1.05355 5.51126L0.949936 5.19235L0.846319 5.51126H0.510986L0.782275 5.70837L0.678652 6.02729L0.949936 5.83018L1.22122 6.02729L1.1176 5.70837L1.38889 5.51126H1.05355Z" fill="white"/>
<path d="M0.949936 6.80772L1.05355 7.12663H1.38889L1.1176 7.32374L1.22122 7.64266L0.949936 7.44556L0.678652 7.64266L0.782275 7.32374L0.510986 7.12663H0.846319L0.949936 6.80772Z" fill="white"/>
<path d="M2.00355 1.4728L1.89993 1.15388L1.79631 1.4728H1.46098L1.73227 1.6699L1.62865 1.98882L1.89993 1.79172L2.17122 1.98882L2.0676 1.6699L2.33888 1.4728H2.00355Z" fill="white"/>
<path d="M1.89993 2.76927L2.00356 3.08819H2.33888L2.0676 3.28528L2.17122 3.60419L1.89993 3.4071L1.62865 3.60419L1.73227 3.28528L1.46098 3.08819H1.79631L1.89993 2.76927Z" fill="white"/>
<path d="M2.00355 4.70357L1.89993 4.38467L1.79631 4.70357H1.46098L1.73227 4.90067L1.62865 5.21957L1.89993 5.02248L2.17122 5.21957L2.0676 4.90067L2.33888 4.70357H2.00355Z" fill="white"/>
<path d="M1.89993 6.00004L2.00355 6.31894H2.33888L2.06759 6.51605L2.17122 6.83498L1.89993 6.63787L1.62865 6.83498L1.73227 6.51605L1.46098 6.31894H1.79632L1.89993 6.00004Z" fill="white"/>
<path d="M2.95355 0.665107L2.84993 0.346191L2.74631 0.665107H2.41098L2.68227 0.862208L2.57865 1.18112L2.84993 0.984023L3.12121 1.18112L3.01759 0.862207L3.28888 0.665107H2.95355Z" fill="white"/>
<path d="M2.84993 1.96158L2.95355 2.28049H3.28888L3.01759 2.47759L3.12121 2.79651L2.84993 2.59941L2.57865 2.79651L2.68227 2.4776L2.41098 2.28049H2.74631L2.84993 1.96158Z" fill="white"/>
<path d="M2.95356 3.89588L2.84993 3.57694L2.7463 3.89588H2.41098L2.68226 4.09297L2.57865 4.41188L2.84993 4.21479L3.12121 4.41188L3.0176 4.09297L3.28888 3.89588H2.95356Z" fill="white"/>
<path d="M2.84993 5.19235L2.95355 5.51126H3.28888L3.01759 5.70837L3.12121 6.02729L2.84993 5.83018L2.57865 6.02729L2.68227 5.70837L2.41098 5.51126H2.74631L2.84993 5.19235Z" fill="white"/>
<path d="M2.95355 7.12663L2.84993 6.80772L2.74631 7.12663H2.41098L2.68227 7.32374L2.57865 7.64266L2.84993 7.44556L3.12121 7.64266L3.01759 7.32374L3.28888 7.12663H2.95355Z" fill="white"/>
<path d="M3.79994 1.15388L3.90356 1.4728H4.23888L3.9676 1.66989L4.07122 1.98882L3.79992 1.79171L3.52863 1.98882L3.63226 1.6699L3.36097 1.4728H3.69631L3.79994 1.15388Z" fill="white"/>
<path d="M3.90356 3.08819L3.79994 2.76927L3.6963 3.08819H3.36097L3.63226 3.28528L3.52863 3.60419L3.79992 3.40709L4.07122 3.60419L3.9676 3.28527L4.23888 3.08819H3.90356Z" fill="white"/>
<path d="M3.79994 4.38467L3.90356 4.70357H4.23888L3.9676 4.90066L4.07122 5.21957L3.79992 5.02247L3.52863 5.21957L3.63226 4.90067L3.36097 4.70357H3.69631L3.79994 4.38467Z" fill="white"/>
<path d="M3.90355 6.31894L3.79994 6.00004L3.69631 6.31894H3.36097L3.63226 6.51605L3.52863 6.83498L3.79992 6.63787L4.07122 6.83498L3.96759 6.51604L4.23888 6.31894H3.90355Z" fill="white"/>
<path d="M4.74994 0.346191L4.85356 0.665107H5.18888L4.9176 0.862206L5.02122 1.18112L4.74994 0.984021L4.47866 1.18112L4.58228 0.862206L4.311 0.665107H4.64632L4.74994 0.346191Z" fill="white"/>
<path d="M4.85356 2.28049L4.74994 1.96158L4.64632 2.28049H4.311L4.58228 2.47759L4.47866 2.79651L4.74994 2.59941L5.02122 2.79651L4.9176 2.47759L5.18888 2.28049H4.85356Z" fill="white"/>
<path d="M4.74994 3.57694L4.85357 3.89588H5.18888L4.91761 4.09297L5.02122 4.41188L4.74994 4.21478L4.47866 4.41188L4.58228 4.09297L4.311 3.89588H4.64632L4.74994 3.57694Z" fill="white"/>
<path d="M4.85356 5.51126L4.74994 5.19235L4.64633 5.51126H4.311L4.58228 5.70836L4.47866 6.02729L4.74994 5.83018L5.02122 6.02729L4.9176 5.70836L5.18888 5.51126H4.85356Z" fill="white"/>
<path d="M4.74994 6.80772L4.85356 7.12663H5.18888L4.9176 7.32374L5.02122 7.64266L4.74994 7.44555L4.47866 7.64266L4.58228 7.32374L4.311 7.12663H4.64633L4.74994 6.80772Z" fill="white"/>
<path d="M5.80356 1.4728L5.69994 1.15388L5.59632 1.4728H5.261L5.53228 1.6699L5.42866 1.98882L5.69994 1.79171L5.97122 1.98882L5.8676 1.6699L6.13888 1.4728H5.80356Z" fill="white"/>
<path d="M5.69994 2.76927L5.80356 3.08819H6.13888L5.8676 3.28528L5.97122 3.60419L5.69994 3.4071L5.42866 3.60419L5.53228 3.28528L5.261 3.08819H5.59632L5.69994 2.76927Z" fill="white"/>
<path d="M5.80356 4.70357L5.69994 4.38467L5.59632 4.70357H5.261L5.53228 4.90067L5.42866 5.21957L5.69994 5.02248L5.97122 5.21957L5.8676 4.90067L6.13888 4.70357H5.80356Z" fill="white"/>
<path d="M5.69994 6.00004L5.80356 6.31894H6.13888L5.8676 6.51605L5.97122 6.83498L5.69994 6.63787L5.42866 6.83498L5.53228 6.51605L5.261 6.31894H5.59632L5.69994 6.00004Z" fill="white"/>
<path d="M6.75356 0.665107L6.64994 0.346191L6.54632 0.665107H6.21097L6.48227 0.862217L6.37866 1.18112L6.64993 0.984025L6.92122 1.18112L6.8176 0.862206L7.08887 0.665107H6.75356Z" fill="white"/>
<path d="M6.64994 1.96158L6.75356 2.28049H7.08887L6.8176 2.47759L6.92122 2.79651L6.64993 2.59941L6.37866 2.79651L6.48227 2.4776L6.21097 2.28049H6.54632L6.64994 1.96158Z" fill="white"/>
<path d="M6.75356 3.89588L6.64994 3.57694L6.54631 3.89588H6.21097L6.48227 4.09298L6.37866 4.41188L6.64993 4.21479L6.92122 4.41188L6.8176 4.09297L7.08887 3.89588H6.75356Z" fill="white"/>
<path d="M6.64994 5.19235L6.75355 5.51126H7.08887L6.8176 5.70836L6.92122 6.02729L6.64993 5.83019L6.37866 6.02729L6.48227 5.70838L6.21097 5.51126H6.54632L6.64994 5.19235Z" fill="white"/>
<path d="M6.75355 7.12663L6.64994 6.80772L6.54632 7.12663H6.21097L6.48227 7.32375L6.37866 7.64266L6.64993 7.44556L6.92122 7.64266L6.8176 7.32374L7.08887 7.12663H6.75355Z" fill="white"/>
<path d="M7.59994 1.15388L7.70356 1.4728H8.03888L7.7676 1.6699L7.87122 1.98882L7.59994 1.79172L7.32866 1.98882L7.43228 1.66991L7.16097 1.4728H7.49632L7.59994 1.15388Z" fill="white"/>
<path d="M7.70356 3.08819L7.59994 2.76927L7.49632 3.08819H7.16097L7.43228 3.28529L7.32866 3.60419L7.59994 3.4071L7.87122 3.60419L7.7676 3.28528L8.03888 3.08819H7.70356Z" fill="white"/>
<path d="M7.59994 4.38467L7.70356 4.70357H8.03888L7.7676 4.90067L7.87122 5.21957L7.59994 5.02248L7.32866 5.21957L7.43228 4.90068L7.16097 4.70357H7.49632L7.59994 4.38467Z" fill="white"/>
<path d="M7.70356 6.31894L7.59994 6.00004L7.49632 6.31894H7.16097L7.43228 6.51606L7.32866 6.83498L7.59994 6.63787L7.87122 6.83498L7.7676 6.51605L8.03888 6.31894H7.70356Z" fill="white"/>
<path d="M8.54994 0.346191L8.65356 0.665107H8.98888L8.7176 0.862206L8.82122 1.18112L8.54994 0.984021L8.27866 1.18112L8.38228 0.862206L8.111 0.665107H8.44632L8.54994 0.346191Z" fill="white"/>
<path d="M8.65356 2.28049L8.54994 1.96158L8.44632 2.28049H8.111L8.38228 2.47759L8.27866 2.79651L8.54994 2.59941L8.82122 2.79651L8.7176 2.47759L8.98888 2.28049H8.65356Z" fill="white"/>
<path d="M8.54994 3.57694L8.65356 3.89588H8.98888L8.7176 4.09297L8.82122 4.41188L8.54994 4.21478L8.27866 4.41188L8.38227 4.09297L8.111 3.89588H8.44631L8.54994 3.57694Z" fill="white"/>
<path d="M8.65355 5.51126L8.54994 5.19235L8.44632 5.51126H8.111L8.38228 5.70836L8.27866 6.02729L8.54994 5.83018L8.82122 6.02729L8.7176 5.70836L8.98888 5.51126H8.65355Z" fill="white"/>
<path d="M8.54994 6.80772L8.65355 7.12663H8.98888L8.7176 7.32374L8.82122 7.64266L8.54994 7.44555L8.27866 7.64266L8.38228 7.32374L8.111 7.12663H8.44632L8.54994 6.80772Z" fill="white"/>
<path d="M9.60356 1.4728L9.49994 1.15388L9.39632 1.4728H9.061L9.33228 1.6699L9.22866 1.98882L9.49994 1.79171L9.77122 1.98882L9.6676 1.6699L9.93888 1.4728H9.60356Z" fill="white"/>
<path d="M9.49994 2.76927L9.60356 3.08819H9.93888L9.6676 3.28528L9.77122 3.60419L9.49994 3.4071L9.22866 3.60419L9.33228 3.28528L9.061 3.08819H9.39632L9.49994 2.76927Z" fill="white"/>
<path d="M9.60356 4.70357L9.49994 4.38467L9.39632 4.70357H9.061L9.33228 4.90067L9.22866 5.21957L9.49994 5.02248L9.77122 5.21957L9.6676 4.90067L9.93888 4.70357H9.60356Z" fill="white"/>
<path d="M9.49994 6.00004L9.60356 6.31894H9.93888L9.6676 6.51605L9.77122 6.83498L9.49994 6.63787L9.22866 6.83498L9.33228 6.51605L9.061 6.31894H9.39633L9.49994 6.00004Z" fill="white"/>
<path d="M10.5536 0.665107L10.4499 0.346191L10.3463 0.665107H10.011L10.2823 0.862206L10.1787 1.18112L10.4499 0.984021L10.7212 1.18112L10.6176 0.862206L10.8889 0.665107H10.5536Z" fill="white"/>
<path d="M10.4499 1.96158L10.5536 2.28049H10.8889L10.6176 2.47759L10.7212 2.79651L10.4499 2.59941L10.1787 2.79651L10.2823 2.47759L10.011 2.28049H10.3463L10.4499 1.96158Z" fill="white"/>
<path d="M10.5536 3.89588L10.4499 3.57694L10.3463 3.89588H10.011L10.2823 4.09297L10.1787 4.41188L10.4499 4.21478L10.7212 4.41188L10.6176 4.09297L10.8889 3.89588H10.5536Z" fill="white"/>
<path d="M10.4499 5.19235L10.5536 5.51126H10.8889L10.6176 5.70836L10.7212 6.02729L10.4499 5.83018L10.1787 6.02729L10.2823 5.70836L10.011 5.51126H10.3463L10.4499 5.19235Z" fill="white"/>
</g>
<defs>
<clipPath id="clip0_445_886">
<rect width="20" height="15" fill="white"/>
</clipPath>
</defs>
</svg>
