<svg width="21" height="16" viewBox="0 0 21 16" fill="none" xmlns="http://www.w3.org/2000/svg">
<g>
<path d="M20.4409 0.5L0.440918 15.5H20.4409V0.5Z" fill="#012169"/>
<path d="M20.4409 0.5H20.3784L0.440918 15.5H2.97217L10.4409 9.90625L17.9409 15.5H20.4409V13.5938L12.9409 8.03125L20.4409 2.4375V0.5Z" fill="white"/>
<path d="M20.4409 14.25L13.6909 9.28125H11.9722L20.4409 15.5V14.25Z" fill="#C8102E"/>
<path d="M8.12842 11L7.94092 9.90625L0.440918 15.5H2.12842L8.12842 11Z" fill="#C8102E"/>
<path d="M20.4409 0.59375V0.5H20.3784L12.6673 6.30149L12.6597 6.46875L20.4409 0.59375Z" fill="#C8102E"/>
<path d="M7.08691 10.5H7.97233V15.5H12.9723V10.5H20.4411V5.5H13.7327L7.08691 10.5Z" fill="white"/>
<path d="M8.37451 9.53125H8.9723V15.5H11.9723V9.53125H20.441V6.53125H12.362L8.37451 9.53125Z" fill="#C8102E"/>
<path d="M0.440918 0.5H20.4409L0.440918 15.5V0.5Z" fill="#C8102E"/>
<path d="M3.51946 13.191L1.97779 14.3473H0.440918V13.191H3.51946Z" fill="white"/>
<path d="M6.59637 10.8834L5.05471 12.0396H0.440918V10.8834H6.59637Z" fill="white"/>
<path d="M9.67329 8.57567L8.13162 9.73192H0.440918V8.57567H9.67329Z" fill="white"/>
<path d="M12.7502 6.26798L11.2085 7.42423H0.440918V6.26798H12.7502Z" fill="white"/>
<path d="M15.8271 3.96029L14.2855 5.11654H0.440918V3.96029H15.8271Z" fill="white"/>
<path d="M18.9041 1.65259L17.3624 2.80884H0.440918V1.65259H18.9041Z" fill="white"/>
<path d="M0.440918 0.5H11.8409V6.95L9.67167 8.57694H0.440918V0.5Z" fill="#3C3B6E"/>
<path d="M10.9838 7.59302L10.6994 7.80629L10.4522 7.62663H10.7875L10.8911 7.30772L10.9838 7.59302Z" fill="white"/>
<path d="M1.49472 1.16511L1.3911 0.846191L1.28748 1.16511H0.952148L1.22344 1.36221L1.11981 1.68112L1.3911 1.48402L1.66238 1.68112L1.55876 1.36221L1.83005 1.16511H1.49472Z" fill="white"/>
<path d="M1.49472 2.78049L1.3911 2.46158L1.28748 2.78049H0.952148L1.22344 2.9776L1.11981 3.29651L1.3911 3.09941L1.66238 3.29651L1.55876 2.9776L1.83005 2.78049H1.49472Z" fill="white"/>
<path d="M1.3911 4.07694L1.49473 4.39588H1.83005L1.55876 4.59297L1.66238 4.91188L1.3911 4.71479L1.11981 4.91188L1.22343 4.59297L0.952148 4.39588H1.28747L1.3911 4.07694Z" fill="white"/>
<path d="M1.49472 6.01126L1.3911 5.69235L1.28748 6.01126H0.952148L1.22344 6.20837L1.11981 6.52729L1.3911 6.33018L1.66238 6.52729L1.55876 6.20837L1.83005 6.01126H1.49472Z" fill="white"/>
<path d="M1.3911 7.30772L1.49472 7.62663H1.83005L1.55876 7.82374L1.66238 8.14266L1.3911 7.94556L1.11981 8.14266L1.22344 7.82374L0.952148 7.62663H1.28748L1.3911 7.30772Z" fill="white"/>
<path d="M2.44472 1.9728L2.3411 1.65388L2.23747 1.9728H1.90215L2.17343 2.1699L2.06981 2.48882L2.3411 2.29172L2.61238 2.48882L2.50876 2.1699L2.78005 1.9728H2.44472Z" fill="white"/>
<path d="M2.3411 3.26927L2.44472 3.58819H2.78005L2.50876 3.78528L2.61238 4.10419L2.3411 3.9071L2.06981 4.10419L2.17343 3.78528L1.90215 3.58819H2.23747L2.3411 3.26927Z" fill="white"/>
<path d="M2.44472 5.20357L2.3411 4.88467L2.23747 5.20357H1.90215L2.17343 5.40067L2.06981 5.71957L2.3411 5.52248L2.61238 5.71957L2.50876 5.40067L2.78005 5.20357H2.44472Z" fill="white"/>
<path d="M2.3411 6.50004L2.44471 6.81894H2.78005L2.50876 7.01605L2.61238 7.33498L2.3411 7.13787L2.06981 7.33498L2.17343 7.01605L1.90215 6.81894H2.23748L2.3411 6.50004Z" fill="white"/>
<path d="M3.39471 1.16511L3.29109 0.846191L3.18747 1.16511H2.85214L3.12343 1.36221L3.01981 1.68112L3.29109 1.48402L3.56238 1.68112L3.45876 1.36221L3.73004 1.16511H3.39471Z" fill="white"/>
<path d="M3.29109 2.46158L3.39471 2.78049H3.73004L3.45876 2.97759L3.56238 3.29651L3.29109 3.09941L3.01981 3.29651L3.12343 2.9776L2.85214 2.78049H3.18747L3.29109 2.46158Z" fill="white"/>
<path d="M3.39472 4.39588L3.29109 4.07694L3.18746 4.39588H2.85214L3.12343 4.59297L3.01981 4.91188L3.29109 4.71479L3.56238 4.91188L3.45876 4.59297L3.73004 4.39588H3.39472Z" fill="white"/>
<path d="M3.29109 5.69235L3.39471 6.01126H3.73004L3.45875 6.20837L3.56238 6.52729L3.29109 6.33018L3.01981 6.52729L3.12343 6.20837L2.85214 6.01126H3.18747L3.29109 5.69235Z" fill="white"/>
<path d="M3.39471 7.62663L3.29109 7.30772L3.18747 7.62663H2.85214L3.12343 7.82374L3.01981 8.14266L3.29109 7.94556L3.56238 8.14266L3.45875 7.82374L3.73004 7.62663H3.39471Z" fill="white"/>
<path d="M4.2411 1.65388L4.34472 1.9728H4.68004L4.40876 2.16989L4.51238 2.48882L4.24108 2.29171L3.96979 2.48882L4.07342 2.1699L3.80213 1.9728H4.13747L4.2411 1.65388Z" fill="white"/>
<path d="M4.34472 3.58819L4.2411 3.26927L4.13747 3.58819H3.80213L4.07342 3.78528L3.96979 4.10419L4.24108 3.90709L4.51238 4.10419L4.40876 3.78527L4.68004 3.58819H4.34472Z" fill="white"/>
<path d="M4.2411 4.88467L4.34472 5.20357H4.68004L4.40876 5.40066L4.51238 5.71957L4.24108 5.52247L3.96979 5.71957L4.07342 5.40067L3.80213 5.20357H4.13747L4.2411 4.88467Z" fill="white"/>
<path d="M4.34472 6.81894L4.2411 6.50004L4.13747 6.81894H3.80213L4.07342 7.01605L3.96979 7.33498L4.24108 7.13787L4.51238 7.33498L4.40876 7.01604L4.68004 6.81894H4.34472Z" fill="white"/>
<path d="M5.1911 0.846191L5.29472 1.16511H5.63004L5.35877 1.36221L5.46239 1.68112L5.1911 1.48402L4.91982 1.68112L5.02344 1.36221L4.75217 1.16511H5.08748L5.1911 0.846191Z" fill="white"/>
<path d="M5.29472 2.78049L5.1911 2.46158L5.08748 2.78049H4.75217L5.02344 2.97759L4.91982 3.29651L5.1911 3.09941L5.46239 3.29651L5.35877 2.97759L5.63004 2.78049H5.29472Z" fill="white"/>
<path d="M5.1911 4.07694L5.29473 4.39588H5.63004L5.35877 4.59297L5.46239 4.91188L5.1911 4.71478L4.91982 4.91188L5.02344 4.59297L4.75217 4.39588H5.08748L5.1911 4.07694Z" fill="white"/>
<path d="M5.29472 6.01126L5.1911 5.69235L5.08749 6.01126H4.75217L5.02345 6.20836L4.91982 6.52729L5.1911 6.33018L5.46239 6.52729L5.35876 6.20836L5.63004 6.01126H5.29472Z" fill="white"/>
<path d="M5.1911 7.30772L5.29472 7.62663H5.63004L5.35876 7.82374L5.46239 8.14266L5.1911 7.94555L4.91982 8.14266L5.02345 7.82374L4.75217 7.62663H5.08749L5.1911 7.30772Z" fill="white"/>
<path d="M6.24472 1.9728L6.1411 1.65388L6.03748 1.9728H5.70216L5.97344 2.1699L5.86982 2.48882L6.1411 2.29171L6.41238 2.48882L6.30876 2.1699L6.58004 1.9728H6.24472Z" fill="white"/>
<path d="M6.1411 3.26927L6.24472 3.58819H6.58004L6.30876 3.78528L6.41238 4.10419L6.1411 3.9071L5.86982 4.10419L5.97344 3.78528L5.70216 3.58819H6.03748L6.1411 3.26927Z" fill="white"/>
<path d="M6.24472 5.20357L6.1411 4.88467L6.03748 5.20357H5.70216L5.97344 5.40067L5.86982 5.71957L6.1411 5.52248L6.41238 5.71957L6.30876 5.40067L6.58004 5.20357H6.24472Z" fill="white"/>
<path d="M6.1411 6.50004L6.24472 6.81894H6.58004L6.30876 7.01605L6.41238 7.33498L6.1411 7.13787L5.86982 7.33498L5.97344 7.01605L5.70216 6.81894H6.03748L6.1411 6.50004Z" fill="white"/>
<path d="M7.19472 1.16511L7.0911 0.846191L6.98748 1.16511H6.65213L6.92343 1.36222L6.81982 1.68112L7.09109 1.48403L7.36238 1.68112L7.25876 1.36221L7.53004 1.16511H7.19472Z" fill="white"/>
<path d="M7.0911 2.46158L7.19472 2.78049H7.53004L7.25876 2.97759L7.36238 3.29651L7.09109 3.09941L6.81982 3.29651L6.92343 2.9776L6.65213 2.78049H6.98748L7.0911 2.46158Z" fill="white"/>
<path d="M7.19473 4.39588L7.0911 4.07694L6.98747 4.39588H6.65213L6.92343 4.59298L6.81982 4.91188L7.09109 4.71479L7.36238 4.91188L7.25876 4.59297L7.53004 4.39588H7.19473Z" fill="white"/>
<path d="M7.0911 5.69235L7.19472 6.01126H7.53004L7.25876 6.20836L7.36238 6.52729L7.09109 6.33019L6.81982 6.52729L6.92344 6.20838L6.65213 6.01126H6.98748L7.0911 5.69235Z" fill="white"/>
<path d="M7.19472 7.62663L7.0911 7.30772L6.98748 7.62663H6.65213L6.92344 7.82375L6.81982 8.14266L7.09109 7.94556L7.36238 8.14266L7.25876 7.82374L7.53004 7.62663H7.19472Z" fill="white"/>
<path d="M8.0411 1.65388L8.14472 1.9728H8.48004L8.20876 2.1699L8.31238 2.48882L8.0411 2.29172L7.76982 2.48882L7.87344 2.16991L7.60213 1.9728H7.93748L8.0411 1.65388Z" fill="white"/>
<path d="M8.14472 3.58819L8.0411 3.26927L7.93748 3.58819H7.60213L7.87344 3.78529L7.76982 4.10419L8.0411 3.9071L8.31238 4.10419L8.20876 3.78528L8.48004 3.58819H8.14472Z" fill="white"/>
<path d="M8.0411 4.88467L8.14472 5.20357H8.48004L8.20876 5.40067L8.31238 5.71957L8.0411 5.52248L7.76982 5.71957L7.87344 5.40068L7.60213 5.20357H7.93748L8.0411 4.88467Z" fill="white"/>
<path d="M8.14472 6.81894L8.0411 6.50004L7.93749 6.81894H7.60213L7.87344 7.01606L7.76982 7.33498L8.0411 7.13787L8.31238 7.33498L8.20876 7.01605L8.48004 6.81894H8.14472Z" fill="white"/>
<path d="M8.9911 0.846191L9.09472 1.16511H9.43004L9.15876 1.36221L9.26238 1.68112L8.9911 1.48402L8.71982 1.68112L8.82344 1.36221L8.55216 1.16511H8.88748L8.9911 0.846191Z" fill="white"/>
<path d="M9.09472 2.78049L8.9911 2.46158L8.88748 2.78049H8.55216L8.82344 2.97759L8.71982 3.29651L8.9911 3.09941L9.26238 3.29651L9.15876 2.97759L9.43004 2.78049H9.09472Z" fill="white"/>
<path d="M8.9911 4.07694L9.09473 4.39588H9.43004L9.15876 4.59297L9.26238 4.91188L8.9911 4.71478L8.71982 4.91188L8.82344 4.59297L8.55216 4.39588H8.88747L8.9911 4.07694Z" fill="white"/>
<path d="M9.09472 6.01126L8.9911 5.69235L8.88748 6.01126H8.55216L8.82344 6.20836L8.71982 6.52729L8.9911 6.33018L9.26238 6.52729L9.15876 6.20836L9.43004 6.01126H9.09472Z" fill="white"/>
<path d="M8.9911 7.30772L9.09472 7.62663H9.43004L9.15876 7.82374L9.26238 8.14266L8.9911 7.94555L8.71982 8.14266L8.82344 7.82374L8.55216 7.62663H8.88748L8.9911 7.30772Z" fill="white"/>
<path d="M10.0447 1.9728L9.9411 1.65388L9.83748 1.9728H9.50217L9.77344 2.1699L9.66982 2.48882L9.9411 2.29171L10.2124 2.48882L10.1088 2.1699L10.38 1.9728H10.0447Z" fill="white"/>
<path d="M9.9411 3.26927L10.0447 3.58819H10.38L10.1088 3.78528L10.2124 4.10419L9.9411 3.9071L9.66982 4.10419L9.77344 3.78528L9.50217 3.58819H9.83748L9.9411 3.26927Z" fill="white"/>
<path d="M10.0447 5.20357L9.9411 4.88467L9.83748 5.20357H9.50217L9.77344 5.40067L9.66982 5.71957L9.9411 5.52248L10.2124 5.71957L10.1088 5.40067L10.38 5.20357H10.0447Z" fill="white"/>
<path d="M9.9411 6.50004L10.0447 6.81894H10.38L10.1088 7.01605L10.2124 7.33498L9.9411 7.13787L9.66982 7.33498L9.77345 7.01605L9.50217 6.81894H9.83749L9.9411 6.50004Z" fill="white"/>
<path d="M10.9947 1.16511L10.8911 0.846191L10.7875 1.16511H10.4522L10.7234 1.36221L10.6198 1.68112L10.8911 1.48402L11.1624 1.68112L11.0588 1.36221L11.33 1.16511H10.9947Z" fill="white"/>
<path d="M10.8911 2.46158L10.9947 2.78049H11.33L11.0588 2.97759L11.1624 3.29651L10.8911 3.09941L10.6198 3.29651L10.7234 2.97759L10.4522 2.78049H10.7875L10.8911 2.46158Z" fill="white"/>
<path d="M10.9947 4.39588L10.8911 4.07694L10.7875 4.39588H10.4522L10.7234 4.59297L10.6198 4.91188L10.8911 4.71478L11.1624 4.91188L11.0588 4.59297L11.33 4.39588H10.9947Z" fill="white"/>
<path d="M10.8911 5.69235L10.9947 6.01126H11.33L11.0588 6.20836L11.1624 6.52729L10.8911 6.33018L10.6198 6.52729L10.7234 6.20836L10.4522 6.01126H10.7875L10.8911 5.69235Z" fill="white"/>
</g>
</svg>
