<svg viewBox="0 0 640 480" fill="none" xmlns="http://www.w3.org/2000/svg">
<g clip-path="url(#clip0_423_676)">
<mask id="mask0_423_676" style="mask-type:alpha" maskUnits="userSpaceOnUse" x="-1" y="0" width="641" height="480">
<path d="M640 0L-1 480L-0.49961 0H640Z" fill="#D9D9D9"/>
</mask>
<g mask="url(#mask0_423_676)">
<path d="M912 0H0V480H912V0Z" fill="#C8102E"/>
<path d="M0 55.3845H912ZM912 129.231H0ZM0 203.077H912ZM912 276.923H0ZM0 350.769H912ZM912 424.615H0Z" fill="black"/>
<path d="M0 55.3845H912M912 129.231H0M0 203.077H912M912 276.923H0M0 350.769H912M912 424.615H0" stroke="white" stroke-width="37"/>
<path d="M364.8 0H0V258.462H364.8V0Z" fill="#3C3B6E"/>
<path d="M30.3999 11.0769L39.081 37.7947L16.3535 21.2822H44.4463L21.7188 37.7947L30.3999 11.0769Z" fill="white"/>
<path d="M30.3999 62.7693L39.081 89.4871L16.3535 72.9746H44.4463L21.7188 89.4871L30.3999 62.7693Z" fill="white"/>
<path d="M30.3999 114.461L39.081 141.179L16.3535 124.667H44.4463L21.7188 141.179L30.3999 114.461Z" fill="white"/>
<path d="M30.3999 166.154L39.081 192.872L16.3535 176.359H44.4463L21.7188 192.872L30.3999 166.154Z" fill="white"/>
<path d="M30.3999 217.846L39.081 244.564L16.3535 228.051H44.4463L21.7188 244.564L30.3999 217.846Z" fill="white"/>
<path d="M60.7998 36.9231L69.4809 63.6409L46.7534 47.1284H74.8462L52.1187 63.6409L60.7998 36.9231Z" fill="white"/>
<path d="M60.7998 88.6155L69.4809 115.333L46.7534 98.8208H74.8462L52.1187 115.333L60.7998 88.6155Z" fill="white"/>
<path d="M60.7998 140.308L69.4809 167.025L46.7534 150.513H74.8462L52.1187 167.025L60.7998 140.308Z" fill="white"/>
<path d="M60.7998 192L69.4809 218.718L46.7534 202.205H74.8462L52.1187 218.718L60.7998 192Z" fill="white"/>
<path d="M91.1997 11.0769L99.8808 37.7947L77.1533 21.2822H105.246L82.5186 37.7947L91.1997 11.0769Z" fill="white"/>
<path d="M91.1997 62.7693L99.8808 89.4871L77.1533 72.9746H105.246L82.5186 89.4871L91.1997 62.7693Z" fill="white"/>
<path d="M91.1997 114.461L99.8808 141.179L77.1533 124.667H105.246L82.5186 141.179L91.1997 114.461Z" fill="white"/>
<path d="M91.1997 166.154L99.8808 192.872L77.1533 176.359H105.246L82.5186 192.872L91.1997 166.154Z" fill="white"/>
<path d="M91.1997 217.846L99.8808 244.564L77.1533 228.051H105.246L82.5186 244.564L91.1997 217.846Z" fill="white"/>
<path d="M121.6 36.9231L130.281 63.6409L107.553 47.1284H135.646L112.918 63.6409L121.6 36.9231Z" fill="white"/>
<path d="M121.6 88.6155L130.281 115.333L107.553 98.8208H135.646L112.918 115.333L121.6 88.6155Z" fill="white"/>
<path d="M121.6 140.308L130.281 167.025L107.553 150.513H135.646L112.918 167.025L121.6 140.308Z" fill="white"/>
<path d="M121.6 192L130.281 218.718L107.553 202.205H135.646L112.918 218.718L121.6 192Z" fill="white"/>
<path d="M152 11.0769L160.681 37.7947L137.954 21.2822H166.046L143.319 37.7947L152 11.0769Z" fill="white"/>
<path d="M152 62.7693L160.681 89.4871L137.954 72.9746H166.046L143.319 89.4871L152 62.7693Z" fill="white"/>
<path d="M152 114.461L160.681 141.179L137.954 124.667H166.046L143.319 141.179L152 114.461Z" fill="white"/>
<path d="M152 166.154L160.681 192.872L137.954 176.359H166.046L143.319 192.872L152 166.154Z" fill="white"/>
<path d="M152 217.846L160.681 244.564L137.954 228.051H166.046L143.319 244.564L152 217.846Z" fill="white"/>
<path d="M182.4 36.9231L191.081 63.6409L168.354 47.1284H196.446L173.719 63.6409L182.4 36.9231Z" fill="white"/>
<path d="M182.4 88.6155L191.081 115.333L168.354 98.8208H196.446L173.719 115.333L182.4 88.6155Z" fill="white"/>
<path d="M182.4 140.308L191.081 167.025L168.354 150.513H196.446L173.719 167.025L182.4 140.308Z" fill="white"/>
<path d="M182.4 192L191.081 218.718L168.354 202.205H196.446L173.719 218.718L182.4 192Z" fill="white"/>
<path d="M212.8 11.0769L221.481 37.7947L198.753 21.2822H226.846L204.119 37.7947L212.8 11.0769Z" fill="white"/>
<path d="M212.8 62.7693L221.481 89.4871L198.753 72.9746H226.846L204.119 89.4871L212.8 62.7693Z" fill="white"/>
<path d="M212.8 114.461L221.481 141.179L198.753 124.667H226.846L204.119 141.179L212.8 114.461Z" fill="white"/>
<path d="M212.8 166.154L221.481 192.872L198.753 176.359H226.846L204.119 192.872L212.8 166.154Z" fill="white"/>
<path d="M212.8 217.846L221.481 244.564L198.753 228.051H226.846L204.119 244.564L212.8 217.846Z" fill="white"/>
<path d="M243.2 36.9231L251.881 63.6409L229.153 47.1284H257.246L234.519 63.6409L243.2 36.9231Z" fill="white"/>
<path d="M243.2 88.6155L251.881 115.333L229.153 98.8208H257.246L234.519 115.333L243.2 88.6155Z" fill="white"/>
<path d="M243.2 140.308L251.881 167.025L229.153 150.513H257.246L234.519 167.025L243.2 140.308Z" fill="white"/>
<path d="M243.2 192L251.881 218.718L229.153 202.205H257.246L234.519 218.718L243.2 192Z" fill="white"/>
<path d="M273.6 11.0769L282.281 37.7947L259.554 21.2822H287.646L264.919 37.7947L273.6 11.0769Z" fill="white"/>
<path d="M273.6 62.7693L282.281 89.4871L259.554 72.9746H287.646L264.919 89.4871L273.6 62.7693Z" fill="white"/>
<path d="M273.6 114.461L282.281 141.179L259.554 124.667H287.646L264.919 141.179L273.6 114.461Z" fill="white"/>
<path d="M273.6 166.154L282.281 192.872L259.554 176.359H287.646L264.919 192.872L273.6 166.154Z" fill="white"/>
<path d="M273.6 217.846L282.281 244.564L259.554 228.051H287.646L264.919 244.564L273.6 217.846Z" fill="white"/>
<path d="M304 36.9231L312.681 63.6409L289.954 47.1284H318.046L295.319 63.6409L304 36.9231Z" fill="white"/>
<path d="M304 88.6155L312.681 115.333L289.954 98.8208H318.046L295.319 115.333L304 88.6155Z" fill="white"/>
<path d="M304 140.308L312.681 167.025L289.954 150.513H318.046L295.319 167.025L304 140.308Z" fill="white"/>
<path d="M304 192L312.681 218.718L289.954 202.205H318.046L295.319 218.718L304 192Z" fill="white"/>
<path d="M334.4 11.0769L343.081 37.7947L320.354 21.2822H348.446L325.719 37.7947L334.4 11.0769Z" fill="white"/>
<path d="M334.4 62.7693L343.081 89.4871L320.354 72.9746H348.446L325.719 89.4871L334.4 62.7693Z" fill="white"/>
<path d="M334.4 114.461L343.081 141.179L320.354 124.667H348.446L325.719 141.179L334.4 114.461Z" fill="white"/>
<path d="M334.4 166.154L343.081 192.872L320.354 176.359H348.446L325.719 192.872L334.4 166.154Z" fill="white"/>
<path d="M334.4 217.846L343.081 244.564L320.354 228.051H348.446L325.719 244.564L334.4 217.846Z" fill="white"/>
</g>
<mask id="mask1_423_676" style="mask-type:alpha" maskUnits="userSpaceOnUse" x="16" y="6" width="625" height="475">
<path d="M640 8L18 480H640V8Z" fill="#D9D9D9" stroke="black"/>
</mask>
<g mask="url(#mask1_423_676)">
<g clip-path="url(#clip1_423_676)">
<path d="M0 0H640V480H0V0Z" fill="#012169"/>
<path d="M75 0L319 181L562 0H640V62L400 241L640 419V480H560L320 301L81 480H0V420L239 242L0 64V0H75Z" fill="white"/>
<path d="M424 281L640 440V480L369 281H424ZM240 301L246 336L54 480H0L240 301ZM640 0V3L391 191L393 147L590 0H640ZM0 0L239 176H179L0 42V0Z" fill="#C8102E"/>
<path d="M241 0V480H401V0H241ZM0 160V320H640V160H0Z" fill="white"/>
<path d="M0 193V289H640V193H0ZM273 0V480H369V0H273Z" fill="#C8102E"/>
</g>
</g>
</g>
<defs>
<clipPath id="clip0_423_676">
<rect width="640" height="480" fill="white"/>
</clipPath>
<clipPath id="clip1_423_676">
<rect width="640" height="480" fill="white"/>
</clipPath>
</defs>
</svg>
