<svg width="21" height="15" viewBox="0 0 21 15" fill="none" xmlns="http://www.w3.org/2000/svg">
<g>
<path fill-rule="evenodd" clip-rule="evenodd" d="M0.440918 0H20.4409V1.66562H0.440918V0Z" fill="#0D5EAF"/>
<path fill-rule="evenodd" clip-rule="evenodd" d="M0.440918 1.66565H20.4409V3.3344H0.440918V1.66565Z" fill="white"/>
<path fill-rule="evenodd" clip-rule="evenodd" d="M0.440918 3.33435H20.4409V4.99998H0.440918V3.33435Z" fill="#0D5EAF"/>
<path fill-rule="evenodd" clip-rule="evenodd" d="M0.440918 5H20.4409V6.66563H0.440918V5Z" fill="white"/>
<path d="M0.440918 0H8.77529V8.33438H0.440918V0Z" fill="#0D5EAF"/>
<path fill-rule="evenodd" clip-rule="evenodd" d="M0.440918 6.66565H20.4409V8.3344H0.440918V6.66565Z" fill="#0D5EAF"/>
<path fill-rule="evenodd" clip-rule="evenodd" d="M0.440918 8.33435H20.4409V9.99998H0.440918V8.33435Z" fill="white"/>
<path fill-rule="evenodd" clip-rule="evenodd" d="M0.440918 10H20.4409V11.6656H0.440918V10Z" fill="#0D5EAF"/>
<path fill-rule="evenodd" clip-rule="evenodd" d="M0.440918 11.6656H20.4409V13.3344H0.440918V11.6656Z" fill="white"/>
<path fill-rule="evenodd" clip-rule="evenodd" d="M3.77539 0H5.44102V8.33438H3.77539V0Z" fill="white"/>
<path fill-rule="evenodd" clip-rule="evenodd" d="M0.440918 3.33435H8.77529V4.99998H0.440918V3.33435Z" fill="white"/>
<path d="M0.440918 13.3344H20.4409V15H0.440918V13.3344Z" fill="#0D5EAF"/>
</g>
</svg>
