<svg width="21" height="15" viewBox="0 0 21 15" fill="none" xmlns="http://www.w3.org/2000/svg">
<g>
<path fill-rule="evenodd" clip-rule="evenodd" d="M0.440918 0H20.4409V15H0.440918V0Z" fill="#E30A17"/>
<path fill-rule="evenodd" clip-rule="evenodd" d="M13.1597 7.73442C13.1597 9.80317 11.4534 11.4813 9.34717 11.4813C7.24092 11.4813 5.53467 9.80317 5.53467 7.7313C5.53467 5.65942 7.24092 3.98755 9.34717 3.98755C11.4534 3.98755 13.1597 5.66567 13.1597 7.73442Z" fill="white"/>
<path fill-rule="evenodd" clip-rule="evenodd" d="M13.3474 7.73442C13.3474 9.39067 11.9849 10.7313 10.3005 10.7313C8.61611 10.7313 7.25049 9.38755 7.25049 7.7313C7.25049 6.07505 8.61611 4.73755 10.3005 4.73755C11.9849 4.73755 13.3505 6.07817 13.3505 7.73442H13.3474Z" fill="#E30A17"/>
<path fill-rule="evenodd" clip-rule="evenodd" d="M13.9005 5.98433L13.8692 7.3687L12.5786 7.7187L13.8536 8.17183L13.8224 9.4437L14.6505 8.44995L15.9067 8.88745L15.1817 7.82183L16.0661 6.76245L14.7067 7.13745L13.9005 5.9812V5.98433Z" fill="white"/>
</g>
</svg>
