<svg viewBox="0 0 80 29" fill="none" xmlns="http://www.w3.org/2000/svg">
<path d="M31.856 20.3491V7.85685H34.6663L40.2698 15.4225V7.85685H43.0716V20.3491H40.1328L34.6663 12.912V20.3491H31.856Z" fill="white"/>
<path d="M50.8087 20.4947C49.9002 20.4982 48.9973 20.3535 48.1354 20.0663C47.3098 19.8253 46.5775 19.3381 46.0362 18.6697C45.4573 18.0474 44.9828 17.3357 44.6311 16.5619C44.3551 15.7477 44.2133 14.8941 44.2113 14.0344C44.1879 13.1727 44.3305 12.3146 44.6311 11.5068C44.9145 10.7044 45.3982 9.98773 46.0362 9.42474C46.654 8.84415 47.3632 8.36939 48.1354 8.01957C49.8693 7.45118 51.7394 7.45118 53.4733 8.01957C54.2995 8.2691 55.033 8.75812 55.5811 9.42474C56.1563 10.0449 56.6279 10.7537 56.9777 11.5239C57.2547 12.3322 57.3994 13.1799 57.4061 14.0344C57.4307 14.8961 57.2881 15.7544 56.9862 16.5619C56.7034 17.3698 56.2234 18.0943 55.5896 18.6697C54.965 19.2433 54.2536 19.7146 53.4819 20.0663C52.6203 20.3544 51.7172 20.4991 50.8087 20.4947ZM50.8087 17.5473C51.4059 17.5438 51.9936 17.3969 52.5223 17.1189C53.0008 16.8052 53.3881 16.3707 53.6447 15.8594C53.9237 15.2914 54.0688 14.6671 54.0688 14.0344C54.0688 13.4016 53.9237 12.7773 53.6447 12.2094C53.3881 11.698 53.0008 11.2635 52.5223 10.9499C52.0086 10.6351 51.4096 10.4883 50.8087 10.53C50.2116 10.5267 49.623 10.6709 49.095 10.9499C48.6196 11.2646 48.2355 11.699 47.9812 12.2094C47.7022 12.7773 47.5571 13.4016 47.5571 14.0344C47.5571 14.6671 47.7022 15.2914 47.9812 15.8594C48.2401 16.3791 48.6336 16.82 49.1208 17.136C49.6305 17.4366 50.2178 17.5797 50.8087 17.5473Z" fill="white"/>
<path d="M58.3827 7.85657H63.5749C64.7098 7.84131 65.827 8.13767 66.8051 8.71338C67.7481 9.23381 68.5259 10.0087 69.0499 10.9496C69.6302 11.9258 69.9269 13.0444 69.9067 14.1798C69.9269 15.3152 69.6302 16.4338 69.0499 17.41C68.5322 18.3469 67.7638 19.1213 66.8308 19.6462C65.8547 20.2265 64.7361 20.5232 63.6007 20.503H58.3827V7.85657ZM63.5749 10.6669H61.6129V17.5214H63.5749C64.0008 17.558 64.4292 17.4879 64.8211 17.3174C65.2131 17.1468 65.5563 16.8812 65.8198 16.5446C66.4157 15.8413 66.722 14.9377 66.6766 14.017C66.6965 13.1 66.3932 12.2053 65.8198 11.4894C65.2139 10.9187 64.407 10.6107 63.5749 10.6326V10.6669Z" fill="white"/>
<path d="M70.875 20.3491V7.85685H79.683V10.5301H73.9595V12.6293H79.0147V15.2939H74.1052V17.6844H80V20.3491H70.875Z" fill="white"/>
<path d="M13.332 15.8601C13.611 15.292 13.7562 14.6678 13.7562 14.0344C13.7562 13.4018 13.611 12.7776 13.332 12.2095C13.0753 11.6983 12.6881 11.264 12.2095 10.9502C12.1108 10.89 12.0087 10.8356 11.9041 10.7879C11.4652 10.5862 10.9812 10.4967 10.4959 10.5302C10.2865 10.5294 10.0781 10.5461 9.87315 10.5804C9.49349 10.6448 9.12512 10.7695 8.78227 10.9502C8.5072 11.1418 8.26455 11.3744 8.06206 11.6388C7.9263 11.8162 7.80853 12.007 7.71126 12.2095C7.43222 12.7776 7.28704 13.4018 7.28704 14.0344C7.28704 14.6678 7.43222 15.292 7.71126 15.8601C7.96772 16.3781 8.35826 16.819 8.84231 17.1361C9.35647 17.4499 9.95515 17.5963 10.5559 17.5562C11.1529 17.5604 11.7418 17.4156 12.2695 17.1361L13.332 15.8601Z" fill="white"/>
<path fill-rule="evenodd" clip-rule="evenodd" d="M21.6172 28.206H6.59737C5.7322 28.2068 4.87518 28.0378 4.07527 27.7082C3.27557 27.3776 2.54846 26.8932 1.93598 26.2824C1.32329 25.6716 0.836939 24.9453 0.504759 24.1462C0.172579 23.348 0.00105073 22.4912 4.81864e-06 21.626V6.59758C-0.00104109 5.73241 0.168187 4.87476 0.498275 4.07569C0.828363 3.27578 1.31283 2.54867 1.92385 1.93618C2.23197 1.6266 2.56917 1.34964 2.93022 1.10866C3.2852 0.871871 3.6634 0.669383 4.05959 0.504548C4.85845 0.172368 5.71505 0.000839817 6.58022 3.09147e-06H21.6172C22.4826 -0.000833634 23.3394 0.168185 24.1393 0.498691C24.9392 0.828361 25.6661 1.31282 26.2788 1.92363C26.8913 2.53444 27.3776 3.26072 27.7098 4.05979C28.042 4.85887 28.2135 5.71484 28.2146 6.58001V21.6176C28.188 23.358 27.4841 25.0198 26.2525 26.2497C25.0206 27.4797 23.358 28.1817 21.6172 28.206ZM8.93686 20.3483C8.57163 20.2789 8.21079 20.1843 7.85685 20.0663C7.03142 19.8254 6.29908 19.3384 5.75772 18.6699C5.21071 18.0231 4.73922 17.316 4.35265 16.5621C4.07674 15.748 3.93491 14.8945 3.93282 14.0344C3.90939 13.1734 4.05206 12.3149 4.35265 11.5075C4.63609 10.7051 5.11972 9.98799 5.75772 9.42487C6.01334 9.18139 6.28486 8.95631 6.57018 8.75131C6.76221 8.61325 6.96051 8.4844 7.16425 8.36474C7.3885 8.23254 7.61964 8.11122 7.85685 8.00244C9.59076 7.43431 11.4608 7.43431 13.195 8.00244C14.0231 8.25681 14.7569 8.75215 15.3027 9.42487C15.8779 10.0457 16.3494 10.7544 16.6992 11.5242C16.8169 11.8639 16.9113 12.2103 16.9818 12.5618C17.0788 13.0462 17.1307 13.5391 17.1361 14.0344C17.1608 14.8962 17.0182 15.7547 16.7163 16.5621C16.6113 16.8625 16.4789 17.1512 16.3216 17.4248C16.0555 17.8883 15.7179 18.3084 15.3198 18.6699C15.0546 18.9133 14.7736 19.1384 14.4791 19.3434C14.08 19.622 13.656 19.8639 13.2119 20.0663C12.3476 20.3559 11.4416 20.5006 10.5302 20.4947C9.99469 20.4973 9.46127 20.4479 8.93686 20.3483ZM23.4335 20.4947H20.2119V11.3778L18.2412 12.2346L17.6844 9.42487L21.3344 7.58241H23.4335V20.4947Z" fill="white"/>
</svg>
