<svg viewBox="0 0 600 141" fill="none" xmlns="http://www.w3.org/2000/svg">
<g clip-path="url(#clip0_352_708)">
<path d="M87.1 102.201L62.1 113.101V112.001C57.3 113.201 51.9 113.901 46.9 114.201C23.3 114.001 4.7 101.601 4.4 87.0005V81.6005C12.1 92.8005 27.9 100.401 46.9 100.101C53.3 100.401 59.9 99.4005 65.4 97.9005L67.6 92.5005C61.1 94.5005 53.9 95.8005 46.9 95.8005C23.3 95.8005 4.7 83.5005 4.4 68.6005V64.2005C12.1 74.6005 27.9 82.1005 46.9 81.6005C55.5 82.1005 63.8 80.3005 70.9 77.2005L72 71.8005C65.1 75.4005 56.2 77.5005 47 77.2005C23.4 77.5005 4.8 65.2005 4.5 50.0005V45.6005C12.2 56.2005 28 63.8005 47 64.1005C57.8 63.8005 68 60.9005 76.4 56.5005L77.5 50.0005C69.9 55.6005 58.8 59.3005 47 59.8005C23.4 59.3005 4.8 46.9005 4.5 31.5005C4.7 16.8005 23.4 4.50052 47 4.30052C61 4.50052 74.1 9.40053 81.8 17.4005L82.6 18.7005H88.1L87.3 17.4005C79.6 6.90053 64.1 0.000521317 47 0.000521317C20.8 -0.0994787 0 14.2005 0 31.4005V32.5005V88.0005C0.9 104.801 21.2 118.501 46.8 118.501C63.7 118.601 79 111.901 87.1 102.201Z" fill="white"/>
<path d="M76.9 140.5L85.7 103.1L60.4 114.1L75.8 49.3004H46.2L53.9 17.4004H148.4L140.7 49.3004H109.9L103.3 66.9004L137.4 52.6004L76.9 140.5ZM92.3 95.5004L87.9 117.5L124.2 62.6004L94.5 75.8004L107.7 45.0004H137.4L142.9 21.9004H57.1L51.6 45.0004H81.3L67 106.5L92.3 95.5004Z" fill="#FABF2C"/>
<path d="M211.1 38.9005C211.2 42.4005 210.1 45.1005 207.9 47.1005C205.7 49.1005 202.7 50.1005 198.8 50.1005C194.9 50.1005 191.7 48.8005 189.3 46.3005C186.9 43.8005 185.7 40.5005 185.7 36.5005V30.0005C185.7 26.0005 186.9 22.7005 189.2 20.2005C191.6 17.7005 194.7 16.4005 198.5 16.4005C202.5 16.4005 205.6 17.4005 207.9 19.3005C210.2 21.3005 211.3 24.0005 211.2 27.5005V27.6005H204.8C204.8 25.5005 204.3 23.9005 203.3 22.9005C202.3 21.9005 200.7 21.4005 198.6 21.4005C196.6 21.4005 195.1 22.2005 194 23.8005C192.9 25.4005 192.3 27.4005 192.3 29.9005V36.5005C192.3 39.0005 192.9 41.1005 194 42.7005C195.2 44.3005 196.8 45.1005 198.9 45.1005C200.9 45.1005 202.3 44.6005 203.3 43.6005C204.3 42.6005 204.8 41.0005 204.8 38.9005H211.1ZM247.3 36.2005C247.3 40.2005 246 43.6005 243.5 46.2005C241 48.8005 237.7 50.1005 233.6 50.1005C229.5 50.1005 226.3 48.8005 223.7 46.2005C221.2 43.6005 219.9 40.2005 219.9 36.2005V30.3005C219.9 26.3005 221.2 23.0005 223.7 20.3005C226.2 17.7005 229.5 16.3005 233.5 16.3005C237.6 16.3005 240.9 17.6005 243.4 20.3005C246 22.9005 247.2 26.3005 247.2 30.3005V36.2005H247.3ZM240.7 30.2005C240.7 27.6005 240.1 25.6005 238.8 23.9005C237.5 22.3005 235.8 21.4005 233.5 21.4005C231.3 21.4005 229.5 22.2005 228.3 23.9005C227.1 25.5005 226.4 27.6005 226.4 30.2005V36.1005C226.4 38.7005 227 40.8005 228.3 42.5005C229.5 44.1005 231.3 45.0005 233.5 45.0005C235.8 45.0005 237.5 44.2005 238.8 42.5005C240.1 40.9005 240.7 38.7005 240.7 36.1005V30.2005ZM264.3 49.6005H257.7V16.8005H264.3V49.6005ZM302.2 49.6005H295.6L282.4 27.5005H282.3V49.6005H275.7V16.8005H282.3L295.5 38.9005H295.6V16.8005H302.2V49.6005ZM335.3 21.9005H325.9V49.6005H319.3V21.9005H310.1V16.8005H335.3V21.9005ZM362.5 35.2005H350.3V44.6005H364.8V49.6005H343.8V16.8005H364.8V21.9005H350.4V30.1005H362.6V35.2005H362.5ZM380.8 44.6005H395.5V49.6005H374.2V16.8005H380.8V44.6005ZM423.5 35.2005H411.3V44.6005H425.8V49.6005H404.8V16.8005H425.8V21.9005H411.4V30.1005H423.6V35.2005H423.5ZM460.4 45.2005C459.4 46.5005 457.9 47.7005 455.8 48.7005C453.8 49.7005 451.2 50.2005 448 50.2005C444 50.2005 440.8 49.0005 438.3 46.5005C435.8 44.0005 434.5 40.8005 434.5 36.8005V29.9005C434.5 25.9005 435.7 22.7005 438.2 20.2005C440.6 17.7005 443.8 16.4005 447.6 16.4005C451.6 16.4005 454.7 17.4005 456.8 19.3005C458.9 21.2005 460 23.7005 459.9 26.9005V27.0005H453.7C453.7 25.3005 453.2 23.9005 452.2 22.9005C451.2 21.9005 449.7 21.4005 447.8 21.4005C445.8 21.4005 444.2 22.2005 442.9 23.7005C441.7 25.3005 441.1 27.3005 441.1 29.7005V36.6005C441.1 39.1005 441.7 41.1005 443 42.7005C444.3 44.3005 446 45.0005 448.1 45.0005C449.7 45.0005 450.9 44.8005 451.8 44.5005C452.7 44.2005 453.4 43.8005 453.9 43.3005V36.9005H447.6V32.3005H460.5V45.2005H460.4ZM477.4 36.5005V49.6005H470.8V16.8005H482.2C485.9 16.8005 488.9 17.7005 491 19.4005C493.1 21.1005 494.2 23.5005 494.2 26.5005C494.2 28.2005 493.8 29.6005 492.9 30.9005C492 32.1005 490.7 33.1005 489 33.9005C490.9 34.5005 492.3 35.4005 493.2 36.8005C494 38.1005 494.5 39.8005 494.5 41.8005V44.2005C494.5 45.1005 494.6 46.1005 494.9 47.1005C495.1 48.1005 495.6 48.8005 496.2 49.3005V49.8005H489.4C488.8 49.3005 488.4 48.5005 488.2 47.4005C488 46.3005 487.9 45.2005 487.9 44.2005V41.9005C487.9 40.3005 487.5 39.0005 486.6 38.1005C485.7 37.2005 484.4 36.7005 482.8 36.7005H477.4V36.5005ZM477.4 31.5005H482.1C483.9 31.5005 485.3 31.1005 486.2 30.3005C487.1 29.5005 487.6 28.4005 487.6 26.8005C487.6 25.3005 487.1 24.1005 486.2 23.2005C485.3 22.3005 484 21.9005 482.2 21.9005H477.4V31.5005ZM522.1 42.6005H511.5L509.3 49.7005H502.4L513.5 16.9005H520.2L531.2 49.7005H524.3L522.1 42.6005ZM513.1 37.4005H520.5L516.9 25.8005H516.8L513.1 37.4005ZM545.8 37.7005V49.6005H539.2V16.8005H551.8C555.6 16.8005 558.5 17.8005 560.7 19.7005C562.9 21.6005 563.9 24.2005 563.9 27.3005C563.9 30.4005 562.8 33.0005 560.7 34.9005C558.5 36.8005 555.6 37.8005 551.8 37.8005H545.8V37.7005ZM545.8 32.7005H551.8C553.6 32.7005 555 32.2005 556 31.2005C556.9 30.2005 557.4 28.9005 557.4 27.4005C557.4 25.8005 556.9 24.5005 556 23.5005C555.1 22.5005 553.7 22.0005 551.8 22.0005H545.8V32.7005ZM600 49.6005H593.4V36.0005H580V49.6005H573.4V16.8005H580V30.9005H593.4V16.8005H600V49.6005Z" fill="white"/>
<path d="M197.7 103.201H193.6V81.6005H186.2V78.1005H205.1V81.6005H197.7V103.201ZM225.2 103.201H221.1V91.5005C221.1 90.0005 220.8 88.9005 220.2 88.2005C219.6 87.5005 218.7 87.1005 217.4 87.1005C215.7 87.1005 214.5 87.6005 213.7 88.6005C212.9 89.6005 212.5 91.3005 212.5 93.7005V103.101H208.5V76.4005H212.5V83.2005C212.5 84.3005 212.4 85.4005 212.3 86.7005H212.6C213.1 85.8005 213.9 85.1005 214.9 84.6005C215.9 84.1005 217 83.8005 218.3 83.8005C222.9 83.8005 225.2 86.1005 225.2 90.8005V103.201ZM239.1 103.501C236.1 103.501 233.8 102.601 232.2 100.901C230.5 99.2005 229.7 96.8005 229.7 93.8005C229.7 90.7005 230.5 88.3005 232 86.5005C233.5 84.7005 235.7 83.8005 238.4 83.8005C240.9 83.8005 242.9 84.6005 244.3 86.1005C245.8 87.6005 246.5 89.7005 246.5 92.4005V94.6005H233.8C233.9 96.4005 234.4 97.9005 235.3 98.8005C236.2 99.8005 237.6 100.301 239.3 100.301C240.4 100.301 241.5 100.201 242.4 100.001C243.4 99.8005 244.4 99.4005 245.5 98.9005V102.201C244.5 102.701 243.5 103.001 242.5 103.201C241.6 103.401 240.4 103.501 239.1 103.501ZM238.4 86.9005C237.1 86.9005 236.1 87.3005 235.3 88.1005C234.5 88.9005 234.1 90.1005 233.9 91.7005H242.5C242.5 90.1005 242.1 88.9005 241.4 88.1005C240.7 87.3005 239.7 86.9005 238.4 86.9005ZM269.7 87.2005H265.1V103.201H261V87.2005H257.9V85.3005L261 84.1005V82.9005C261 80.7005 261.5 79.0005 262.6 77.9005C263.7 76.8005 265.3 76.3005 267.4 76.3005C268.8 76.3005 270.2 76.5005 271.6 77.0005L270.5 80.1005C269.5 79.8005 268.6 79.6005 267.6 79.6005C266.7 79.6005 266 79.9005 265.6 80.4005C265.2 81.0005 265 81.8005 265 82.9005V84.1005H269.6V87.2005H269.7ZM286.4 103.201L285.8 100.701H285.6C285 101.601 284.2 102.301 283.2 102.801C282.2 103.301 281 103.601 279.7 103.601C277.4 103.601 275.7 103.001 274.5 101.901C273.3 100.801 272.8 99.0005 272.8 96.7005V84.2005H276.9V95.9005C276.9 97.4005 277.2 98.4005 277.8 99.2005C278.4 99.9005 279.3 100.301 280.6 100.301C282.3 100.301 283.5 99.8005 284.3 98.8005C285.1 97.8005 285.5 96.1005 285.5 93.7005V84.2005H289.6V103.201H286.4ZM302.4 100.201C303.4 100.201 304.4 100.001 305.4 99.7005V102.701C305 102.901 304.4 103.101 303.7 103.201C303 103.301 302.3 103.401 301.5 103.401C297.7 103.401 295.8 101.401 295.8 97.4005V87.2005H293.2V85.4005L296 83.9005L297.4 79.9005H299.9V84.1005H305.3V87.2005H299.9V97.4005C299.9 98.4005 300.1 99.1005 300.6 99.6005C300.9 100.001 301.6 100.201 302.4 100.201ZM322.5 103.201L321.9 100.701H321.7C321.1 101.601 320.3 102.301 319.3 102.801C318.3 103.301 317.1 103.601 315.8 103.601C313.5 103.601 311.8 103.001 310.6 101.901C309.5 100.801 308.9 99.0005 308.9 96.7005V84.2005H313V95.9005C313 97.4005 313.3 98.4005 313.9 99.2005C314.5 99.9005 315.4 100.301 316.7 100.301C318.4 100.301 319.6 99.8005 320.4 98.8005C321.2 97.8005 321.6 96.1005 321.6 93.7005V84.2005H325.7V103.201H322.5ZM341.1 83.8005C341.9 83.8005 342.6 83.9005 343.1 84.0005L342.7 87.8005C342.1 87.7005 341.5 87.6005 340.9 87.6005C339.3 87.6005 338 88.1005 337 89.2005C336 90.3005 335.5 91.6005 335.5 93.3005V103.201H331.5V84.2005H334.7L335.2 87.5005H335.4C336 86.4005 336.9 85.5005 337.9 84.8005C338.8 84.2005 339.9 83.8005 341.1 83.8005ZM354.2 103.501C351.2 103.501 348.9 102.601 347.3 100.901C345.6 99.2005 344.8 96.8005 344.8 93.8005C344.8 90.7005 345.6 88.3005 347.1 86.5005C348.6 84.7005 350.8 83.8005 353.5 83.8005C356 83.8005 358 84.6005 359.4 86.1005C360.9 87.6005 361.6 89.7005 361.6 92.4005V94.6005H348.9C349 96.4005 349.5 97.9005 350.4 98.8005C351.3 99.8005 352.7 100.301 354.4 100.301C355.5 100.301 356.6 100.201 357.5 100.001C358.5 99.8005 359.5 99.4005 360.6 98.9005V102.201C359.6 102.701 358.6 103.001 357.6 103.201C356.6 103.401 355.5 103.501 354.2 103.501ZM353.5 86.9005C352.2 86.9005 351.2 87.3005 350.4 88.1005C349.6 88.9005 349.2 90.1005 349 91.7005H357.6C357.6 90.1005 357.2 88.9005 356.5 88.1005C355.7 87.3005 354.7 86.9005 353.5 86.9005ZM392.1 93.6005C392.1 96.7005 391.3 99.1005 389.7 100.901C388.1 102.601 385.9 103.501 383.1 103.501C381.3 103.501 379.8 103.101 378.4 102.301C377 101.501 376 100.301 375.3 98.8005C374.6 97.3005 374.2 95.6005 374.2 93.6005C374.2 90.5005 375 88.1005 376.6 86.4005C378.2 84.7005 380.4 83.8005 383.3 83.8005C386 83.8005 388.2 84.7005 389.8 86.5005C391.4 88.3005 392.1 90.6005 392.1 93.6005ZM378.3 93.6005C378.3 98.0005 379.9 100.201 383.2 100.201C386.4 100.201 388 98.0005 388 93.6005C388 89.3005 386.4 87.1005 383.2 87.1005C381.5 87.1005 380.3 87.7005 379.5 88.8005C378.7 89.9005 378.3 91.5005 378.3 93.6005ZM406.3 87.2005H401.7V103.201H397.6V87.2005H394.5V85.3005L397.6 84.1005V82.9005C397.6 80.7005 398.1 79.0005 399.2 77.9005C400.3 76.8005 401.9 76.3005 404 76.3005C405.4 76.3005 406.8 76.5005 408.2 77.0005L407.1 80.1005C406.1 79.8005 405.2 79.6005 404.2 79.6005C403.3 79.6005 402.6 79.9005 402.2 80.4005C401.8 80.9005 401.6 81.8005 401.6 82.9005V84.1005H406.2V87.2005H406.3ZM434.7 103.201H430.6V91.5005C430.6 90.0005 430.3 89.0005 429.8 88.2005C429.3 87.5005 428.4 87.1005 427.2 87.1005C425.6 87.1005 424.5 87.6005 423.8 88.6005C423.1 89.6005 422.7 91.3005 422.7 93.7005V103.201H418.7V84.2005H421.9L422.5 86.7005H422.7C423.2 85.8005 424 85.1005 425 84.6005C426 84.1005 427.1 83.9005 428.3 83.9005C431.2 83.9005 433.2 84.9005 434.1 86.9005H434.4C435 86.0005 435.8 85.2005 436.8 84.7005C437.8 84.2005 439 83.9005 440.3 83.9005C442.6 83.9005 444.2 84.5005 445.3 85.6005C446.3 86.7005 446.9 88.5005 446.9 90.8005V103.201H442.9V91.5005C442.9 90.0005 442.6 89.0005 442.1 88.2005C441.5 87.5005 440.7 87.1005 439.5 87.1005C437.9 87.1005 436.8 87.6005 436.1 88.6005C435.4 89.6005 435 91.1005 435 93.1005V103.201H434.7ZM469.1 93.6005C469.1 96.7005 468.3 99.1005 466.7 100.901C465.1 102.601 462.9 103.501 460.1 103.501C458.3 103.501 456.8 103.101 455.4 102.301C454 101.501 453 100.301 452.3 98.8005C451.6 97.3005 451.2 95.6005 451.2 93.6005C451.2 90.5005 452 88.1005 453.6 86.4005C455.2 84.7005 457.4 83.8005 460.3 83.8005C463 83.8005 465.2 84.7005 466.8 86.5005C468.3 88.3005 469.1 90.6005 469.1 93.6005ZM455.3 93.6005C455.3 98.0005 456.9 100.201 460.2 100.201C463.4 100.201 465 98.0005 465 93.6005C465 89.3005 463.4 87.1005 460.2 87.1005C458.5 87.1005 457.3 87.7005 456.5 88.8005C455.7 89.9005 455.3 91.5005 455.3 93.6005ZM490.5 103.201H486.4V91.5005C486.4 90.0005 486.1 88.9005 485.5 88.2005C484.9 87.5005 484 87.1005 482.7 87.1005C481 87.1005 479.7 87.6005 479 88.6005C478.3 89.6005 477.8 91.3005 477.8 93.7005V103.201H473.8V84.2005H477L477.6 86.7005H477.8C478.4 85.8005 479.2 85.1005 480.2 84.6005C481.2 84.1005 482.4 83.9005 483.7 83.9005C488.3 83.9005 490.5 86.2005 490.5 90.9005V103.201ZM504.4 103.501C501.4 103.501 499.1 102.601 497.5 100.901C495.8 99.2005 495 96.8005 495 93.8005C495 90.7005 495.8 88.3005 497.3 86.5005C498.8 84.7005 501 83.8005 503.7 83.8005C506.2 83.8005 508.2 84.6005 509.6 86.1005C511.1 87.6005 511.8 89.7005 511.8 92.4005V94.6005H499.1C499.2 96.4005 499.7 97.9005 500.6 98.8005C501.5 99.8005 502.9 100.301 504.6 100.301C505.7 100.301 506.8 100.201 507.7 100.001C508.6 99.8005 509.7 99.4005 510.8 98.9005V102.201C509.8 102.701 508.8 103.001 507.8 103.201C506.8 103.401 505.7 103.501 504.4 103.501ZM503.6 86.9005C502.3 86.9005 501.3 87.3005 500.5 88.1005C499.7 88.9005 499.3 90.1005 499.1 91.7005H507.7C507.7 90.1005 507.3 88.9005 506.6 88.1005C505.9 87.3005 504.9 86.9005 503.6 86.9005ZM512.8 84.2005H517.2L521.1 95.0005C521.7 96.5005 522.1 98.0005 522.3 99.3005H522.4C522.5 98.7005 522.7 97.9005 523 97.0005C523.3 96.1005 524.7 91.8005 527.4 84.2005H531.8L523.7 105.701C522.2 109.601 519.8 111.601 516.3 111.601C515.4 111.601 514.5 111.501 513.7 111.301V108.101C514.3 108.201 515 108.301 515.8 108.301C517.7 108.301 519.1 107.201 519.9 104.901L520.6 103.101L512.8 84.2005Z" fill="white"/>
</g>
<defs>
<clipPath id="clip0_352_708">
<rect width="600" height="141" fill="white"/>
</clipPath>
</defs>
</svg>
