<svg viewBox="0 0 142 28" fill="none" xmlns="http://www.w3.org/2000/svg">
<g clip-path="url(#clip0_352_698)">
<path d="M38.423 6.6559V20.7119C38.423 20.7119 50.951 23.2969 50.951 13.6859C50.951 3.6509 38.423 6.6559 38.423 6.6559ZM41.668 18.2709V9.1729C41.668 9.1729 47.672 7.9169 47.672 13.6989C47.672 18.8859 41.668 18.2709 41.668 18.2709ZM58.15 9.6239C55.147 9.6239 52.94 12.1739 52.94 15.3239C52.94 18.4739 55.147 21.0259 58.15 21.0259C61.155 21.0259 63.33 18.4749 63.33 15.3249C63.33 12.1749 61.155 9.6239 58.15 9.6239ZM58.142 18.4539C56.359 18.4539 55.97 16.6369 55.97 15.3239C55.97 14.0129 56.177 12.2389 58.142 12.2389C60.069 12.2389 60.302 14.0089 60.302 15.3249C60.302 16.6369 59.912 18.4529 58.142 18.4529V18.4539ZM65.938 10.3579V20.6559H68.861V12.3699C68.861 12.3699 70.636 11.8439 72.229 12.5779C72.698 10.7949 72.804 10.1669 72.804 10.1669C72.804 10.1669 71.316 9.5259 69.373 9.6529C67.429 9.7799 65.937 10.3579 65.937 10.3579H65.938ZM79.361 9.6239C76.141 9.3479 74.663 10.2049 74.663 10.2049L74.942 12.5149C74.942 12.5149 76.797 11.7549 78.787 12.1279C80.177 12.3909 80.075 14.0849 80.075 14.0849H77.392C76.564 14.0849 75.74 14.2719 75.026 14.6919C74.24 15.1549 73.581 15.8679 73.518 17.2139C73.395 19.7989 74.963 20.5719 76.007 20.7969C77.32 20.7969 79.725 20.8429 80.844 20.7969C81.5127 20.7577 82.1679 20.5921 82.775 20.3089V12.3529C82.775 12.3529 82.581 9.8999 79.361 9.6239ZM80.075 18.5259H77.481C77.481 18.5259 76.454 18.4279 76.454 17.4049C76.454 16.4959 77.046 16.0759 77.604 16.0759H80.075V18.5259ZM105.828 9.6239C102.608 9.3479 101.13 10.2049 101.13 10.2049L101.408 12.5149C101.408 12.5149 103.263 11.7549 105.253 12.1279C106.644 12.3909 106.542 14.0849 106.542 14.0849H103.859C103.031 14.0849 102.207 14.2719 101.493 14.6919C100.707 15.1549 100.048 15.8679 99.985 17.2139C99.862 19.7989 101.43 20.5719 102.473 20.7969C103.787 20.7969 106.191 20.8429 107.311 20.7969C108.355 20.7539 109.242 20.3089 109.242 20.3089V12.3529C109.238 12.3529 109.048 9.8999 105.828 9.6239ZM106.542 18.5259H103.948C103.948 18.5259 102.921 18.4279 102.921 17.4049C102.921 16.4959 103.513 16.0759 104.07 16.0759H106.542V18.5259ZM94.411 6.3969V12.0899H89.062V6.3969H85.826V20.5839H89.062V14.8869H94.412V20.5839H97.648V6.3969H94.411ZM120.198 10.2469L119.598 12.5019C119.598 12.5019 114.693 11.0369 114.743 15.3199C114.794 19.6039 118.605 18.6099 119.78 18.0079C120.042 19.7649 120.198 20.4439 120.198 20.4439C120.198 20.4439 117.743 21.3139 115.605 20.8139C113.463 20.3129 111.376 18.7159 111.532 15.1889C111.688 11.6609 114.093 10.4769 115.238 9.9799C117.173 9.1479 120.198 10.2469 120.198 10.2469ZM122.391 5.3199L125.496 4.8479V13.7629L128.995 9.8829H132.388L128.213 14.6289C128.213 14.6289 131.813 18.8059 132.574 20.5849C131.555 20.5549 129.05 20.5849 129.05 20.5849C129.05 20.5849 127.955 17.9529 125.551 16.0799V20.5849H122.496L122.391 5.3189V5.3199ZM141.573 10.2219L140.973 12.4249C140.973 12.4249 137.179 11.3299 136.9 12.7139C136.693 13.7619 138.979 14.2799 139.537 14.5479C141.024 15.2569 142 16.0169 142 17.6419C142 19.2679 141.261 20.9749 137.555 20.9749C133.85 20.9749 133.613 20.2149 133.613 20.2149L134.213 17.8549C134.213 17.8549 135.633 18.8099 138.05 18.5299C139.537 18.3559 139.051 17.1999 137.804 16.7039C136.558 16.2069 133.309 15.5329 134.158 12.3239C135.312 7.9939 141.573 10.2219 141.573 10.2219Z" fill="white"/>
<path fill-rule="evenodd" clip-rule="evenodd" d="M16.4971 8.88439C16.7205 8.60835 16.9282 8.35165 17.162 8.3249L17.163 8.3259C17.674 8.2619 17.758 9.7179 17.45 10.4059C17.155 11.0889 16.136 11.5309 15.755 11.1869C15.6403 11.0813 15.6379 11.0166 15.6311 10.8304C15.6296 10.7909 15.628 10.7459 15.625 10.6939C15.608 10.3969 14.953 10.4519 14.936 10.9019C14.9322 10.9774 14.9349 11.0555 14.9378 11.1402C14.9442 11.3268 14.9518 11.5455 14.894 11.8399C14.704 12.8169 12.959 12.9949 12.506 12.9269C12.054 12.8639 11.506 12.5029 11.776 12.2869C12.4021 11.7839 11.9883 10.6008 11.0591 10.1569C10.7942 10.2654 10.5324 10.376 10.274 10.4888C10.3282 10.6406 10.4574 10.7732 10.622 10.8209C11.129 10.9709 11.835 11.9849 10.669 12.6309C9.50198 13.2749 8.71198 12.0739 8.64498 11.8109C8.58179 11.5628 8.48035 11.4989 8.19216 11.4782C2.83577 14.246 -0.569782 17.8429 0.0789701 20.4951C0.91597 23.9341 8.23797 24.4851 16.427 21.7351C24.615 18.9801 30.572 13.9661 29.732 10.5281C28.9815 7.46296 23.0738 6.69419 15.9919 8.5181C15.7345 8.71893 15.4372 8.81169 15.206 8.8469L15.1918 8.84903C14.6105 8.9364 14.3936 8.969 14.344 9.3519C14.289 9.7379 15.295 9.9289 15.975 9.4319C16.1675 9.29171 16.3363 9.08304 16.4971 8.88439ZM12.4962 9.60232C12.7752 9.50104 13.0571 9.40233 13.3416 9.30636C13.2706 9.81849 12.9972 10.2349 12.632 10.2349C12.451 10.2349 12.21 9.9719 12.341 9.8229C12.4031 9.75441 12.4542 9.67994 12.4962 9.60232Z" fill="url(#paint0_linear_352_698)"/>
<path fill-rule="evenodd" clip-rule="evenodd" d="M6.54878 2.10973C5.1129 1.04378 3.40548 -0.223757 2.73297 0.0340492C2.03299 0.327359 2.26069 1.66331 2.42702 2.63914C2.44556 2.7479 2.46333 2.85218 2.47897 2.95005C2.65498 4.02556 2.95543 5.17102 3.25162 6.30026C3.59489 7.60901 3.93245 8.89598 4.06397 10.0271C4.08739 10.2252 4.11042 10.4212 4.13321 10.6152C4.98943 17.9024 5.50693 22.3068 13.207 26.88C13.536 27.08 15.392 27.882 15.936 27.9541C17.876 28.2171 18.615 27.292 18.603 26.647C18.59 25.887 18.079 25.275 17.716 24.859C17.4028 24.503 16.9907 24.1198 16.5951 23.7521C16.1898 23.3752 15.8019 23.0147 15.556 22.716C16.832 22.55 18.193 22.321 19.308 22.019C19.4199 21.9888 19.5421 21.951 19.6664 21.9126C20.0108 21.8061 20.372 21.6944 20.58 21.723C20.753 21.748 20.876 21.7771 21.146 22.003C21.6792 22.4528 22.1886 22.9301 22.672 23.4331C23.309 24.1161 24.108 24.9701 24.704 25.3981C25.637 26.0651 26.829 26.192 27.687 25.458C28.198 25.021 28.329 24.397 28.067 23.611C27.442 21.743 24.463 17.9611 21.083 15.333C20.5852 14.82 20.399 14.0796 20.2103 13.329C20.1636 13.1432 20.1168 12.9568 20.065 12.773C20.0423 12.6922 20.0189 12.6098 19.9951 12.526C19.7476 11.6552 19.4576 10.6351 19.558 9.67905C19.6009 9.25997 19.7525 8.82297 19.9085 8.37313C20.0104 8.07911 20.1143 7.77961 20.191 7.47605C20.588 5.92205 20.981 4.35505 21.21 2.83205C21.332 2.00405 21.358 1.15005 21.146 0.272049C20.9005 -0.726131 17.6205 1.65406 16.2326 2.66112C16.0202 2.8153 15.8521 2.93729 15.746 3.01005C15.037 2.62805 14.115 2.34305 13.081 2.17805C11.183 1.87605 9.02397 2.40705 7.62097 2.89105C7.29998 2.66739 6.93416 2.39582 6.54878 2.10973ZM16.4971 8.88439C16.7205 8.60835 16.9282 8.35165 17.162 8.3249L17.163 8.3259C17.674 8.2619 17.758 9.7179 17.45 10.4059C17.155 11.0889 16.136 11.5309 15.755 11.1869C15.6403 11.0813 15.6379 11.0166 15.6311 10.8304C15.6296 10.7909 15.628 10.7459 15.625 10.6939C15.608 10.3969 14.953 10.4519 14.936 10.9019C14.9322 10.9774 14.9349 11.0555 14.9378 11.1402C14.9442 11.3268 14.9518 11.5455 14.894 11.8399C14.704 12.8169 12.959 12.9949 12.506 12.9269C12.054 12.8639 11.506 12.5029 11.776 12.2869C12.422 11.7679 11.961 10.5249 10.969 10.1169C10.622 9.9769 10.486 9.9259 10.356 10.0609C10.115 10.3119 10.301 10.7279 10.622 10.8209C11.129 10.9709 11.835 11.9849 10.669 12.6309C9.50198 13.2749 8.71198 12.0739 8.64498 11.8109C8.57798 11.5479 8.46798 11.4919 8.13798 11.4749C6.72968 11.4269 6.58926 10.9242 6.46603 10.483C6.45056 10.4277 6.43537 10.3733 6.41798 10.3209C6.26198 9.8489 6.66698 9.6329 6.73498 9.6839C6.74083 9.68804 6.74897 9.69406 6.75916 9.7016C6.87444 9.7869 7.25318 10.0671 7.57198 10.0359C7.81744 10.0089 7.87165 10.0952 7.99882 10.2976C8.05091 10.3805 8.11525 10.4828 8.20998 10.6049C8.76298 11.3269 9.23998 10.3799 8.92798 10.2019C8.23498 9.8029 8.41698 9.1699 8.66198 9.0299C8.90698 8.8899 8.96598 8.6349 8.80998 8.4269C8.65298 8.2189 8.31098 8.2919 8.19298 8.4019C7.98192 8.60087 7.94366 8.82116 7.91343 8.99514C7.88366 9.16655 7.86169 9.29302 7.68998 9.3099C7.16998 9.3599 6.29998 8.7359 6.64498 7.4579C6.99598 6.1809 8.50898 6.1809 8.50898 6.1809L8.47498 6.6179C8.45798 6.8049 8.69098 7.6659 9.23098 7.9759C10.177 8.5199 11.158 8.2569 11.23 7.8909C11.272 7.6629 10.963 7.3989 10.477 7.4329C9.99198 7.4669 9.28998 7.1999 9.13398 6.5199C8.97798 5.8329 9.53098 5.1959 10.165 4.9329C10.79 4.6739 11.403 5.1409 11.517 5.4379C11.745 6.0329 12.218 5.7429 12.218 5.7429C12.218 5.7429 12.818 4.8049 13.541 4.8599C14.272 4.9159 14.568 5.4629 14.568 5.4629C14.568 5.4629 16.223 5.1319 16.503 6.6049C16.82 8.2909 15.797 8.7569 15.206 8.8469L15.1918 8.84903C14.6105 8.9364 14.3936 8.969 14.344 9.3519C14.289 9.7379 15.295 9.9289 15.975 9.4319C16.1675 9.29171 16.3363 9.08304 16.4971 8.88439ZM12.341 9.8229C12.21 9.9719 12.451 10.2349 12.632 10.2349C13.046 10.2349 13.342 9.6999 13.359 9.0969C13.389 8.3459 13.101 7.4709 12.717 7.5939C12.54 7.6539 12.392 7.7769 12.4 7.9719C12.4057 8.07046 12.4517 8.15444 12.5041 8.25014C12.5713 8.37291 12.6491 8.51498 12.666 8.7319C12.687 9.0209 12.641 9.4919 12.341 9.8229ZM13.4839 5.47499C13.3864 5.466 13.1723 5.44627 13.042 5.7899C12.915 6.1259 12.957 6.8509 13.477 7.3689C13.963 7.8619 14.872 7.7859 15.176 7.5859C15.48 7.3859 15.265 6.9579 15.083 6.9619C15.0613 6.9619 15.028 6.96584 14.9855 6.97086C14.7711 6.99619 14.3242 7.04899 13.972 6.7619C13.692 6.5369 13.832 5.8159 13.832 5.8159C13.845 5.5779 13.587 5.4799 13.494 5.4759C13.4908 5.47562 13.4874 5.47531 13.4839 5.47499Z" fill="white"/>
</g>
<defs>
<linearGradient id="paint0_linear_352_698" x1="8.64297" y1="9.2221" x2="21.227" y2="21.7461" gradientUnits="userSpaceOnUse">
<stop stop-color="white"/>
<stop offset="0.98" stop-color="#FCF5F0" stop-opacity="0"/>
</linearGradient>
<clipPath id="clip0_352_698">
<rect width="142" height="28" fill="white"/>
</clipPath>
</defs>
</svg>
