<svg viewBox="0 0 600 97" fill="none" xmlns="http://www.w3.org/2000/svg">
<path d="M105.525 41.4L84.625 5.29999C82.725 1.99999 79.225 0 75.425 0H33.725C29.025 0 24.625 2.49998 22.325 6.59998L1.425 42.7C-0.475 46 -0.475 50 1.425 53.3L22.325 89.5C24.725 93.6 29.025 96.1 33.725 96.1H75.425C79.225 96.1 82.725 94.1 84.625 90.8L105.525 54.7C107.825 50.6 107.925 45.5 105.525 41.4ZM7.325 48.2L9.725 44.2L28.325 11.8L40.025 32.1C41.225 33.9 43.625 34.5 45.425 33.3C47.125 32.2 47.725 30 46.825 28.2L37.425 11.8C35.825 9.49999 33.225 7.99999 30.425 7.89999H72.525L52.725 42.2C52.025 43.4 50.725 44.2 49.325 44.2H14.425C11.525 44.1 8.825 45.6 7.325 48.2ZM72.525 88.2H35.125L46.825 67.9C48.025 66.1 47.425 63.6 45.625 62.5C43.825 61.3 41.325 61.9 40.225 63.7C40.125 63.8 40.125 63.9 40.025 64L28.325 84.3L26.025 88.4C27.325 86.1 27.425 83.4 26.425 81L9.725 52H49.325C50.725 52 52.025 52.8 52.725 54L70.325 84.5C71.925 86.8 74.525 88.2 77.225 88.3H72.525V88.2ZM98.025 52L79.325 84.3L59.525 50C58.825 48.8 58.825 47.3 59.525 46L79.325 11.8L81.625 7.79999C80.025 10.6 80.225 14 82.025 16.7C82.725 17.6 97.925 44.2 97.925 44.2H74.525C72.325 44.2 70.625 46 70.625 48.1C70.625 50.2 72.425 52 74.525 52H93.325H93.225C96.125 52 98.825 50.5 100.325 48L98.025 52Z" fill="white"/>
<path d="M333.125 26.6999C330.725 26.5999 328.325 27.2999 326.225 28.4999C324.225 29.6999 322.425 31.2999 320.925 33.0999L320.725 33.3999H319.525L318.225 27.6999H304.625C303.625 27.6999 302.725 28.2999 302.325 29.2999L299.925 35.7999H315.525C315.525 35.7999 310.625 35.7999 310.625 39.7999V61.4999H304.625C303.625 61.4999 302.725 62.0999 302.325 63.0999L299.925 69.5999H334.525C335.525 69.5999 336.525 68.9999 336.825 67.9999L339.225 61.4999H320.425V42.0999L320.525 41.8999C321.525 40.2999 322.825 38.8999 324.225 37.6999C325.925 36.3999 328.125 35.6999 330.225 35.7999C331.625 35.6999 332.925 36.3999 333.725 37.5999C334.425 38.8999 334.725 40.3999 334.725 41.7999H343.425C343.325 36.3999 342.325 32.4999 340.625 30.1999C338.925 27.8999 336.025 26.5999 333.125 26.6999Z" fill="white"/>
<path d="M386.225 47.7999C384.025 46.7999 381.825 45.9999 379.525 45.3999L372.625 43.5999C370.825 43.0999 369.025 42.4999 367.325 41.7999C365.625 40.9999 364.825 39.9999 364.825 38.5999C364.825 36.9999 365.925 35.4999 367.525 35.0999C369.525 34.3999 371.625 33.9999 373.725 34.0999C375.125 34.0999 376.525 34.2999 377.925 34.4999C379.325 34.7999 380.625 35.1999 381.925 35.6999C383.225 36.1999 384.425 36.6999 385.525 37.1999C386.425 37.5999 387.225 38.0999 387.925 38.4999L391.925 31.8999C391.225 31.3999 390.425 30.8999 389.625 30.2999C388.425 29.4999 387.025 28.8999 385.725 28.3999C383.925 27.7999 382.125 27.2999 380.225 26.9999C377.825 26.5999 375.325 26.3999 372.925 26.3999C370.525 26.3999 368.025 26.6999 365.725 27.2999C363.725 27.7999 361.825 28.5999 360.025 29.7999C358.525 30.7999 357.225 32.0999 356.325 33.6999C355.425 35.2999 354.925 37.1999 355.025 38.9999C354.925 41.0999 355.625 43.1999 357.025 44.8999C358.425 46.4999 360.125 47.7999 362.025 48.7999C364.125 49.8999 366.425 50.6999 368.725 51.2999C371.225 51.8999 373.525 52.4999 375.625 53.0999C377.425 53.5999 379.225 54.1999 381.025 55.0999C382.525 55.5999 383.525 56.9999 383.525 58.4999C383.625 60.1999 382.625 61.6999 381.125 62.2999C378.425 63.5999 374.425 63.5999 370.625 62.6999C368.925 62.2999 367.225 61.6999 365.525 61.0999C364.025 60.4999 362.625 59.7999 361.225 58.8999C360.225 58.2999 359.425 57.6999 358.825 57.1999L354.425 64.1999C356.825 66.0999 359.525 67.6999 362.425 68.7999C366.425 70.2999 370.725 70.9999 375.025 70.8999C381.125 70.8999 385.825 69.6999 388.825 67.2999C391.825 64.9999 393.525 61.2999 393.325 57.4999C393.425 55.3999 392.725 53.2999 391.425 51.6999C389.725 49.9999 388.125 48.6999 386.225 47.7999Z" fill="white"/>
<path d="M441.525 58.2C440.625 58.9 439.625 59.6 438.625 60.2C437.525 60.8 436.325 61.3 435.025 61.7C433.625 62.1 432.125 62.3 430.525 62.3C427.625 62.4 424.825 61.2 422.925 59.1C421.125 57 420.225 53.6001 420.225 49.0001V35.8H439.925L442.925 27.7H420.225V14.8L412.125 17.1C411.025 17.4 410.325 18.4001 410.325 19.5001V27.7H406.525C405.525 27.7 404.625 28.3 404.225 29.3L401.825 35.8H415.725C415.725 35.8 410.425 35.8001 410.425 40.0001V48.9001C410.425 56.5001 412.025 62.2 415.125 65.6C418.225 69.1 422.925 70.8 429.225 70.8C431.025 70.8 432.825 70.6 434.525 70.2C436.325 69.8 438.025 69.3 439.725 68.6C441.325 67.9 442.925 67.1 444.425 66.1C445.625 65.4 446.625 64.5001 447.625 63.5001L443.125 56.8L441.525 58.2Z" fill="white"/>
<path d="M492.325 60.8C492.225 60.1 492.225 59.3 492.025 58.5C491.925 57 491.825 55.6 491.825 54.3C491.825 52.7 491.925 50.8 492.125 48.7C492.325 46.6 492.425 44.2 492.425 41.3C492.425 39.3 492.125 37.2 491.625 35.3C491.125 33.6 490.225 32.1 489.025 30.8C487.625 29.5 486.025 28.5 484.225 27.9C481.825 27.1 479.325 26.8 476.825 26.8C473.225 26.7 469.725 27.1 466.225 27.9C463.725 28.5 461.325 29.3 458.925 30.3L461.225 37.7C462.925 37 464.725 36.3 466.525 35.8C469.125 35 471.925 34.6 474.625 34.6C476.725 34.5 478.825 35 480.625 36.2C482.025 37.3 482.725 39.1 482.725 41.5V43.1C482.725 43.7 482.625 44.4 482.525 45L482.425 45.6H481.825C480.125 45.5 478.725 45.4 477.525 45.2C476.425 45.1 475.325 45 474.325 45C471.725 45 469.125 45.2 466.525 45.8C464.425 46.2 462.425 47.1 460.625 48.2C459.125 49.2 457.825 50.6 457.025 52.3C456.125 54.2 455.725 56.2 455.725 58.3C455.525 61.6 456.925 64.7 459.325 67C461.725 69.1 465.025 70.3 469.125 70.3C472.025 70.4 474.825 69.8 477.325 68.5C479.225 67.4 480.825 65.9 482.025 64.1L482.225 63.8H483.625L484.725 69.7H494.425C495.625 69.7 496.625 68.9 496.825 67.7L497.925 61.6H492.325V60.8ZM482.525 57.1L482.425 57.3C481.625 58.7 480.525 59.9 479.225 60.8C477.225 62 474.925 62.6 472.625 62.5C470.225 62.5 468.525 62 467.425 61C466.325 59.9 465.725 58.3 465.825 56.8C465.825 55.7 466.125 54.7 466.725 53.9C467.325 53.1 468.125 52.4 469.025 52C470.025 51.5 471.025 51.1 472.125 50.9C474.525 50.5 476.925 50.5 479.325 50.8C480.525 50.9 481.325 51.1 481.925 51.2L482.525 51.3V57.1Z" fill="white"/>
<path d="M532.125 46.7L549.025 27.7H537.625L523.425 44.9001H519.725V10.3H507.525C506.525 10.3 505.625 10.9001 505.225 11.9001L502.825 18.4001H514.725C514.725 18.4001 509.925 18.4001 509.925 21.9001V69.6H519.725V51.7H523.825L538.725 69.6H546.925C547.925 69.6 548.925 69.0001 549.225 68.0001L551.625 61.5001H543.925L532.125 46.7Z" fill="white"/>
<path d="M233.025 27.7C231.925 27.7 231.025 28.4 230.725 29.4L221.825 54.3H220.225L208.325 27.7H199.625C198.625 27.7 197.725 28.3 197.325 29.3L194.925 35.8H207.025C207.025 35.8 201.225 35.7999 203.425 41.0999L215.625 69.5999H225.825L241.825 27.7H233.025Z" fill="white"/>
<path d="M182.425 30.2001C180.525 28.8001 178.425 27.9001 176.225 27.3001C171.125 26.0001 165.625 26.2001 160.625 27.8001C158.025 28.7001 155.525 30.1001 153.425 31.9001C151.325 33.8001 149.725 36.2001 148.725 38.8001C147.525 41.9001 146.925 45.2001 146.925 48.5001C146.825 51.7001 147.425 54.8001 148.525 57.8001C150.425 63.1001 154.725 67.3001 160.125 69.1001C163.225 70.2001 166.525 70.7001 169.825 70.6001C171.925 70.6001 181.625 70.2001 189.025 64.9001L187.625 58.0001C182.525 61.3001 176.525 63.0001 170.425 63.0001C168.725 63.0001 167.025 62.8001 165.325 62.5001C163.825 62.1001 162.325 61.5001 161.025 60.6001C159.725 59.7001 158.725 58.6001 157.925 57.2001C157.125 55.7001 156.625 53.9001 156.625 52.2001V51.5001H187.925C188.425 49.1001 188.625 46.6001 188.625 44.2001C188.725 41.2001 188.125 38.2001 186.825 35.5001C185.925 33.5001 184.325 31.6001 182.425 30.2001ZM179.725 44.8001H156.925L157.025 44.0001C157.125 42.5001 157.625 41.0001 158.325 39.8001C159.025 38.6001 160.025 37.5001 161.125 36.6001C162.325 35.7001 163.525 35.1001 164.925 34.7001C166.325 34.3001 167.925 34.0001 169.425 34.1001C172.825 34.1001 175.425 35.0001 177.225 36.8001C179.025 38.8001 179.925 41.4001 179.825 44.1001L179.725 44.8001Z" fill="white"/>
<path d="M283.325 30.2001C281.425 28.8001 279.325 27.9001 277.125 27.3001C272.025 26.0001 266.525 26.2001 261.525 27.8001C258.925 28.7001 256.425 30.1001 254.325 31.9001C252.225 33.8001 250.625 36.2001 249.525 38.8001C248.325 41.9001 247.725 45.2001 247.725 48.5001C247.625 51.7001 248.225 54.8001 249.325 57.8001C251.325 63.1001 255.525 67.3001 260.925 69.1001C264.025 70.2001 267.325 70.7001 270.625 70.6001C272.725 70.6001 282.425 70.2001 289.825 64.9001L288.525 58.0001C283.425 61.3001 277.425 63.0001 271.325 63.0001C269.625 63.0001 267.925 62.8001 266.225 62.4001C264.725 62.0001 263.225 61.4001 261.925 60.5001C260.625 59.6001 259.625 58.5001 258.825 57.1001C258.025 55.6001 257.525 53.8001 257.525 52.1001V51.4001H288.825C289.325 49.0001 289.525 46.5001 289.525 44.1001C289.625 41.1001 289.025 38.1001 287.725 35.5001C286.825 33.5001 285.225 31.6001 283.325 30.2001ZM280.625 44.8001H257.825L257.925 44.0001C258.025 42.5001 258.525 41.0001 259.225 39.8001C259.925 38.6001 260.925 37.5001 262.025 36.6001C263.225 35.7001 264.425 35.1001 265.825 34.7001C267.225 34.3001 268.825 34.0001 270.325 34.1001C273.725 34.1001 276.325 35.0001 278.125 36.8001C279.925 38.8001 280.825 41.4001 280.725 44.1001L280.625 44.8001Z" fill="white"/>
<path d="M593.425 30.2001C591.525 28.8001 589.425 27.9001 587.225 27.3001C582.125 26.0001 576.625 26.2001 571.625 27.8001C569.025 28.7001 566.525 30.1001 564.425 31.9001C562.325 33.8001 560.725 36.2001 559.625 38.8001C558.425 41.9001 557.825 45.2001 557.825 48.5001C557.725 51.7001 558.325 54.8001 559.425 57.8001C561.425 63.2001 565.625 67.3001 571.025 69.1001C574.125 70.2001 577.425 70.7001 580.725 70.6001C582.825 70.6001 592.525 70.2001 599.925 64.9001L598.525 58.0001C593.425 61.3001 587.425 63.0001 581.325 63.0001C579.625 63.0001 577.925 62.8001 576.225 62.4001C574.725 62.0001 573.225 61.4001 571.925 60.5001C570.625 59.6001 569.625 58.5001 568.825 57.1001C568.025 55.6001 567.525 53.8001 567.525 52.1001V51.4001H598.925C599.425 49.0001 599.625 46.5001 599.625 44.1001C599.725 41.1001 599.125 38.1001 597.825 35.4001C596.925 33.5001 595.325 31.6001 593.425 30.2001ZM590.725 44.8001H567.925L568.025 44.0001C568.125 42.5001 568.625 41.0001 569.325 39.8001C570.025 38.6001 571.025 37.5001 572.125 36.6001C573.325 35.7001 574.525 35.1001 575.925 34.7001C577.325 34.3001 578.925 34.0001 580.425 34.1001C583.825 34.1001 586.425 35.0001 588.225 36.8001C590.025 38.8001 590.925 41.4001 590.825 44.1001L590.725 44.8001Z" fill="white"/>
</svg>
