<svg viewBox="0 0 80 46" fill="none" xmlns="http://www.w3.org/2000/svg">
<path d="M0.723978 2.78102C0.956622 1.85044 0.309302 0.948242 0.956616 0.687221C2.20318 0.184351 5.13936 0.184349 7.43615 0.184349H12.6689C12.5037 0.184349 13.7623 0.0235435 13.7623 0.0235435C13.7623 0.0235435 14.9058 0.279196 15.0405 0.279196C15.1717 0.279196 15.84 -0.0961021 16.3188 0.0235435C17.3414 0.279196 19.3966 0.0235435 19.898 0.0235435C20.0935 0.0235435 20.7408 0.184349 22.0329 0.184349C22.5836 0.184349 25.225 0.22193 26.0835 0.22193C27.4793 0.22193 26.7814 3.71159 26.7814 3.71159V5.10746C26.7814 5.10746 26.7814 7.43416 26.5488 8.13209C26.3161 8.83002 27.0141 9.7606 27.0141 9.99324C27.0141 10.4585 27.4793 11.622 27.2467 12.3199C27.014 13.0179 26.7814 15.3443 26.7814 15.577C26.7814 15.8099 27.0141 18.6016 27.0141 18.8342C27.0141 19.0669 26.7814 21.1609 26.7814 21.6262C26.7814 22.0915 27.0141 25.5812 27.0141 26.512C27.0141 27.4426 26.7814 31.8631 26.7814 32.561C26.7814 33.2589 27.4793 34.6548 27.2467 34.6548C27.014 34.6548 26.0835 36.0507 25.1529 36.7489C24.2223 37.4468 23.7568 37.4468 23.5241 37.4468C23.2915 37.4468 23.0588 35.3527 23.0588 35.1201C23.0588 34.4222 23.2915 33.9569 23.0588 33.4916C22.8262 33.0263 22.1283 32.3284 22.1283 32.3284C22.1283 32.3284 21.663 34.1895 21.663 34.8875C21.663 35.5854 21.1977 38.8427 21.1977 39.308C21.1977 39.7732 20.4997 40.2385 20.2671 40.4712C20.0345 40.7038 19.5692 38.8427 19.5692 38.61C19.5692 38.3774 19.5692 36.7489 19.3365 36.5162C19.1039 36.2833 18.6383 37.2142 18.6383 37.6794C18.6383 38.1447 18.4057 38.61 18.1731 39.5406C17.9404 40.4712 18.4057 40.4712 18.1731 40.9365C17.9404 41.4017 17.4751 42.7979 16.5445 43.4958C15.614 44.1937 14.916 45.5896 14.916 45.5896C14.916 45.5896 11.4261 42.3326 11.4261 41.6344C11.4261 40.9365 10.7282 40.0059 10.9608 39.308C10.9608 39.308 11.4261 38.8427 11.1935 37.6794C10.9608 36.5162 10.4955 36.5162 10.4955 36.5162C10.4955 36.5162 9.79761 39.0753 9.56496 40.0059C9.33232 40.9365 9.09968 40.9365 8.86703 40.4712C8.63439 40.0059 8.40149 39.0753 7.9362 38.61C7.47092 38.1447 7.00563 38.3774 6.77299 38.3774C6.54034 38.3774 5.14448 38.3774 4.67919 37.4468C4.2139 36.5162 3.74861 36.0507 3.51597 35.5854C3.28307 35.1201 1.65455 35.3527 1.42191 35.1201C1.18926 34.8874 -0.206594 33.2589 0.0260505 32.7937C0.258695 32.3284 0.0260505 25.8138 0.0260505 24.8832C0.0260505 23.9527 0.491341 22.7894 0.491341 22.3242C0.491341 21.8589 0.0260437 20.4627 0.258688 20.2301C0.491332 19.9975 0.491341 17.671 0.491341 16.9731C0.491341 16.2752 0.491334 15.3443 0.723978 14.6464C0.956622 13.9484 0.258688 13.4832 0.258688 13.0179C0.258688 12.5526 0.258697 8.36473 0.491341 7.20151C0.723985 6.03829 0.258688 4.64217 0.258688 4.40953L0.723978 2.78102ZM18.4919 15.9039L18.4988 15.9093C18.7122 16.076 18.9224 16.2156 19.0259 16.4515C19.1231 16.6735 19.144 16.9283 19.144 17.2113C19.144 17.5483 19.1655 17.5483 19.1655 17.8853C19.1655 18.2217 19.0811 18.2217 19.0811 18.5579C19.0811 18.8946 19.2499 18.8946 19.2499 19.2313C19.2499 19.5682 19.142 19.5682 19.142 19.9054C19.142 20.2426 19.1361 20.2426 19.1361 20.5796C19.1361 20.9168 19.1683 20.9168 19.1683 21.254C19.1681 21.592 19.0898 21.592 19.0898 21.9297C19.0898 22.2674 19.2184 22.2707 19.1451 22.6005C18.9658 22.7304 18.804 22.8531 18.6184 22.9618C18.4282 23.073 18.2089 23.1159 18.0117 23.2049C17.8121 23.2949 17.6295 23.4145 17.4227 23.4817C17.2156 23.5487 17.0275 23.7037 16.8132 23.7479C16.6928 23.7727 16.4328 23.7765 16.3114 23.797C16.1603 24.2812 16.2756 24.3067 16.3919 24.8048C16.621 24.7626 16.8212 24.6836 17.1011 24.6C17.3749 24.5182 17.6536 24.443 17.8832 24.3765C18.0925 24.3159 18.3045 24.2617 18.5146 24.1994C18.7237 24.1375 18.9306 24.0649 19.1404 24.001C19.3493 23.9376 19.5467 23.8353 19.7566 23.7701C19.9647 23.7052 20.207 23.7469 20.4162 23.6804C20.6243 23.6139 20.7984 23.4393 21.0072 23.3713C21.2151 23.3036 21.45 23.2841 21.6584 23.2146C21.7502 22.8707 21.5929 22.8554 21.5929 22.4995C21.5929 22.1437 21.7287 22.1437 21.7287 21.7878C21.7287 21.4322 21.7192 21.4322 21.7192 21.0768C21.7192 20.7207 21.7023 20.7207 21.7023 20.3648C21.7023 20.009 21.6346 20.009 21.6346 19.6531C21.6346 19.297 21.7351 19.297 21.7351 18.9408C21.7351 18.5842 21.6816 18.5842 21.6816 18.2276C21.6816 17.8712 21.7215 17.8712 21.7215 17.5146C21.7215 17.3164 21.5602 17.1431 21.5252 16.9767C21.482 16.7724 21.4321 16.553 21.508 16.3961C21.6461 16.1115 21.9184 15.9538 22.1482 15.7884C22.2686 15.7017 22.3941 15.4816 22.5948 15.3776C22.7766 15.2835 22.9617 15.2413 23.145 15.2323C23.2235 15.0869 23.2968 15.0483 23.1752 14.9363C22.8354 14.955 22.6838 14.9946 22.5212 14.9943C22.3581 14.9943 22.1937 14.8724 21.8537 14.8816C21.6223 14.8877 21.3667 15.0483 21.1008 15.0483C20.8513 15.0483 20.5949 14.8731 20.3453 14.8711C20.079 14.8691 19.8205 15.0117 19.5891 15.0117C19.3682 15.0117 19.1458 14.8875 18.928 14.8834C18.6977 14.8788 18.4727 14.9072 18.2654 14.9059C18.2216 14.9056 18.1789 14.9087 18.1373 14.9138C17.9442 14.9171 17.7505 14.9176 17.5559 14.921C17.3153 14.925 17.0748 14.9567 16.8322 14.9588C16.5906 14.9608 16.3487 14.9946 16.1053 14.9946C15.7789 14.9946 15.7789 15.0605 15.4524 15.0605C15.1259 15.0605 15.1259 14.9951 14.7992 14.9951C14.4733 14.9951 14.4732 15.0513 14.1473 15.0513C13.8216 15.0513 13.8216 15.0529 13.4956 15.0529C13.1697 15.0529 13.1697 14.9457 12.844 14.9457C12.5886 14.9457 12.3345 14.9716 12.0808 14.9695C11.8254 14.9677 11.5706 15.0194 11.3172 15.0153C11.0626 15.0112 10.8077 15.0521 10.5551 15.0457C10.3023 15.0398 10.0517 14.9148 9.79658 14.9066C9.54374 14.8985 9.28784 14.9539 9.03295 14.9437C8.77934 14.9335 8.4948 14.9051 8.23915 14.8928C8.1305 15.2075 8.31942 15.2341 8.33451 15.5667C8.34959 15.8991 8.23736 15.9042 8.25245 16.2368C8.26753 16.5689 8.34806 16.5651 8.36314 16.8972C8.37822 17.229 8.3115 17.2321 8.32658 17.5639C8.34166 17.8957 8.45416 17.8906 8.46925 18.2225C8.48433 18.554 8.35803 18.5627 8.50682 18.8593C8.59093 19.0267 8.6643 19.1344 8.83508 19.0569C8.93785 18.7379 8.94501 18.496 8.97927 18.3902C9.06134 18.136 8.98694 18.2565 9.23978 17.8155C9.3492 17.6247 9.57724 17.5222 9.69791 17.3614C9.82957 17.1858 9.90652 16.9782 10.0515 16.8384C10.2082 16.6873 10.3815 16.5651 10.5538 16.4556C10.7205 16.3498 10.88 16.2117 11.068 16.1338C11.2484 16.0591 11.4747 16.1103 11.6746 16.0614C11.8633 16.0151 12.0515 15.9732 12.2575 15.95C12.9097 15.8766 12.0757 15.8298 13.0498 15.8298C13.3402 16.0456 13.1109 16.1468 13.1109 16.5086C13.1109 16.8703 13.1704 16.8703 13.1704 17.2321C13.1704 17.5933 13.0874 17.5933 13.0874 17.9543C13.0874 18.3155 13.1651 18.3155 13.1651 18.6765C13.1651 19.0375 13.1106 19.0375 13.1106 19.3987C13.1106 19.7592 13.0255 19.7592 13.0255 20.1199C13.0255 20.4809 13.1076 20.4809 13.1076 20.8419C13.1076 21.2029 13.0493 21.2029 13.0493 21.5641C13.0493 21.9248 13.1661 21.9248 13.1661 22.2858C13.1661 22.6465 13.1456 22.6465 13.1456 23.0073C13.1456 23.368 13.0551 23.368 13.0551 23.729C13.0551 24.0894 13.0222 24.0894 13.0222 24.4502C13.0222 24.8109 13.1615 24.8109 13.1615 25.1716C13.1615 25.3961 13.0991 25.6098 13.095 25.8115C13.0907 26.0385 13.0378 26.2497 13.0283 26.4483C13.0176 26.6802 13.0822 26.8986 13.0649 27.0913C13.0436 27.3234 12.8759 27.5085 12.8238 27.6998C12.7624 27.9253 12.8107 28.1755 12.7067 28.3445C12.608 28.5038 12.4122 28.5805 12.2685 28.6968C12.1302 28.8085 11.9691 28.8645 11.7889 28.9366C11.5823 29.0192 11.3505 29.1232 11.0511 29.1769C10.8179 29.2186 10.5142 29.2424 10.2248 29.2664C10.1203 29.3945 10.1747 29.5024 10.2688 29.6384C10.4892 29.6261 10.7121 29.5936 10.9325 29.5834C11.1528 29.5732 11.377 29.6596 11.5977 29.6514C11.818 29.6432 12.0338 29.4893 12.2544 29.4832C12.4766 29.4771 12.7023 29.5734 12.9266 29.5691C13.1487 29.5653 13.3711 29.5039 13.5956 29.5019C13.8185 29.5001 14.0427 29.6031 14.268 29.6031C14.5006 29.6031 14.7327 29.5849 14.9656 29.587C15.1983 29.589 15.4307 29.5804 15.6633 29.5844C15.896 29.5885 16.1296 29.5397 16.3623 29.5461C16.5952 29.552 16.8276 29.5676 17.0605 29.5757C17.2931 29.5839 17.5278 29.5479 17.7604 29.5581C17.9931 29.5683 18.2815 29.6655 18.5141 29.678C18.6118 29.5443 18.6284 29.3769 18.522 29.2503C18.2232 29.226 17.877 29.3076 17.6352 29.2654C17.3263 29.2119 17.0487 29.1516 16.8327 29.069C16.6458 28.998 16.4543 28.9085 16.3127 28.7986C16.1621 28.6815 16.0785 28.4813 15.9788 28.32C15.8747 28.1512 15.7985 27.9483 15.7372 27.723C15.685 27.5318 15.6229 27.3217 15.6017 27.0895C15.5843 26.8968 15.6472 26.68 15.6365 26.4483C15.6273 26.25 15.6227 26.0383 15.6183 25.811C15.6145 25.609 15.6408 25.3963 15.6408 25.1716C15.6408 24.8099 15.5207 24.8099 15.5207 24.4481C15.5207 24.0864 15.5296 24.0864 15.5296 23.7246C15.5296 23.3636 15.6145 23.3636 15.6145 23.0024C15.6145 22.6414 15.6278 22.6414 15.6278 22.2802C15.6278 21.9192 15.626 21.9192 15.626 21.5582C15.626 21.1975 15.4764 21.1975 15.4764 20.837C15.4764 20.476 15.6066 20.476 15.6066 20.1148C15.6066 19.7538 15.5549 19.7538 15.5549 19.3928C15.5549 19.0319 15.5943 19.0319 15.5943 18.6711C15.5943 18.3104 15.5017 18.3104 15.5017 17.9497C15.5017 17.5887 15.5296 17.5887 15.5296 17.2277C15.5296 16.8672 15.582 16.8672 15.582 16.5068C15.582 16.1458 15.2798 16.0093 15.5718 15.7971C16.564 15.7971 15.8528 15.7628 16.5238 15.8359C16.6987 15.8551 16.926 15.8679 17.1706 15.8743C17.3775 15.8799 17.5999 15.8503 17.8182 15.86C18.0427 15.8697 18.2648 15.8733 18.4635 15.9001C18.4732 15.9014 18.4824 15.9027 18.4919 15.9039ZM21.2342 11.0818C21.1969 10.8343 21.1775 10.5787 21.1402 10.3215C21.1041 10.0733 21.1036 9.81531 21.0678 9.55812C21.0318 9.30145 21.0683 9.04068 21.0389 8.79269C21.0083 8.535 21.0021 8.28165 20.9789 8.03366C20.9587 7.81968 20.8474 7.6328 20.8362 7.45614C20.8219 7.23091 20.8037 7.0563 20.8037 6.89141C20.6153 6.84437 20.4678 6.692 20.2699 6.6401C20.0815 6.5905 19.8732 6.59971 19.676 6.54602C19.4646 6.48824 19.2253 6.4931 18.9886 6.43788C18.7731 6.38777 18.5563 6.29854 18.3198 6.25048C18.0606 6.19756 17.7806 6.18708 17.491 6.14413C17.2269 6.10502 16.9648 5.94702 16.6757 5.91634C16.4998 5.89768 16.2329 6.05005 15.9427 6.03676C15.7173 6.02653 15.4754 5.86956 15.2256 5.86266C14.9805 5.8555 14.731 5.92734 14.4998 5.92376C14.226 5.91916 13.975 5.93578 13.7776 5.93578C13.5294 5.93578 13.2755 5.82687 13.0298 5.84655C12.7834 5.86649 12.5341 5.91762 12.2902 5.95725C12.0468 5.99687 11.8152 6.11167 11.5744 6.17072C11.3359 6.22952 11.0841 6.25483 10.8476 6.3328C10.6149 6.4095 10.4073 6.56263 10.1767 6.65825C9.9441 6.75463 9.73217 6.88655 9.50924 6.99699C9.28401 7.10846 9.03756 7.17467 8.8223 7.30045C8.60576 7.427 8.41914 7.59726 8.21283 7.73838C8.00626 7.87925 7.80787 8.02676 7.61127 8.18219C7.4157 8.33686 7.22038 8.48949 7.03477 8.65874C6.84789 8.82874 6.58993 8.92793 6.41787 9.11098C6.24556 9.2948 6.12184 9.52566 5.96461 9.72225C5.80764 9.91834 5.62868 10.1027 5.48679 10.3118C5.34619 10.5189 5.28226 10.7771 5.15623 10.9969C5.03224 11.2135 4.89137 11.4226 4.78144 11.6517C4.6687 11.8866 4.53296 12.1121 4.44271 12.3539C4.35221 12.5971 4.35528 12.8693 4.28753 13.1196C4.22029 13.3691 4.06844 13.6005 4.02395 13.8569C3.97972 14.1105 4.00221 14.3764 3.98048 14.6369C3.959 14.8923 3.9631 15.1505 3.9631 15.4128C3.9631 15.6503 3.86058 15.8889 3.87387 16.1177C3.88768 16.3547 3.98662 16.583 4.01475 16.8105C4.04363 17.0459 4.09143 17.2745 4.13566 17.5C4.18117 17.7324 4.26016 17.952 4.32203 18.1736C4.38518 18.4009 4.36115 18.6555 4.44168 18.8718C4.52349 19.0922 4.67203 19.2865 4.77173 19.4954C4.88039 19.7237 4.99568 19.9458 5.11814 20.1603C5.24341 20.3794 5.41981 20.5619 5.5594 20.7665C5.70129 20.9743 5.85596 21.1653 6.01267 21.358C6.17067 21.5526 6.31051 21.7581 6.48385 21.9374C6.65718 22.1168 6.77758 22.3556 6.96625 22.52C7.1516 22.6816 7.36201 22.8176 7.55733 22.9633C7.75392 23.11 7.97864 23.2184 8.18521 23.3491C8.39178 23.4797 8.58377 23.6408 8.80031 23.7556C9.01583 23.8696 9.27556 23.8949 9.50105 23.9933C9.72398 24.0905 9.96379 24.1365 10.1964 24.2183C10.4554 24.3093 10.6259 24.5138 10.8243 24.579C11.059 24.6562 11.287 24.6685 11.5246 24.7171C11.7301 24.7592 11.9725 24.8587 12.2468 24.8855C12.2419 24.7807 12.19 24.4916 12.2015 24.2748C12.2164 23.9989 12.2874 23.6799 12.2877 23.6786C11.9845 23.6272 11.739 23.696 11.5384 23.6236C11.332 23.549 11.2042 23.3117 10.9401 23.1635C10.7346 23.0479 10.4861 23.0096 10.2956 22.8746C10.1047 22.7388 9.88428 22.6325 9.70839 22.477C9.53404 22.3226 9.41235 22.1071 9.25282 21.933C9.09611 21.7622 8.95625 21.5746 8.81386 21.3849C8.66328 21.1842 8.46413 21.0109 8.33221 20.7923C8.20311 20.5783 8.05559 20.3633 7.94438 20.1322C7.83649 19.9077 7.75136 19.662 7.66009 19.4215C7.57215 19.1891 7.50287 18.9406 7.43078 18.6929C7.36866 18.4804 7.32034 18.2603 7.271 18.0425C7.22191 17.827 7.29911 17.5861 7.26256 17.3655C7.22651 17.1477 7.12399 16.9396 7.10021 16.7169C7.07695 16.4976 7.01944 16.2782 7.00793 16.054C6.99643 15.8339 7.00946 15.6099 7.00946 15.3852C7.00946 15.1247 6.95603 14.8581 6.97546 14.5975C6.99489 14.3383 7.1401 14.0906 7.1787 13.8314C7.21679 13.5749 7.16184 13.2983 7.21885 13.0419C7.27509 12.7893 7.41749 12.5546 7.49188 12.302C7.56577 12.0515 7.56091 11.7751 7.65115 11.5366C7.74319 11.293 7.97072 11.1081 8.07988 10.877C8.19084 10.6421 8.26676 10.3939 8.3951 10.1719C8.52471 9.94799 8.63515 9.71177 8.78266 9.50111C8.9243 9.29889 9.05111 9.0844 9.20706 8.90084C9.36633 8.71344 9.52202 8.51659 9.69586 8.34863C9.87201 8.17862 10.0602 8.01193 10.2514 7.86212C10.4429 7.71205 10.6755 7.60979 10.8823 7.47966C11.0912 7.34826 11.3055 7.21787 11.5294 7.11996C11.7528 7.0223 12.0233 7.0632 12.2618 6.99904C12.4953 6.93615 12.722 6.87606 12.9698 6.84538C13.2078 6.81573 13.4437 6.71501 13.6948 6.71501C13.8842 6.71501 14.1015 6.82034 14.3401 6.83414C14.5474 6.84616 14.7785 6.715 15.0007 6.7375C15.2175 6.75923 15.4207 6.91416 15.6321 6.94612C15.8584 6.98012 16.0831 6.96835 16.2805 7.01386C16.5256 7.07036 16.779 7.04659 16.9382 7.12047C17.1599 7.22401 17.343 7.40706 17.5475 7.53258C17.7546 7.65964 17.9179 7.84499 18.1076 7.9948C18.2971 8.1441 18.5 8.275 18.6721 8.4468C18.8467 8.62141 18.9955 8.81954 19.1563 9.01102C19.3146 9.19944 19.548 9.33493 19.6929 9.53971C19.8348 9.73989 19.9895 9.94288 20.1186 10.1589C20.2507 10.3803 20.2911 10.6564 20.4182 10.8819C20.5447 11.1066 20.6097 11.3643 20.7311 11.5929C20.852 11.8206 21.0571 11.984 21.1731 12.2156C21.3199 12.2918 21.3107 12.2619 21.4556 12.1824C21.4247 12.018 21.4331 11.8833 21.3966 11.6586C21.3677 11.4814 21.2665 11.2963 21.2342 11.0818Z" fill="white"/>
<path d="M39.5577 20.4457H38.0225V23.0933C38.0225 24.3837 37.3996 24.762 36.6653 24.762C35.8866 24.762 35.2859 24.3837 35.2859 23.0933V11.6797C35.2859 10.4115 35.8866 10.0111 36.6653 10.0111C37.3996 10.0111 38.0225 10.4115 38.0225 11.6797V14.3051H39.5577V11.6797C39.5577 9.41035 38.3118 8.69839 36.6653 8.69839C34.9967 8.69839 33.7285 9.41035 33.7285 11.6797V23.1156C33.7285 25.4072 34.9967 26.0969 36.6653 26.0969C38.3118 26.0969 39.5577 25.4072 39.5577 23.1156V20.4457Z" fill="white"/>
<path d="M46.3746 25.9212H47.8875L45.7961 8.8564H42.9927L40.9014 25.9212H42.392L42.837 22.1834H45.9296L46.3746 25.9212ZM43.015 20.8707L44.2609 10.2803H44.5057L45.7738 20.8707H43.015Z" fill="white"/>
<path d="M52.6538 8.85628H49.5835V25.9211H51.1409V21.6493H52.6538C54.9232 21.6493 55.3237 20.6704 55.3237 18.6235V11.8599C55.3237 9.81297 54.9232 8.85628 52.6538 8.85628ZM53.8108 18.6457C53.8108 19.9806 53.477 20.3144 52.3646 20.3144H51.1409V10.169H52.3646C53.477 10.169 53.8108 10.5249 53.8108 11.8376V18.6457Z" fill="white"/>
<path d="M58.9407 8.85628H57.3833V25.9211H58.9407V8.85628Z" fill="white"/>
<path d="M66.5494 8.85628H60.6758V10.1912H62.8339V25.9211H64.3913V10.1912H66.5494V8.85628Z" fill="white"/>
<path d="M72.1861 25.9212H73.699L71.6076 8.8564H68.8043L66.7129 25.9212H68.2036L68.6485 22.1834H71.7411L72.1861 25.9212ZM68.8265 20.8707L70.0725 10.2803H70.3172L71.5854 20.8707H68.8265Z" fill="white"/>
<path d="M76.9524 24.6084V8.85628H75.395V25.9211H80.0005V24.6084H76.9524Z" fill="white"/>
</svg>
