<?xml version="1.0" encoding="UTF-8"?>
<!-- Generated by Pixelmator Pro 3.6.4 -->
<svg width="80" height="29" viewBox="0 0 80 29" xmlns="http://www.w3.org/2000/svg">
    <g id="image01">
        <path id="Path" fill="#ffffff" fill-rule="evenodd" stroke="none" d="M 0 11.902237 C 0 15.737588 2.756768 18.928991 6.396886 19.603115 C 6.397149 19.603203 6.397456 19.603245 6.397763 19.603291 C 7.073772 23.241053 10.264079 26 14.097762 26 C 18.423288 26 21.929825 22.493465 21.929825 18.167938 C 21.929825 14.332588 19.173071 11.141184 15.532939 10.467062 C 14.858816 6.826942 11.667412 4.070175 7.832061 4.070175 C 3.506544 4.070175 0 7.576719 0 11.902237 Z M 15.640438 11.288378 C 15.65614 11.490921 15.664166 11.695658 15.664166 11.902237 C 15.664166 16.227806 12.157632 19.734343 7.832061 19.734343 C 7.625482 19.734343 7.420745 19.726315 7.218202 19.710613 C 7.921711 22.861624 10.734694 25.216799 14.097762 25.216799 C 17.990746 25.216799 21.146624 22.060921 21.146624 18.167938 C 21.146624 14.804869 18.791449 11.991886 15.640438 11.288378 Z M 14.097762 11.119034 C 14.349167 11.119034 14.5975 11.132193 14.842105 11.157894 C 14.813684 10.886887 14.769868 10.620481 14.711622 10.359562 C 14.509079 10.343859 14.304342 10.335833 14.097762 10.335833 C 9.772193 10.335833 6.265657 13.842368 6.265657 18.167938 C 6.265657 18.374517 6.273684 18.579254 6.289386 18.781797 C 6.550307 18.840042 6.816711 18.883862 7.087719 18.912281 C 7.062018 18.667675 7.04886 18.419342 7.04886 18.167938 C 7.04886 14.274957 10.204781 11.119034 14.097762 11.119034 Z"/>
        <path id="path1" fill="#ffffff" stroke="none" d="M 29.940615 9.097061 C 29.616447 9.097061 29.395395 9.016447 29.277544 8.855131 C 29.174387 8.679211 29.122807 8.459297 29.122807 8.195374 C 29.122807 7.975443 29.174387 7.784842 29.277544 7.623562 C 29.395395 7.447618 29.616447 7.35965 29.940615 7.35965 C 30.26478 7.35965 30.478464 7.447618 30.581579 7.623562 C 30.699474 7.784842 30.758421 7.975443 30.758421 8.195374 C 30.758421 8.459297 30.699474 8.679211 30.581579 8.855131 C 30.478464 9.016447 30.26478 9.097061 29.940615 9.097061 Z M 29.233334 19.015747 L 29.233334 10.064737 L 30.647894 10.064737 L 30.647894 19.015747 L 29.233334 19.015747 Z"/>
        <path id="path2" fill="#ffffff" stroke="none" d="M 32.057106 19.015747 L 32.057106 10.064737 L 33.272762 10.064737 L 33.515923 12.286009 L 33.560131 12.286009 C 33.574871 12.212675 33.64114 12.058729 33.759033 11.824167 C 33.87693 11.589561 34.053726 11.340307 34.28952 11.076405 C 34.540001 10.79785 34.864166 10.563246 35.262016 10.372631 C 35.659866 10.167368 36.168243 10.064737 36.787106 10.064737 C 37.568069 10.064737 38.179604 10.204035 38.621666 10.482588 C 39.078465 10.761185 39.41737 11.135042 39.638378 11.604254 C 39.859428 12.058729 39.999386 12.549913 40.058334 13.077763 C 40.117283 13.60557 40.146755 14.111403 40.146755 14.59522 L 40.146755 19.015747 L 38.77636 19.015747 L 38.77636 14.59522 C 38.77636 13.627544 38.60693 12.843157 38.268024 12.242018 C 37.943859 11.640877 37.295483 11.340307 36.322983 11.340307 C 35.659866 11.340307 35.114693 11.501579 34.68737 11.824167 C 34.27478 12.132061 33.972721 12.549913 33.781143 13.077763 C 33.604343 13.590921 33.515923 14.155395 33.515923 14.771184 L 33.515923 19.015747 L 32.057106 19.015747 Z"/>
        <path id="path3" fill="#ffffff" stroke="none" d="M 43.512764 19.015747 C 42.967545 19.015747 42.584431 18.869122 42.363419 18.57592 C 42.15715 18.282677 42.053989 17.879475 42.053989 17.366316 L 42.053989 11.120394 L 40.639385 11.120394 L 40.639385 10.064737 C 41.11092 10.064737 41.457191 10.028114 41.678246 9.954781 C 41.91399 9.866798 42.061359 9.661535 42.120308 9.338991 C 42.179211 9.016447 42.208683 8.488596 42.208683 7.755518 L 43.424343 7.755518 L 43.424343 10.064737 L 45.50219 10.064737 L 45.50219 11.120394 L 43.424343 11.120394 L 43.424343 17.87215 L 45.52412 17.87215 L 45.52412 19.015747 L 43.512764 19.015747 Z"/>
        <path id="path4" fill="#ffffff" stroke="none" d="M 50.512283 19.235703 C 49.525002 19.235703 48.70702 19.015747 48.058773 18.57592 C 47.425003 18.121403 46.95351 17.542236 46.644299 16.838465 C 46.349564 16.120045 46.202194 15.379648 46.202194 14.617238 C 46.202194 13.781491 46.364033 13.019079 46.688156 12.33 C 47.027191 11.626228 47.513599 11.06908 48.146931 10.658552 C 48.795616 10.248026 49.568863 10.042763 50.467983 10.042763 C 51.617104 10.042763 52.574997 10.416622 53.341232 11.164385 C 54.107456 11.897457 54.52018 12.887148 54.578949 14.133376 C 54.593861 14.192019 54.601318 14.28 54.601318 14.397281 C 54.601318 14.499912 54.601318 14.59522 54.601318 14.683201 L 47.572369 14.683201 C 47.572369 15.724211 47.822807 16.545263 48.324123 17.146404 C 48.839474 17.732851 49.561844 18.026096 50.489914 18.026096 C 51.182453 18.026096 51.771931 17.850132 52.258331 17.498245 C 52.759212 17.146404 53.068859 16.669868 53.186405 16.068727 L 54.578949 16.068727 C 54.43158 16.977764 53.996929 17.732851 53.275002 18.333992 C 52.55307 18.935131 51.632015 19.235703 50.512283 19.235703 Z M 47.616669 13.913465 L 53.142544 13.913465 C 53.142544 13.60557 53.053947 13.239035 52.877193 12.813814 C 52.714912 12.388641 52.435089 12.022106 52.037277 11.714211 C 51.653946 11.391624 51.123684 11.230352 50.445614 11.230352 C 49.826756 11.230352 49.31842 11.362324 48.920616 11.626228 C 48.522804 11.890131 48.220615 12.227369 48.014473 12.637894 C 47.808334 13.04842 47.675438 13.473597 47.616669 13.913465 Z"/>
        <path id="path5" fill="#ffffff" stroke="none" d="M 55.953068 19.015747 L 55.953068 10.064737 L 57.235085 10.064737 L 57.389912 12.417984 C 57.478069 12.022106 57.655266 11.640877 57.920174 11.274342 C 58.185528 10.907808 58.54649 10.614561 59.00351 10.39465 C 59.475002 10.160044 60.057018 10.050087 60.749561 10.064737 L 61.1693 10.064737 L 61.1693 11.626228 L 60.727192 11.626228 C 59.78421 11.626228 59.06974 11.765526 58.583332 12.044079 C 58.111839 12.307983 57.787724 12.681885 57.610966 13.165701 C 57.448681 13.649562 57.367981 14.206711 57.367981 14.837149 L 57.367981 19.015747 L 55.953068 19.015747 Z"/>
        <path id="path6" fill="#ffffff" stroke="none" d="M 65.654388 19.235703 C 64.210526 19.235703 63.127636 18.810482 62.405262 17.960133 C 61.698246 17.095087 61.344738 15.995439 61.344738 14.661228 C 61.329823 13.312325 61.683334 12.212675 62.405262 11.362324 C 63.142105 10.49728 64.225433 10.057413 65.654388 10.042763 C 67.069298 10.042763 68.137283 10.467939 68.85965 11.318333 C 69.596054 12.154036 69.96447 13.268334 69.96447 14.661228 C 69.96447 15.526272 69.810089 16.303333 69.500435 16.992455 C 69.191231 17.681534 68.719299 18.231359 68.085968 18.641886 C 67.452194 19.037762 66.64167 19.235703 65.654388 19.235703 Z M 65.654388 18.004078 C 66.420616 18.004078 67.010086 17.835484 67.422806 17.498245 C 67.849998 17.161053 68.144737 16.735834 68.307022 16.222675 C 68.483772 15.694868 68.572365 15.159693 68.572365 14.617238 C 68.572365 14.074737 68.483772 13.539606 68.307022 13.011753 C 68.144737 12.483946 67.849998 12.051403 67.422806 11.714211 C 67.010086 11.376974 66.420616 11.208378 65.654388 11.208378 C 64.888153 11.208378 64.291664 11.376974 63.864471 11.714211 C 63.451752 12.051403 63.157017 12.483946 62.980263 13.011753 C 62.817982 13.539606 62.736843 14.074737 62.736843 14.617238 C 62.736843 15.159693 62.817982 15.694868 62.980263 16.222675 C 63.157017 16.735834 63.451752 17.161053 63.864471 17.498245 C 64.291664 17.835484 64.888153 18.004078 65.654388 18.004078 Z"/>
        <path id="path7" fill="#ffffff" stroke="none" d="M 76.043427 19.235703 C 75.468857 19.235703 74.975433 19.140396 74.562721 18.94978 C 74.164909 18.744518 73.84079 18.509912 73.590347 18.24601 C 73.339912 17.982105 73.148247 17.732851 73.01535 17.498245 C 72.897804 17.263683 72.824127 17.109737 72.794296 17.036404 L 72.750435 17.036404 L 72.750435 22.710526 L 71.291664 22.710526 L 71.291664 10.064737 L 72.507019 10.064737 L 72.750435 12.307983 L 72.794296 12.307983 C 72.824127 12.234694 72.897804 12.080746 73.01535 11.84614 C 73.133331 11.61158 73.310089 11.355 73.546051 11.076405 C 73.796494 10.79785 74.120613 10.563246 74.518425 10.372631 C 74.931145 10.167368 75.439476 10.064737 76.043427 10.064737 C 76.913155 10.064737 77.635086 10.262674 78.209648 10.658552 C 78.799126 11.05443 79.241226 11.604254 79.535965 12.307983 C 79.845177 12.997105 80 13.788816 80 14.683201 C 80 16.017412 79.660965 17.109737 78.98333 17.960133 C 78.30526 18.810482 77.325439 19.235703 76.043427 19.235703 Z M 75.756142 17.982105 C 76.448685 17.982105 77.001312 17.820835 77.41404 17.498245 C 77.841232 17.175701 78.143425 16.765175 78.320175 16.266666 C 78.511841 15.753509 78.607452 15.218377 78.607452 14.661228 C 78.607452 14.089385 78.504387 13.554255 78.298241 13.055746 C 78.091667 12.557238 77.76754 12.154036 77.325439 11.84614 C 76.898247 11.523596 76.331139 11.362324 75.62368 11.362324 C 74.76886 11.362324 74.083771 11.662895 73.567978 12.26399 C 73.052193 12.850481 72.794296 13.649562 72.794296 14.661228 C 72.794296 15.687544 73.067108 16.50127 73.612282 17.102413 C 74.157455 17.68886 74.872368 17.982105 75.756142 17.982105 Z"/>
    </g>
</svg>
