<?xml version="1.0" standalone="no"?>
<!DOCTYPE svg PUBLIC "-//W3C//DTD SVG 1.1//EN" "http://www.w3.org/Graphics/SVG/1.1/DTD/svg11.dtd">
<svg xmlns="http://www.w3.org/2000/svg" width="220" height="33" viewBox="0 0 220 33" fill="none">
<path d="M51.2804 21.6432V32.4208H45.3311V0H51.2804V16.2287H55.354L62.8053 5.28991H69.9856L60.6586 18.903L69.9856 32.4135H62.8053L55.354 21.6359H51.2804V21.6432Z" fill="white"/>
<path d="M71.9717 23.0352C71.9717 18.3681 75.0269 13.657 81.5697 13.657C85.4309 13.657 87.519 14.7853 89.021 16.8734V10.6091H74.9756V5.24588H94.9703V26.3982H98.2967V32.4061H89.021V29.1897C87.519 31.2778 85.4309 32.4061 81.5697 32.4061C75.0269 32.4061 71.9717 27.6877 71.9717 23.0279V23.0352ZM89.021 23.0352C89.021 20.6247 87.3066 18.8516 83.4966 18.8516C79.6867 18.8516 77.921 20.6174 77.921 23.0352C77.921 25.453 79.6867 27.2188 83.4966 27.2188C87.3066 27.2188 89.021 25.453 89.021 23.0352Z" fill="white"/>
<path d="M109.733 0V5.29724H127.317V32.4208H121.367V10.763H109.733V32.4208H103.783V0H109.733Z" fill="white"/>
<path d="M133.991 20.0897V5.25305H139.941V20.5733C139.941 25.3943 141.765 27.0062 146.425 27.0062C151.085 27.0062 152.858 25.4016 152.858 20.5733V5.25305H158.807V20.0897C158.807 29.043 154.36 32.4206 146.425 32.4206C138.49 32.4206 133.991 29.043 133.991 20.0897Z" fill="white"/>
<path d="M171.328 10.7631V32.421H165.379V5.29739H188.912V32.421H182.963V10.7631H171.328Z" fill="white"/>
<path d="M193.676 23.0352C193.676 18.3681 196.731 13.657 203.274 13.657C207.135 13.657 209.223 14.7853 210.725 16.8734V10.609H196.68V5.24585H216.674V26.3982H220.001V32.4061H210.725V29.1897C209.223 31.2778 207.135 32.4061 203.274 32.4061C196.731 32.4061 193.676 27.6877 193.676 23.0279V23.0352ZM210.725 23.0352C210.725 20.6247 209.011 18.8516 205.201 18.8516C201.391 18.8516 199.625 20.6174 199.625 23.0352C199.625 25.453 201.391 27.2188 205.201 27.2188C209.011 27.2188 210.725 25.453 210.725 23.0352Z" fill="white"/>
<path d="M14.082 0.600824C14.082 0.27112 14.2945 3.05176e-05 14.5509 3.05176e-05H29.1458C29.4096 3.05176e-05 29.6147 0.27112 29.6147 0.600824V10.2648C29.6147 10.5945 29.4022 10.8656 29.1458 10.8656H15.7745C15.5181 10.8656 15.3056 11.1367 15.3056 11.4664V20.9619C15.3056 21.2916 15.5181 21.5626 15.7745 21.5626H29.1458C29.4022 21.5626 29.6147 21.8337 29.6147 22.1634V31.8274C29.6147 32.1571 29.4022 32.4282 29.1458 32.4282H14.5509C14.2945 32.4282 14.082 32.1571 14.082 31.8274V22.2367C14.082 21.907 13.8695 21.6359 13.6131 21.6359H0.468912C0.212476 21.6359 0 21.3648 0 21.0351V11.3711C0 11.0414 0.212476 10.7703 0.468912 10.7703H13.6131C13.8695 10.7703 14.082 10.4993 14.082 10.1696V0.600824Z" fill="white"/>
</svg>