<svg width="109" height="46" viewBox="0 0 109 46" fill="none" xmlns="http://www.w3.org/2000/svg">
<g clip-path="url(#clip0_9230_12217)">
<path d="M37.0773 39.378C28.229 47.7048 14.3058 47.2822 5.97886 38.4339C-2.34803 29.5857 -1.92537 15.6625 6.9229 7.33566C15.7712 -0.991214 29.6944 -0.568554 38.0213 8.27969C46.3482 17.1279 45.9255 31.0511 37.0773 39.378Z" fill="white"/>
<path d="M27.4345 11.4281L28.2252 14.3051C28.5405 15.4524 29.4386 16.3478 30.587 16.6595L33.4664 17.4411L30.5894 18.2318C29.4421 18.5471 28.5467 19.4452 28.235 20.5936L27.4534 23.473L26.6627 20.596C26.3474 19.4487 25.4493 18.5533 24.3009 18.2416L21.4214 17.46L24.2984 16.6693C25.4458 16.354 26.3412 15.4559 26.6529 14.3075L27.4345 11.4281Z" fill="#E0E0E0"/>
<path d="M0.393109 19.2061C7.15141 18.335 14.218 20.6059 19.245 25.9476C24.2719 31.2892 26.11 38.4803 24.8308 45.1732C18.0725 46.0443 11.0058 43.7734 5.97886 38.4317C0.951997 33.0901 -0.886163 25.8989 0.393109 19.2061Z" fill="#E0E0E0"/>
<path d="M81.1136 19.8344C81.1136 19.9892 81.2391 20.1147 81.3938 20.1147H84.8381C84.9928 20.1147 85.1183 20.2401 85.1183 20.3949V20.7235C85.1183 20.8782 84.9928 21.0037 84.8381 21.0037H80.4097C80.2549 21.0037 80.1294 20.8782 80.1294 20.7235V14.3451C80.1294 14.1903 80.2549 14.0648 80.4097 14.0648H84.6954C84.8502 14.0648 84.9756 14.1903 84.9756 14.3451V14.6736C84.9756 14.8284 84.8502 14.9539 84.6954 14.9539H81.3938C81.2391 14.9539 81.1136 15.0793 81.1136 15.2341V16.4814C81.1136 16.6362 81.2391 16.7617 81.3938 16.7617H84.2768C84.3542 16.7617 84.417 16.8244 84.417 16.9018V17.2209C84.417 17.2982 84.3542 17.361 84.2768 17.361H81.3938C81.2391 17.361 81.1136 17.4865 81.1136 17.6412V19.8344Z" fill="white"/>
<path fill-rule="evenodd" clip-rule="evenodd" d="M62.6114 20.8037L62.6126 20.8042L62.6137 20.8047C63.0623 20.9762 63.5455 21.0612 64.0621 21.0612C64.5787 21.0612 65.059 20.9762 65.5016 20.8044L65.5033 20.8037C65.9441 20.6261 66.3275 20.3786 66.6519 20.0609C66.9827 19.7433 67.2375 19.3692 67.4159 18.94C67.6014 18.5091 67.6933 18.04 67.6933 17.5347C67.6933 17.0294 67.6014 16.5603 67.4159 16.1294C67.2375 15.7002 66.9827 15.3261 66.6519 15.0084C66.3273 14.6906 65.9436 14.4461 65.5024 14.2748C65.0596 14.0965 64.579 14.0082 64.0621 14.0082C63.5391 14.0082 63.0552 14.0964 62.6122 14.2748C62.1705 14.4464 61.7835 14.6943 61.4527 15.0185C61.1286 15.336 60.8742 15.7096 60.6897 16.138L60.6893 16.139C60.51 16.5639 60.4214 17.0297 60.4214 17.5347C60.4214 18.0397 60.51 18.5084 60.689 18.9392L60.6895 18.9404L60.69 18.9416C60.8745 19.3634 61.1285 19.7362 61.4517 20.0594L61.4528 20.0604L61.4538 20.0614C61.7843 20.3787 62.1706 20.6261 62.6114 20.8037ZM66.5105 16.4945C66.6419 16.8051 66.7091 17.1518 66.7091 17.5347C66.7091 17.9174 66.6424 18.2666 66.5107 18.584C66.3783 18.8969 66.1919 19.1734 65.9511 19.4142C65.7179 19.6474 65.4392 19.8307 65.1132 19.9635C64.7954 20.0894 64.4455 20.1532 64.0621 20.1532C63.6789 20.1532 63.3256 20.0894 63.001 19.9633C62.6756 19.8306 62.3937 19.6475 62.1541 19.4142C61.9199 19.1737 61.7332 18.8939 61.5942 18.5739C61.4626 18.2564 61.3961 17.9105 61.3961 17.5347C61.3961 17.152 61.4628 16.8064 61.594 16.496C61.7332 16.1755 61.9199 15.8989 62.1541 15.6647C62.3937 15.4251 62.6752 15.2423 62.9999 15.116L63.001 15.1156L63.002 15.1152C63.3264 14.983 63.6792 14.9162 64.0621 14.9162C64.445 14.9162 64.7943 14.983 65.1118 15.1148L65.1133 15.1154L65.1148 15.116C65.4392 15.2422 65.717 15.4247 65.9499 15.6635L65.9511 15.6647L65.9524 15.666C66.1921 15.8997 66.3781 16.1754 66.5105 16.4945Z" fill="white"/>
<path d="M54.7478 15.094V20.7235C54.7478 20.8782 54.8733 21.0037 55.028 21.0037H55.4517C55.6065 21.0037 55.732 20.8782 55.732 20.7235V15.094C55.732 15.0166 55.7947 14.9539 55.8721 14.9539H57.7918C57.9465 14.9539 58.072 14.8284 58.072 14.6736V14.3451C58.072 14.1903 57.9465 14.0648 57.7918 14.0648H52.688C52.5332 14.0648 52.4077 14.1903 52.4077 14.3451V14.6736C52.4077 14.8284 52.5332 14.9539 52.688 14.9539H54.6077C54.6851 14.9539 54.7478 15.0166 54.7478 15.094Z" fill="white"/>
<path d="M76.616 14.5385C76.7861 14.3601 76.6597 14.0648 76.4132 14.0648H75.9911C75.9187 14.0648 75.8493 14.0928 75.7973 14.1426L72.3904 16.8844C72.2987 16.9582 72.1624 16.8929 72.1624 16.7752V14.3451C72.1624 14.1903 72.0369 14.0648 71.8822 14.0648H71.4585C71.3037 14.0648 71.1782 14.1903 71.1782 14.3451V20.7235C71.1782 20.8782 71.3037 21.0037 71.4585 21.0037H71.8822C72.0369 21.0037 72.1624 20.8782 72.1624 20.7235V18.3557C72.1624 18.3143 72.1807 18.2751 72.2124 18.2484L73.1303 17.4321C73.1883 17.3834 73.2744 17.3895 73.3249 17.4458L76.3724 20.9154C76.4256 20.9759 76.5023 21.0107 76.583 21.0107H76.638C76.8765 21.0107 77.006 20.7316 76.8519 20.5494L76.8508 20.5481L73.9259 17.2231C73.8228 17.1059 73.8353 16.9271 73.9537 16.8254L76.616 14.5385Z" fill="white"/>
<path d="M88.6802 14.3451V20.7235C88.6802 20.8782 88.8057 21.0037 88.9605 21.0037H89.3841C89.5389 21.0037 89.6644 20.8782 89.6644 20.7235V16.3008C89.6644 16.1683 89.8313 16.1098 89.914 16.2134L93.6532 20.8983C93.7064 20.9649 93.787 21.0037 93.8723 21.0037H93.9647C94.1195 21.0037 94.245 20.8782 94.245 20.7235V14.3451C94.245 14.1903 94.1195 14.0648 93.9647 14.0648H93.8308C93.676 14.0648 93.5505 14.1903 93.5505 14.3451V18.7691C93.5505 18.9015 93.3837 18.96 93.301 18.8566L89.5521 14.17C89.4989 14.1035 89.4184 14.0648 89.3332 14.0648H88.9605C88.8057 14.0648 88.6802 14.1903 88.6802 14.3451Z" fill="white"/>
<path d="M104.695 32.4438L104.696 32.4442L104.697 32.4446C105.169 32.6084 105.66 32.6901 106.17 32.6901C106.668 32.6901 106.878 32.633 107.346 32.4302L107.347 32.4297C107.733 32.2501 108.029 32.0128 108.224 31.7133V31.7121C108.416 31.4111 108.513 31.0838 108.513 30.7331C108.513 30.3652 108.432 30.0525 108.259 29.8069C108.1 29.5715 107.886 29.3857 107.62 29.2492C107.37 29.1109 107.094 28.9996 106.794 28.9147C106.507 28.8317 106.216 28.7551 105.922 28.6849C105.635 28.6162 105.371 28.5384 105.129 28.4517C104.906 28.3692 104.729 28.2566 104.594 28.1164C104.477 27.989 104.413 27.8164 104.413 27.5845C104.413 27.3826 104.466 27.2076 104.569 27.0549C104.677 26.8985 104.846 26.7677 105.087 26.6676C105.325 26.5692 105.495 26.5166 105.883 26.5166C106.167 26.5166 106.462 26.5589 106.768 26.6446C107.026 26.7153 107.271 26.82 107.504 26.9584C107.648 27.0442 107.844 26.9907 107.914 26.8271L108.041 26.5267C108.092 26.4057 108.053 26.2593 107.936 26.1855C107.677 26.0235 107.379 25.8968 107.044 25.8041C106.664 25.6929 106.28 25.6371 105.892 25.6371C105.316 25.6371 104.971 25.7243 104.585 25.907C104.204 26.0808 103.912 26.3188 103.717 26.6247L103.716 26.6254C103.531 26.921 103.438 27.2481 103.438 27.6036C103.438 27.977 103.515 28.2948 103.68 28.5462L103.681 28.5481L103.683 28.55C103.847 28.7837 104.06 28.9721 104.319 29.115L104.32 29.1158C104.577 29.2541 104.856 29.3656 105.157 29.4506L105.159 29.451L105.16 29.4514C105.453 29.5277 105.745 29.6009 106.038 29.6709C106.324 29.7393 106.584 29.8199 106.818 29.9122L106.82 29.9128L106.821 29.9134C107.045 29.996 107.219 30.1085 107.347 30.2478L107.348 30.2489L107.349 30.2499C107.471 30.3777 107.538 30.5498 107.538 30.7807C107.538 30.9667 107.484 31.1349 107.374 31.289L107.372 31.2918C107.272 31.4396 107.105 31.5675 106.856 31.6683C106.505 31.8106 106.17 31.8106 106.17 31.8106C105.75 31.8106 105.348 31.7376 104.966 31.592C104.658 31.4677 104.404 31.323 104.203 31.1597C104.067 31.0494 103.849 31.0769 103.761 31.2482L103.617 31.5314C103.564 31.6368 103.58 31.7712 103.674 31.8574C103.932 32.0957 104.275 32.2899 104.695 32.4438Z" fill="white"/>
<path d="M96.6369 32.4327L96.6386 32.4333C97.0812 32.6051 97.5615 32.6901 98.0781 32.6901C98.5825 32.6901 99.0564 32.6049 99.4986 32.4333C99.8974 32.2786 100.242 32.0561 100.531 31.7657C100.641 31.6549 100.632 31.4812 100.528 31.377L100.275 31.1243C100.164 31.0128 99.988 31.018 99.8788 31.1196C99.6454 31.3369 99.3931 31.4968 99.1218 31.6012C98.8092 31.7214 98.4713 31.7821 98.1067 31.7821C97.7234 31.7821 97.3702 31.7183 97.0456 31.5922C96.7198 31.4594 96.4378 31.2761 96.198 31.0425C95.9573 30.8016 95.7678 30.525 95.6291 30.2118C95.4977 29.8947 95.4311 29.5459 95.4311 29.1636C95.4311 28.7809 95.4978 28.4353 95.6291 28.1249C95.7679 27.8051 95.9573 27.5289 96.1974 27.2949L96.1986 27.2936C96.4382 27.054 96.7197 26.8712 97.0445 26.7449L97.0455 26.7445L97.0466 26.7441C97.3709 26.6119 97.7238 26.5451 98.1067 26.5451C98.4713 26.5451 98.8092 26.6059 99.1218 26.726L99.1229 26.7265L99.124 26.7269C99.3944 26.8257 99.646 26.982 99.8789 27.1983C99.9881 27.2996 100.164 27.3049 100.275 27.1934L100.528 26.9407C100.632 26.8365 100.641 26.6628 100.531 26.552C100.242 26.262 99.8968 26.0426 99.4978 25.8936C99.056 25.7223 98.5856 25.6371 98.0876 25.6371C97.5707 25.6371 97.0901 25.7254 96.6473 25.9037C96.2062 26.075 95.8196 26.3194 95.4888 26.6369L95.4878 26.6378C95.1637 26.9554 94.9093 27.329 94.7247 27.7574L94.724 27.7591C94.5451 28.1899 94.4565 28.6586 94.4565 29.1636C94.4565 29.6686 94.5451 30.1373 94.724 30.5681L94.7247 30.5698C94.9093 30.9982 95.1637 31.3718 95.4878 31.6894C95.8124 32.0073 96.1959 32.2549 96.6369 32.4327Z" fill="white"/>
<path d="M89.9888 25.974V32.3524C89.9888 32.5072 90.1143 32.6326 90.269 32.6326H90.6927C90.8475 32.6326 90.973 32.5072 90.973 32.3524V25.974C90.973 25.8192 90.8475 25.6937 90.6927 25.6937H90.269C90.1143 25.6937 89.9888 25.8192 89.9888 25.974Z" fill="white"/>
<path d="M74.5691 26.7229V32.3524C74.5691 32.5072 74.6946 32.6326 74.8493 32.6326H75.273C75.4278 32.6326 75.5533 32.5072 75.5533 32.3524V26.7229C75.5533 26.6455 75.616 26.5828 75.6934 26.5828H77.613C77.7678 26.5828 77.8933 26.4573 77.8933 26.3025V25.974C77.8933 25.8192 77.7678 25.6937 77.613 25.6937H72.5093C72.3545 25.6937 72.229 25.8192 72.229 25.974V26.3025C72.229 26.4573 72.3545 26.5828 72.5093 26.5828H74.429C74.5063 26.5828 74.5691 26.6455 74.5691 26.7229Z" fill="white"/>
<path d="M65.4035 31.5356C65.4035 31.6904 65.529 31.8158 65.6838 31.8158H69.128C69.2828 31.8158 69.4083 31.9413 69.4083 32.0961V32.4246C69.4083 32.5794 69.2828 32.7049 69.128 32.7049H64.6996C64.5448 32.7049 64.4194 32.5794 64.4194 32.4246V26.0462C64.4194 25.8915 64.5448 25.766 64.6996 25.766H68.9853C69.1401 25.766 69.2656 25.8915 69.2656 26.0462V26.3748C69.2656 26.5295 69.1401 26.655 68.9853 26.655H65.6838C65.529 26.655 65.4035 26.7805 65.4035 26.9353V28.1826C65.4035 28.3374 65.529 28.4629 65.6838 28.4629H68.5668C68.6442 28.4629 68.7069 28.5256 68.7069 28.603V28.922C68.7069 28.9994 68.6442 29.0622 68.5668 29.0622H65.6838C65.529 29.0622 65.4035 29.1876 65.4035 29.3424V31.5356Z" fill="white"/>
<path d="M59.9986 25.6937C59.9087 25.6937 59.8244 25.7368 59.7716 25.8095L57.1755 29.3919C57.1197 29.4689 57.0051 29.4691 56.949 29.3924L54.3271 25.8085C54.2744 25.7364 54.1903 25.6937 54.101 25.6937H53.7319C53.5772 25.6937 53.4517 25.8192 53.4517 25.974V32.3524C53.4517 32.5072 53.5772 32.6326 53.7319 32.6326H54.1271C54.2818 32.6326 54.4073 32.5072 54.4073 32.3524V28.0121C54.4073 27.8774 54.5789 27.8203 54.6596 27.9281L56.7289 30.6928C56.7818 30.7635 56.8649 30.8051 56.9533 30.8051H57.1459C57.2342 30.8051 57.3173 30.7635 57.3703 30.6928L59.4395 27.9281C59.5202 27.8203 59.6918 27.8774 59.6918 28.0121V32.3524C59.6918 32.5072 59.8173 32.6326 59.9721 32.6326H60.3672C60.522 32.6326 60.6475 32.5072 60.6475 32.3524V25.974C60.6475 25.8192 60.522 25.6937 60.3672 25.6937H59.9986Z" fill="white"/>
<path fill-rule="evenodd" clip-rule="evenodd" d="M85.0728 30.242L85.0711 30.2428C84.9599 30.2914 84.915 30.4302 84.9855 30.5291L86.2268 32.2712C86.2929 32.364 86.2266 32.4927 86.1127 32.4927L85.7257 32.4926C85.6337 32.4926 85.5475 32.4474 85.4952 32.3717L84.2861 30.6223C84.2262 30.5356 84.1228 30.4906 84.0179 30.5003C83.8707 30.5141 83.7179 30.5209 83.5595 30.5209H82.1647C82.0082 30.5209 81.882 30.6491 81.8845 30.8056L81.9091 32.3479C81.9115 32.5044 81.7854 32.6326 81.6288 32.6326H81.2075C81.0527 32.6326 80.9272 32.5072 80.9272 32.3524V25.974C80.9272 25.8192 81.0527 25.6937 81.2075 25.6937H83.5595C84.1384 25.6937 84.6439 25.7879 85.072 25.9817C85.5001 26.1692 85.8331 26.4462 86.0649 26.8138C86.3042 27.1767 86.4202 27.6135 86.4202 28.1168C86.4202 28.6089 86.3036 29.042 86.0649 29.4103C85.8331 29.7716 85.5002 30.0484 85.0728 30.242ZM84.9628 29.2363C85.2746 28.9756 85.4358 28.6088 85.4358 28.1167C85.4358 27.6176 85.2742 27.248 84.9628 26.9876L84.9618 26.9868C84.6545 26.7249 84.1883 26.5826 83.5402 26.5826H82.1577C82.0029 26.5826 81.8774 26.7081 81.8774 26.8629V29.361C81.8774 29.5158 82.0029 29.6412 82.1577 29.6412H83.5402C84.1883 29.6412 84.6545 29.4989 84.9618 29.2371L84.9628 29.2363Z" fill="white"/>
</g>
<defs>
<clipPath id="clip0_9230_12217">
<rect width="109" height="45" fill="white" transform="translate(0 0.702515)"/>
</clipPath>
</defs>
</svg>
