<svg width="109" height="45" viewBox="0 0 109 45" fill="none" xmlns="http://www.w3.org/2000/svg">
<path d="M37.0774 38.6755C28.2291 47.0023 14.3059 46.5797 5.97898 37.7314C-2.34791 28.8832 -1.92525 14.96 6.92302 6.63314C15.7713 -1.69373 29.6945 -1.27107 38.0214 7.57717C46.3483 16.4254 45.9256 30.3486 37.0774 38.6755Z" fill="#000811"/>
<path d="M0.393109 18.5036C7.15141 17.6325 14.218 19.9034 19.245 25.2451C24.2719 30.5867 26.11 37.7778 24.8308 44.4707C18.0725 45.3418 11.0058 43.0709 5.97886 37.7292C0.951997 32.3876 -0.886163 25.1964 0.393109 18.5036Z" fill="#DDB800"/>
<path d="M27.4346 10.7256L28.2253 13.6026C28.5406 14.7499 29.4387 15.6453 30.5871 15.957L33.4665 16.7386L30.5895 17.5293C29.4422 17.8446 28.5468 18.7427 28.2351 19.8911L27.4535 22.7705L26.6628 19.8935C26.3475 18.7462 25.4494 17.8508 24.301 17.5391L21.4215 16.7575L24.2985 15.9668C25.4459 15.6515 26.3413 14.7534 26.653 13.605L27.4346 10.7256Z" fill="white"/>
<path d="M81.1137 19.1319C81.1137 19.2867 81.2392 19.4122 81.3939 19.4122H84.8382C84.9929 19.4122 85.1184 19.5376 85.1184 19.6924V20.021C85.1184 20.1757 84.9929 20.3012 84.8382 20.3012H80.4098C80.255 20.3012 80.1295 20.1757 80.1295 20.021V13.6426C80.1295 13.4878 80.255 13.3623 80.4098 13.3623H84.6955C84.8503 13.3623 84.9757 13.4878 84.9757 13.6426V13.9711C84.9757 14.1259 84.8503 14.2514 84.6955 14.2514H81.3939C81.2392 14.2514 81.1137 14.3768 81.1137 14.5316V15.7789C81.1137 15.9337 81.2392 16.0592 81.3939 16.0592H84.2769C84.3543 16.0592 84.4171 16.1219 84.4171 16.1993V16.5184C84.4171 16.5957 84.3543 16.6585 84.2769 16.6585H81.3939C81.2392 16.6585 81.1137 16.784 81.1137 16.9387V19.1319Z" fill="#000811"/>
<path fill-rule="evenodd" clip-rule="evenodd" d="M62.6115 20.1012L62.6127 20.1017L62.6138 20.1022C63.0624 20.2737 63.5456 20.3587 64.0622 20.3587C64.5788 20.3587 65.0591 20.2737 65.5017 20.1019L65.5034 20.1012C65.9442 19.9236 66.3276 19.6761 66.652 19.3584C66.9828 19.0408 67.2376 18.6667 67.416 18.2375C67.6015 17.8066 67.6934 17.3375 67.6934 16.8322C67.6934 16.3269 67.6015 15.8578 67.416 15.4269C67.2376 14.9977 66.9828 14.6236 66.652 14.3059C66.3274 13.9881 65.9437 13.7436 65.5025 13.5723C65.0597 13.394 64.5791 13.3057 64.0622 13.3057C63.5392 13.3057 63.0553 13.3939 62.6123 13.5723C62.1706 13.7439 61.7836 13.9918 61.4528 14.316C61.1287 14.6335 60.8743 15.0071 60.6898 15.4355L60.6894 15.4365C60.5101 15.8614 60.4215 16.3272 60.4215 16.8322C60.4215 17.3372 60.5101 17.8059 60.6891 18.2367L60.6896 18.2379L60.6901 18.2391C60.8746 18.6609 61.1286 19.0337 61.4518 19.3569L61.4529 19.3579L61.4539 19.3589C61.7844 19.6762 62.1707 19.9236 62.6115 20.1012ZM66.5106 15.792C66.642 16.1026 66.7092 16.4493 66.7092 16.8322C66.7092 17.2149 66.6425 17.5641 66.5108 17.8815C66.3784 18.1944 66.192 18.4709 65.9512 18.7117C65.718 18.9449 65.4393 19.1282 65.1133 19.261C64.7955 19.3869 64.4456 19.4507 64.0622 19.4507C63.679 19.4507 63.3257 19.3869 63.0011 19.2608C62.6757 19.1281 62.3938 18.945 62.1542 18.7117C61.92 18.4712 61.7333 18.1914 61.5943 17.8714C61.4627 17.5539 61.3962 17.208 61.3962 16.8322C61.3962 16.4495 61.4629 16.1039 61.5941 15.7935C61.7333 15.473 61.92 15.1964 62.1542 14.9622C62.3938 14.7226 62.6753 14.5398 63 14.4135L63.0011 14.4131L63.0021 14.4127C63.3265 14.2805 63.6793 14.2137 64.0622 14.2137C64.4451 14.2137 64.7944 14.2805 65.1119 14.4123L65.1134 14.4129L65.1149 14.4135C65.4393 14.5397 65.7171 14.7222 65.95 14.961L65.9512 14.9622L65.9525 14.9635C66.1922 15.1972 66.3782 15.4729 66.5106 15.792Z" fill="#000811"/>
<path d="M54.7479 14.3915V20.021C54.7479 20.1757 54.8734 20.3012 55.0281 20.3012H55.4518C55.6066 20.3012 55.7321 20.1757 55.7321 20.021V14.3915C55.7321 14.3141 55.7948 14.2514 55.8722 14.2514H57.7919C57.9466 14.2514 58.0721 14.1259 58.0721 13.9711V13.6426C58.0721 13.4878 57.9466 13.3623 57.7919 13.3623H52.6881C52.5333 13.3623 52.4078 13.4878 52.4078 13.6426V13.9711C52.4078 14.1259 52.5333 14.2514 52.6881 14.2514H54.6078C54.6852 14.2514 54.7479 14.3141 54.7479 14.3915Z" fill="#000811"/>
<path d="M76.6161 13.836C76.7862 13.6576 76.6598 13.3623 76.4133 13.3623H75.9912C75.9188 13.3623 75.8494 13.3903 75.7974 13.4401L72.3905 16.1819C72.2988 16.2557 72.1625 16.1904 72.1625 16.0727V13.6426C72.1625 13.4878 72.037 13.3623 71.8823 13.3623H71.4586C71.3038 13.3623 71.1783 13.4878 71.1783 13.6426V20.021C71.1783 20.1757 71.3038 20.3012 71.4586 20.3012H71.8823C72.037 20.3012 72.1625 20.1757 72.1625 20.021V17.6532C72.1625 17.6118 72.1808 17.5726 72.2125 17.5459L73.1304 16.7296C73.1884 16.6809 73.2745 16.687 73.325 16.7433L76.3725 20.2129C76.4257 20.2734 76.5024 20.3082 76.5831 20.3082H76.6381C76.8766 20.3082 77.0061 20.0291 76.852 19.8469L76.8509 19.8456L73.926 16.5206C73.8229 16.4034 73.8354 16.2246 73.9538 16.1229L76.6161 13.836Z" fill="#000811"/>
<path d="M88.6803 13.6426V20.021C88.6803 20.1757 88.8058 20.3012 88.9606 20.3012H89.3842C89.539 20.3012 89.6645 20.1757 89.6645 20.021V15.5983C89.6645 15.4658 89.8314 15.4073 89.9141 15.5109L93.6533 20.1958C93.7065 20.2624 93.7871 20.3012 93.8724 20.3012H93.9648C94.1196 20.3012 94.2451 20.1757 94.2451 20.021V13.6426C94.2451 13.4878 94.1196 13.3623 93.9648 13.3623H93.8309C93.6761 13.3623 93.5506 13.4878 93.5506 13.6426V18.0666C93.5506 18.199 93.3838 18.2575 93.3011 18.1541L89.5522 13.4675C89.499 13.401 89.4185 13.3623 89.3333 13.3623H88.9606C88.8058 13.3623 88.6803 13.4878 88.6803 13.6426Z" fill="#000811"/>
<path d="M104.695 31.7413L104.696 31.7417L104.697 31.7421C105.169 31.9059 105.66 31.9876 106.17 31.9876C106.668 31.9876 106.878 31.9305 107.346 31.7277L107.347 31.7272C107.733 31.5476 108.029 31.3103 108.224 31.0108V31.0096C108.416 30.7086 108.513 30.3813 108.513 30.0306C108.513 29.6627 108.432 29.35 108.259 29.1044C108.1 28.869 107.886 28.6832 107.62 28.5467C107.37 28.4084 107.094 28.2971 106.794 28.2122C106.507 28.1292 106.216 28.0526 105.922 27.9824C105.635 27.9137 105.371 27.8359 105.129 27.7492C104.906 27.6667 104.729 27.5541 104.594 27.4139C104.477 27.2865 104.413 27.1139 104.413 26.882C104.413 26.6801 104.466 26.5051 104.569 26.3524C104.677 26.196 104.846 26.0652 105.087 25.9651C105.325 25.8667 105.495 25.8141 105.883 25.8141C106.167 25.8141 106.462 25.8564 106.768 25.9421C107.026 26.0128 107.271 26.1175 107.504 26.2559C107.648 26.3417 107.844 26.2882 107.914 26.1246L108.041 25.8242C108.092 25.7032 108.053 25.5568 107.936 25.483C107.677 25.321 107.379 25.1943 107.044 25.1016C106.664 24.9904 106.28 24.9346 105.892 24.9346C105.316 24.9346 104.971 25.0218 104.585 25.2045C104.204 25.3783 103.912 25.6163 103.717 25.9222L103.716 25.9229C103.531 26.2185 103.438 26.5456 103.438 26.9011C103.438 27.2745 103.515 27.5923 103.68 27.8437L103.681 27.8456L103.683 27.8475C103.847 28.0812 104.06 28.2696 104.319 28.4125L104.32 28.4133C104.577 28.5516 104.856 28.6631 105.157 28.7481L105.159 28.7485L105.16 28.7489C105.453 28.8252 105.745 28.8984 106.038 28.9684C106.324 29.0368 106.584 29.1174 106.818 29.2097L106.82 29.2103L106.821 29.2109C107.045 29.2935 107.219 29.406 107.347 29.5453L107.348 29.5464L107.349 29.5474C107.471 29.6752 107.538 29.8473 107.538 30.0782C107.538 30.2642 107.484 30.4324 107.374 30.5865L107.372 30.5893C107.272 30.7371 107.105 30.865 106.856 30.9658C106.505 31.1081 106.17 31.1081 106.17 31.1081C105.75 31.1081 105.348 31.0351 104.966 30.8895C104.658 30.7652 104.404 30.6205 104.203 30.4572C104.067 30.3469 103.849 30.3744 103.761 30.5457L103.617 30.8289C103.564 30.9343 103.58 31.0687 103.674 31.1549C103.932 31.3932 104.275 31.5874 104.695 31.7413Z" fill="#000811"/>
<path d="M96.6371 31.7302L96.6388 31.7308C97.0814 31.9026 97.5617 31.9876 98.0783 31.9876C98.5827 31.9876 99.0566 31.9024 99.4988 31.7308C99.8976 31.5761 100.242 31.3536 100.531 31.0632C100.641 30.9524 100.632 30.7787 100.528 30.6745L100.275 30.4218C100.164 30.3103 99.9882 30.3155 99.879 30.4171C99.6456 30.6344 99.3933 30.7943 99.122 30.8987C98.8094 31.0189 98.4715 31.0796 98.1069 31.0796C97.7236 31.0796 97.3704 31.0158 97.0458 30.8897C96.72 30.7569 96.438 30.5736 96.1982 30.34C95.9575 30.0991 95.768 29.8225 95.6293 29.5093C95.4979 29.1922 95.4313 28.8434 95.4313 28.4611C95.4313 28.0784 95.498 27.7328 95.6293 27.4224C95.7681 27.1026 95.9575 26.8264 96.1976 26.5924L96.1988 26.5911C96.4384 26.3515 96.7199 26.1687 97.0447 26.0424L97.0457 26.042L97.0468 26.0416C97.3711 25.9094 97.724 25.8426 98.1069 25.8426C98.4715 25.8426 98.8094 25.9034 99.122 26.0235L99.1231 26.024L99.1242 26.0244C99.3946 26.1232 99.6462 26.2795 99.8791 26.4958C99.9883 26.5971 100.164 26.6024 100.275 26.4909L100.528 26.2382C100.632 26.134 100.641 25.9603 100.531 25.8495C100.242 25.5595 99.897 25.3401 99.498 25.1911C99.0562 25.0198 98.5858 24.9346 98.0878 24.9346C97.5709 24.9346 97.0903 25.0229 96.6475 25.2012C96.2064 25.3725 95.8198 25.6169 95.489 25.9344L95.488 25.9353C95.1639 26.2529 94.9095 26.6265 94.7249 27.0549L94.7242 27.0566C94.5453 27.4874 94.4567 27.9561 94.4567 28.4611C94.4567 28.9661 94.5453 29.4348 94.7242 29.8656L94.7249 29.8673C94.9095 30.2957 95.1639 30.6693 95.488 30.9869C95.8126 31.3048 96.1961 31.5524 96.6371 31.7302Z" fill="#000811"/>
<path d="M89.9889 25.2715V31.6499C89.9889 31.8047 90.1144 31.9301 90.2691 31.9301H90.6928C90.8476 31.9301 90.9731 31.8047 90.9731 31.6499V25.2715C90.9731 25.1167 90.8476 24.9912 90.6928 24.9912H90.2691C90.1144 24.9912 89.9889 25.1167 89.9889 25.2715Z" fill="#000811"/>
<path d="M74.5692 26.0204V31.6499C74.5692 31.8047 74.6947 31.9301 74.8494 31.9301H75.2731C75.4279 31.9301 75.5534 31.8047 75.5534 31.6499V26.0204C75.5534 25.943 75.6161 25.8803 75.6935 25.8803H77.6131C77.7679 25.8803 77.8934 25.7548 77.8934 25.6V25.2715C77.8934 25.1167 77.7679 24.9912 77.6131 24.9912H72.5094C72.3546 24.9912 72.2291 25.1167 72.2291 25.2715V25.6C72.2291 25.7548 72.3546 25.8803 72.5094 25.8803H74.4291C74.5064 25.8803 74.5692 25.943 74.5692 26.0204Z" fill="#000811"/>
<path d="M65.4037 30.8331C65.4037 30.9879 65.5292 31.1133 65.684 31.1133H69.1282C69.283 31.1133 69.4085 31.2388 69.4085 31.3936V31.7221C69.4085 31.8769 69.283 32.0024 69.1282 32.0024H64.6998C64.545 32.0024 64.4196 31.8769 64.4196 31.7221V25.3437C64.4196 25.189 64.545 25.0635 64.6998 25.0635H68.9855C69.1403 25.0635 69.2658 25.189 69.2658 25.3437V25.6723C69.2658 25.827 69.1403 25.9525 68.9855 25.9525H65.684C65.5292 25.9525 65.4037 26.078 65.4037 26.2328V27.4801C65.4037 27.6349 65.5292 27.7604 65.684 27.7604H68.567C68.6444 27.7604 68.7071 27.8231 68.7071 27.9005V28.2195C68.7071 28.2969 68.6444 28.3597 68.567 28.3597H65.684C65.5292 28.3597 65.4037 28.4851 65.4037 28.6399V30.8331Z" fill="#000811"/>
<path d="M59.9987 24.9912C59.9088 24.9912 59.8245 25.0343 59.7717 25.107L57.1756 28.6894C57.1198 28.7664 57.0052 28.7666 56.9491 28.6899L54.3272 25.106C54.2745 25.0339 54.1904 24.9912 54.1011 24.9912H53.732C53.5773 24.9912 53.4518 25.1167 53.4518 25.2715V31.6499C53.4518 31.8047 53.5773 31.9301 53.732 31.9301H54.1272C54.2819 31.9301 54.4074 31.8047 54.4074 31.6499V27.3096C54.4074 27.1749 54.579 27.1178 54.6597 27.2256L56.729 29.9903C56.7819 30.061 56.865 30.1026 56.9534 30.1026H57.146C57.2343 30.1026 57.3174 30.061 57.3704 29.9903L59.4396 27.2256C59.5203 27.1178 59.6919 27.1749 59.6919 27.3096V31.6499C59.6919 31.8047 59.8174 31.9301 59.9722 31.9301H60.3673C60.5221 31.9301 60.6476 31.8047 60.6476 31.6499V25.2715C60.6476 25.1167 60.5221 24.9912 60.3673 24.9912H59.9987Z" fill="#000811"/>
<path fill-rule="evenodd" clip-rule="evenodd" d="M85.073 29.5395L85.0713 29.5403C84.9601 29.5889 84.9151 29.7277 84.9856 29.8266L86.227 31.5687C86.2931 31.6615 86.2268 31.7902 86.1129 31.7902L85.7259 31.7901C85.6339 31.7901 85.5477 31.7449 85.4954 31.6692L84.2863 29.9198C84.2264 29.8331 84.123 29.7881 84.0181 29.7978C83.8709 29.8116 83.7181 29.8184 83.5597 29.8184H82.1649C82.0084 29.8184 81.8822 29.9466 81.8847 30.1031L81.9093 31.6454C81.9117 31.8019 81.7856 31.9301 81.629 31.9301H81.2076C81.0528 31.9301 80.9274 31.8047 80.9274 31.6499V25.2715C80.9274 25.1167 81.0528 24.9912 81.2076 24.9912H83.5597C84.1386 24.9912 84.6441 25.0854 85.0722 25.2792C85.5003 25.4667 85.8333 25.7437 86.0651 26.1113C86.3044 26.4742 86.4204 26.911 86.4204 27.4143C86.4204 27.9064 86.3038 28.3395 86.0651 28.7078C85.8333 29.0691 85.5004 29.3459 85.073 29.5395ZM84.963 28.5338C85.2748 28.2731 85.436 27.9063 85.436 27.4142C85.436 26.9151 85.2744 26.5455 84.963 26.2851L84.962 26.2843C84.6547 26.0224 84.1885 25.8801 83.5404 25.8801H82.1579C82.0031 25.8801 81.8776 26.0056 81.8776 26.1604V28.6585C81.8776 28.8133 82.0031 28.9387 82.1579 28.9387H83.5404C84.1885 28.9387 84.6547 28.7964 84.962 28.5346L84.963 28.5338Z" fill="#000811"/>
</svg>
