<svg viewBox="0 0 240 240" fill="none" xmlns="http://www.w3.org/2000/svg">
<g clip-path="url(#clip0_444_674)">
<path d="M175.725 41.51H65.2649C52.1426 41.51 41.5049 52.1477 41.5049 65.27V175.71C41.5049 188.832 52.1426 199.47 65.2649 199.47H175.725C188.847 199.47 199.485 188.832 199.485 175.71V65.27C199.485 52.1477 188.847 41.51 175.725 41.51Z" fill="#002D67"/>
<path d="M197.825 120.85C197.825 77.95 163.045 43.17 120.145 43.17C77.2448 43.17 42.4648 77.95 42.4648 120.85" fill="#FF6233"/>
<path d="M118.845 164.89C95.9049 164.89 77.2849 146.29 77.2849 123.33C77.2849 100.37 95.8849 81.77 118.845 81.77C141.805 81.77 160.405 100.37 160.405 123.33C160.405 146.29 141.805 164.89 118.845 164.89Z" fill="#FFBD00"/>
</g>
</svg>
