<svg viewBox="0 0 240 240" fill="none" xmlns="http://www.w3.org/2000/svg">
<g clip-path="url(#clip0_444_685)">
<path d="M175.725 41.51H65.265C52.1427 41.51 41.505 52.1477 41.505 65.27V175.71C41.505 188.832 52.1427 199.47 65.265 199.47H175.725C188.847 199.47 199.485 188.832 199.485 175.71V65.27C199.485 52.1477 188.847 41.51 175.725 41.51Z" fill="#002D67"/>
<path d="M120.485 163.19C97.5451 163.19 78.925 144.59 78.925 121.63C78.925 98.6701 97.5251 80.0701 120.485 80.0701C143.445 80.0701 162.045 98.6701 162.045 121.63C162.045 144.59 143.445 163.19 120.485 163.19Z" fill="#FFBD00"/>
<path d="M73.025 41.55C77.765 63.43 97.205 79.81 120.505 79.81C143.805 79.81 163.225 63.43 167.965 41.55H73.025Z" fill="#FF6233"/>
</g>
</svg>
