<svg viewBox="0 0 240 240" fill="none" xmlns="http://www.w3.org/2000/svg">
<g clip-path="url(#clip0_444_680)">
<path d="M175.725 41.51H65.2649C52.1426 41.51 41.5049 52.1477 41.5049 65.27V175.71C41.5049 188.832 52.1426 199.47 65.2649 199.47H175.725C188.847 199.47 199.485 188.832 199.485 175.71V65.27C199.485 52.1477 188.847 41.51 175.725 41.51Z" fill="#002D67"/>
<path d="M62.1448 199.21C62.1448 166.99 88.2648 140.87 120.485 140.87C152.705 140.87 178.825 166.99 178.825 199.21H62.1448Z" fill="#FF6233"/>
<path d="M120.485 140.77C99.1049 140.77 81.7849 123.45 81.7849 102.07C81.7849 80.69 99.1049 63.37 120.485 63.37C141.865 63.37 159.185 80.69 159.185 102.07C159.185 123.45 141.865 140.77 120.485 140.77Z" fill="#FFBD00"/>
</g>
</svg>
