<svg  viewBox="0 0 48 48" fill="none" xmlns="http://www.w3.org/2000/svg">
<path d="M56.6289 28.3984C56.6289 12.9344 44.0929 0.398438 28.6289 0.398438C13.1649 0.398438 0.628906 12.9344 0.628906 28.3984C0.628906 43.8624 13.1649 56.3984 28.6289 56.3984C44.0929 56.3984 56.6289 43.8624 56.6289 28.3984Z" fill="url(#paint0_linear_485_1393)"/>
<path fill-rule="evenodd" clip-rule="evenodd" d="M25.3659 14.3984H31.0229C31.3822 14.3995 31.7342 14.5 32.0399 14.6889C32.3457 14.8777 32.5931 15.1476 32.7549 15.4684L45.6369 40.7804C46.0119 41.5184 45.4849 42.3974 44.6649 42.3974H38.1609C37.7985 42.3963 37.4437 42.294 37.1363 42.1021C36.8289 41.9103 36.5811 41.6364 36.4209 41.3114L32.6609 33.7514C32.5215 33.4705 32.4502 33.1607 32.4528 32.8471C32.4554 32.5336 32.5318 32.225 32.6759 31.9464L35.4779 26.5284C36.1579 25.2154 35.2189 23.6394 33.7549 23.6374L22.6479 23.6254C21.1829 23.6234 20.2409 25.1984 20.9179 26.5134L23.4079 31.3494C23.6462 31.8134 23.7723 32.3268 23.776 32.8484C23.7796 33.37 23.6607 33.8852 23.4289 34.3524L19.9689 41.3104C19.8088 41.6356 19.5611 41.9096 19.2536 42.1014C18.9462 42.2933 18.5913 42.3955 18.2289 42.3964H11.7239C10.9049 42.3964 10.3769 41.5174 10.7519 40.7804L23.6339 15.4684C23.7954 15.1474 24.0428 14.8775 24.3486 14.6886C24.6543 14.4997 25.0065 14.3993 25.3659 14.3984ZM31.7739 32.8414V32.8484C29.7439 32.8894 28.1089 34.5314 28.1089 36.5514C28.1089 34.5344 26.4819 32.8954 24.4569 32.8484V32.8404C26.4819 32.7934 28.1089 31.1544 28.1089 29.1374C28.1089 31.1594 29.7439 32.8004 31.7739 32.8414Z" fill="white"/>
<defs>
<linearGradient id="paint0_linear_485_1393" x1="12.6289" y1="5.89844" x2="45.1289" y2="49.8984" gradientUnits="userSpaceOnUse">
<stop stop-color="#199FD5"/>
<stop offset="0.54" stop-color="#4D50ED"/>
<stop offset="1" stop-color="#3238E7"/>
</linearGradient>
</defs>
</svg>
