<svg viewBox="0 0 56 56" fill="none" xmlns="http://www.w3.org/2000/svg"><g clip-path="url(#a)"><rect width="56" height="56" rx="28" fill="url(#b)"/><path d="M31.145 32.45v-.007c-2.03-.041-3.665-1.682-3.665-3.704 0 2.017-1.627 3.656-3.652 3.703v.008c2.025.047 3.652 1.686 3.652 3.703 0-2.02 1.634-3.662 3.665-3.703Z" fill="#fff"/><path d="M30.394 14h-5.657c-.73 0-1.397.412-1.732 1.07L10.123 40.382c-.375.737.153 1.616.972 1.616H17.6c.736 0 1.409-.42 1.74-1.086l3.46-6.958a3.33 3.33 0 0 0-.021-3.003l-2.49-4.836c-.677-1.315.265-2.89 1.73-2.888l11.107.012c1.464.002 2.403 1.578 1.723 2.891l-2.802 5.418a1.997 1.997 0 0 0-.015 1.805l3.76 7.56a1.946 1.946 0 0 0 1.74 1.086h6.504c.82 0 1.347-.879.972-1.617L32.126 15.07A1.946 1.946 0 0 0 30.394 14Z" fill="#fff"/></g><defs><linearGradient id="b" x1="12" y1="5.5" x2="44.5" y2="49.5" gradientUnits="userSpaceOnUse"><stop stop-color="#199FD5"/><stop offset=".54" stop-color="#4D50ED"/><stop offset="1" stop-color="#3238E7"/></linearGradient><clipPath id="a"><path fill="#fff" d="M0 0h56v56H0z"/></clipPath></defs></svg>