<svg width="48" height="48" viewBox="0 0 48 48" fill="none" xmlns="http://www.w3.org/2000/svg">
<path d="M48 24C48 10.7451 37.2549 0 24 0C10.7451 0 0 10.7451 0 24C0 37.2549 10.7451 48 24 48C37.2549 48 48 37.2549 48 24Z" fill="url(#paint0_linear_17605_434)"/>
<path fill-rule="evenodd" clip-rule="evenodd" d="M21.2031 12H26.052C26.36 12.0009 26.6617 12.0871 26.9237 12.249C27.1858 12.4108 27.3979 12.6421 27.5366 12.9171L38.5783 34.6131C38.8997 35.2457 38.448 35.9991 37.7451 35.9991H32.1703C31.8597 35.9982 31.5555 35.9105 31.2921 35.746C31.0286 35.5816 30.8162 35.3469 30.6789 35.0683L27.456 28.5883C27.3365 28.3475 27.2754 28.082 27.2776 27.8132C27.2799 27.5444 27.3453 27.2799 27.4689 27.0411L29.8706 22.3971C30.4534 21.2717 29.6486 19.9208 28.3937 19.9191L18.8734 19.9088C17.6177 19.9071 16.8103 21.2571 17.3906 22.3843L19.5249 26.5294C19.7291 26.9271 19.8372 27.3672 19.8404 27.8143C19.8435 28.2614 19.7415 28.703 19.5429 29.1034L16.5771 35.0674C16.4399 35.3462 16.2276 35.581 15.964 35.7454C15.7005 35.9099 15.3963 35.9975 15.0857 35.9983H9.51C8.808 35.9983 8.35542 35.2448 8.67685 34.6131L19.7186 12.9171C19.857 12.642 20.0691 12.4106 20.3312 12.2487C20.5932 12.0868 20.8951 12.0007 21.2031 12ZM26.6957 27.8083V27.8143C24.9557 27.8494 23.5543 29.2568 23.5543 30.9883C23.5543 29.2594 22.1597 27.8546 20.424 27.8143V27.8074C22.1597 27.7671 23.5543 26.3623 23.5543 24.6334C23.5543 26.3666 24.9557 27.7731 26.6957 27.8083Z" fill="white"/>
<defs>
<linearGradient id="paint0_linear_17605_434" x1="10.2857" y1="4.71429" x2="38.1429" y2="42.4286" gradientUnits="userSpaceOnUse">
<stop stop-color="#199FD5"/>
<stop offset="0.54" stop-color="#4D50ED"/>
<stop offset="1" stop-color="#3238E7"/>
</linearGradient>
</defs>
</svg>
