<svg width="56" height="56" fill="none" xmlns="http://www.w3.org/2000/svg"><g clip-path="url(#a)"><path d="M56 28C56 12.536 43.464 0 28 0S0 12.536 0 28s12.536 28 28 28 28-12.536 28-28Z" fill="url(#b)"/><path fill-rule="evenodd" clip-rule="evenodd" d="M24.737 14h5.657a1.946 1.946 0 0 1 1.732 1.07l12.882 25.312c.375.738-.152 1.617-.972 1.617h-6.504a1.947 1.947 0 0 1-1.74-1.086l-3.76-7.56a1.997 1.997 0 0 1 .015-1.805l2.802-5.418c.68-1.313-.259-2.889-1.723-2.891l-11.107-.012c-1.465-.002-2.407 1.573-1.73 2.888l2.49 4.836a3.331 3.331 0 0 1 .021 3.003l-3.46 6.958a1.945 1.945 0 0 1-1.74 1.086h-6.505c-.819 0-1.347-.879-.972-1.616L23.005 15.07A1.944 1.944 0 0 1 24.737 14Zm6.408 18.443v.007c-2.03.041-3.665 1.683-3.665 3.703 0-2.017-1.627-3.656-3.652-3.703v-.008c2.025-.047 3.652-1.686 3.652-3.703 0 2.022 1.635 3.663 3.665 3.704Z" fill="#fff"/></g><defs><linearGradient id="b" x1="12" y1="5.5" x2="44.5" y2="49.5" gradientUnits="userSpaceOnUse"><stop stop-color="#199FD5"/><stop offset=".54" stop-color="#4D50ED"/><stop offset="1" stop-color="#3238E7"/></linearGradient><clipPath id="a"><path fill="#fff" d="M0 0h56v56H0z"/></clipPath></defs></svg>