<?xml version="1.0" encoding="UTF-8"?>
<svg id="Layer_2" data-name="Layer 2" xmlns="http://www.w3.org/2000/svg" viewBox="0 0 86.6 100">
  <defs>
    <style>
      .cls-1 {
        stroke-width: 0px;
      }
    </style>
  </defs>
  <g id="Cosmos_Suite" data-name="Cosmos Suite">
    <g id="Hydro_Icon_Black">
      <path class="cls-1" d="M43.3,100L0,75V25L43.3,0l43.3,25v50l-43.3,25ZM3.65,72.9l39.66,22.89,39.66-22.89V27.1L43.3,4.21,3.65,27.1v45.79Z"/>
      <g>
        <path class="cls-1" d="M55.37,48.18c-3.55,0-5.36-1.64-6.96-3.09-1.47-1.33-2.63-2.38-5.12-2.38s-3.65,1.05-5.12,2.38c-1.6,1.45-3.41,3.09-6.95,3.09s-5.36-1.64-6.96-3.09c-1.47-1.33-2.63-2.38-5.12-2.38v-2.73c3.55,0,5.36,1.64,6.96,3.09,1.47,1.33,2.63,2.38,5.12,2.38s3.65-1.05,5.12-2.38c1.6-1.45,3.41-3.09,6.95-3.09s5.36,1.64,6.96,3.09c1.47,1.33,2.63,2.38,5.12,2.38s3.65-1.05,5.12-2.38c1.6-1.45,3.41-3.09,6.96-3.09v2.73c-2.49,0-3.65,1.05-5.12,2.38-1.6,1.45-3.41,3.09-6.96,3.09Z"/>
        <path class="cls-1" d="M55.37,36.33c-3.55,0-5.36-1.64-6.96-3.09-1.47-1.33-2.63-2.38-5.12-2.38s-3.65,1.05-5.12,2.38c-1.6,1.45-3.41,3.09-6.95,3.09s-5.36-1.64-6.96-3.09c-1.47-1.33-2.63-2.38-5.12-2.38v-2.73c3.55,0,5.36,1.64,6.96,3.09,1.47,1.33,2.63,2.38,5.12,2.38s3.65-1.05,5.12-2.38c1.6-1.45,3.41-3.09,6.95-3.09s5.36,1.64,6.96,3.09c1.47,1.33,2.63,2.38,5.12,2.38s3.65-1.05,5.12-2.38c1.6-1.45,3.41-3.09,6.96-3.09v2.73c-2.49,0-3.65,1.05-5.12,2.38-1.6,1.45-3.41,3.09-6.96,3.09Z"/>
        <path class="cls-1" d="M55.37,71.87c-3.55,0-5.36-1.64-6.96-3.09-1.47-1.33-2.63-2.38-5.12-2.38s-3.65,1.05-5.12,2.38c-1.6,1.45-3.41,3.09-6.95,3.09s-5.36-1.64-6.96-3.09c-1.47-1.33-2.63-2.38-5.12-2.38v-2.73c3.55,0,5.36,1.64,6.96,3.09,1.47,1.33,2.63,2.38,5.12,2.38s3.65-1.05,5.12-2.38c1.6-1.45,3.41-3.09,6.95-3.09s5.36,1.64,6.96,3.09c1.47,1.33,2.63,2.38,5.12,2.38s3.65-1.05,5.12-2.38c1.6-1.45,3.41-3.09,6.96-3.09v2.73c-2.49,0-3.65,1.05-5.12,2.38-1.6,1.45-3.41,3.09-6.96,3.09Z"/>
        <path class="cls-1" d="M55.37,60.03c-3.55,0-5.36-1.64-6.96-3.09-1.47-1.33-2.63-2.38-5.12-2.38s-3.65,1.05-5.12,2.38c-1.6,1.45-3.41,3.09-6.95,3.09s-5.36-1.64-6.96-3.09c-1.47-1.33-2.63-2.38-5.12-2.38v-2.73c3.55,0,5.36,1.64,6.96,3.09,1.47,1.33,2.63,2.38,5.12,2.38s3.65-1.05,5.12-2.38c1.6-1.45,3.41-3.09,6.95-3.09s5.36,1.64,6.96,3.09c1.47,1.33,2.63,2.38,5.12,2.38s3.65-1.05,5.12-2.38c1.6-1.45,3.41-3.09,6.96-3.09v2.73c-2.49,0-3.65,1.05-5.12,2.38-1.6,1.45-3.41,3.09-6.96,3.09Z"/>
      </g>
    </g>
  </g>
</svg>