<svg width="48" height="48" viewBox="0 0 48 48" fill="none" xmlns="http://www.w3.org/2000/svg">
<path d="M23.351 47L3 35.25V11.75L23.351 0L43.702 11.75V35.25L23.351 47ZM4.7155 34.263L23.3557 45.0213L41.9959 34.263V12.737L23.351 1.9787L4.7155 12.737V34.263Z" fill="black"/>
<path d="M29.0238 22.6446C27.3553 22.6446 26.5046 21.8738 25.7526 21.1923C25.0617 20.5672 24.5166 20.0737 23.3463 20.0737C22.176 20.0737 21.6307 20.5672 20.9398 21.1923C20.1878 21.8738 19.3371 22.6446 17.6733 22.6446C16.0095 22.6446 15.1541 21.8738 14.4021 21.1923C13.7112 20.5672 13.166 20.0737 11.9957 20.0737V18.7906C13.6642 18.7906 14.5149 19.5614 15.2669 20.2429C15.9578 20.868 16.503 21.3615 17.6733 21.3615C18.8436 21.3615 19.3888 20.868 20.0797 20.2429C20.8317 19.5614 21.6825 18.7906 23.3463 18.7906C25.0101 18.7906 25.8654 19.5614 26.6174 20.2429C27.3083 20.868 27.8535 21.3615 29.0238 21.3615C30.1941 21.3615 30.7394 20.868 31.4303 20.2429C32.1823 19.5614 33.0329 18.7906 34.7014 18.7906V20.0737C33.5311 20.0737 32.986 20.5672 32.2951 21.1923C31.5431 21.8738 30.6923 22.6446 29.0238 22.6446Z" fill="black"/>
<path d="M29.0238 17.0751C27.3553 17.0751 26.5046 16.3043 25.7526 15.6228C25.0617 14.9977 24.5166 14.5042 23.3463 14.5042C22.176 14.5042 21.6307 14.9977 20.9398 15.6228C20.1878 16.3043 19.3371 17.0751 17.6733 17.0751C16.0095 17.0751 15.1541 16.3043 14.4021 15.6228C13.7112 14.9977 13.166 14.5042 11.9957 14.5042V13.2211C13.6642 13.2211 14.5149 13.9919 15.2669 14.6734C15.9578 15.2985 16.503 15.792 17.6733 15.792C18.8436 15.792 19.3888 15.2985 20.0797 14.6734C20.8317 13.9919 21.6825 13.2211 23.3463 13.2211C25.0101 13.2211 25.8654 13.9919 26.6174 14.6734C27.3083 15.2985 27.8535 15.792 29.0238 15.792C30.1941 15.792 30.7394 15.2985 31.4303 14.6734C32.1823 13.9919 33.0329 13.2211 34.7014 13.2211V14.5042C33.5311 14.5042 32.986 14.9977 32.2951 15.6228C31.5431 16.3043 30.6923 17.0751 29.0238 17.0751Z" fill="black"/>
<path d="M29.0238 33.7789C27.3553 33.7789 26.5046 33.0081 25.7526 32.3266C25.0617 31.7015 24.5166 31.208 23.3463 31.208C22.176 31.208 21.6307 31.7015 20.9398 32.3266C20.1878 33.0081 19.3371 33.7789 17.6733 33.7789C16.0095 33.7789 15.1541 33.0081 14.4021 32.3266C13.7112 31.7015 13.166 31.208 11.9957 31.208V29.9249C13.6642 29.9249 14.5149 30.6957 15.2669 31.3772C15.9578 32.0023 16.503 32.4958 17.6733 32.4958C18.8436 32.4958 19.3888 32.0023 20.0797 31.3772C20.8317 30.6957 21.6825 29.9249 23.3463 29.9249C25.0101 29.9249 25.8654 30.6957 26.6174 31.3772C27.3083 32.0023 27.8535 32.4958 29.0238 32.4958C30.1941 32.4958 30.7394 32.0023 31.4303 31.3772C32.1823 30.6957 33.0329 29.9249 34.7014 29.9249V31.208C33.5311 31.208 32.986 31.7015 32.2951 32.3266C31.5431 33.0081 30.6923 33.7789 29.0238 33.7789Z" fill="black"/>
<path d="M29.0238 28.2141C27.3553 28.2141 26.5046 27.4433 25.7526 26.7618C25.0617 26.1367 24.5166 25.6432 23.3463 25.6432C22.176 25.6432 21.6307 26.1367 20.9398 26.7618C20.1878 27.4433 19.3371 28.2141 17.6733 28.2141C16.0095 28.2141 15.1541 27.4433 14.4021 26.7618C13.7112 26.1367 13.166 25.6432 11.9957 25.6432V24.3601C13.6642 24.3601 14.5149 25.1309 15.2669 25.8124C15.9578 26.4375 16.503 26.931 17.6733 26.931C18.8436 26.931 19.3888 26.4375 20.0797 25.8124C20.8317 25.1309 21.6825 24.3601 23.3463 24.3601C25.0101 24.3601 25.8654 25.1309 26.6174 25.8124C27.3083 26.4375 27.8535 26.931 29.0238 26.931C30.1941 26.931 30.7394 26.4375 31.4303 25.8124C32.1823 25.1309 33.0329 24.3601 34.7014 24.3601V25.6432C33.5311 25.6432 32.986 26.1367 32.2951 26.7618C31.5431 27.4433 30.6923 28.2141 29.0238 28.2141Z" fill="black"/>
</svg>
