<svg width="48" height="48" viewBox="0 0 48 48" fill="none" xmlns="http://www.w3.org/2000/svg">
<path d="M2.29486 18.8798C3.29826 20.2894 4.58972 21.4714 6.07802 22.3433C7.56631 23.2153 9.22264 23.7626 10.9366 23.9419C10.0532 22.6049 8.77615 21.3745 7.17744 20.4347C5.57391 19.4998 3.88398 18.9864 2.29486 18.8798Z" fill="url(#paint0_linear_17602_387)"/>
<path d="M9.32346 16.7048C6.24125 14.8979 2.90938 14.4378 0.523305 15.2516C0.753751 16.0218 1.05621 16.7629 1.43069 17.4702C3.5047 17.4217 5.76595 17.9885 7.87357 19.2237C9.9812 20.459 11.5895 22.1592 12.5737 24C13.3707 23.9758 14.158 23.8741 14.9358 23.6948C14.4509 21.205 12.4009 18.5116 9.32346 16.7048Z" fill="url(#paint1_linear_17602_387)"/>
<path d="M24 9.37568C23.6063 7.76744 22.9006 6.25608 21.9164 4.93364C20.9322 3.6112 19.6935 2.49706 18.2773 1.66388C16.861 0.830692 15.2911 0.297841 13.6635 0.0943893C12.036 -0.109063 10.3845 0.0168838 8.80496 0.467385C11.4407 0.791939 14.3693 1.78982 17.2354 3.47557C20.1064 5.15647 22.4157 7.2249 24 9.37568Z" fill="url(#paint2_linear_17602_387)"/>
<path d="M20.1688 15.2709C18.8198 13.0087 16.5105 10.8434 13.6587 9.17707C10.8118 7.50586 7.80156 6.55641 5.18984 6.49344C2.89018 6.43531 1.16663 7.10864 0.460892 8.33904C0.456091 8.34873 0.45129 8.35357 0.446489 8.35842C0.384077 8.59093 0.326465 8.81861 0.278456 9.05112C1.26745 8.65875 2.41488 8.43592 3.68714 8.4117C6.5197 8.35842 9.68834 9.27395 12.6169 10.9888C15.5407 12.7036 17.9028 15.0287 19.2567 17.538C19.8664 18.6667 20.2456 19.7808 20.3945 20.8465C20.5673 20.6866 20.7401 20.5268 20.9082 20.3572C20.913 20.3476 20.9178 20.3427 20.9178 20.333C21.6235 19.1026 21.3499 17.257 20.1688 15.2709Z" fill="url(#paint3_linear_17602_387)"/>
<path d="M11.4935 12.9361C7.13423 10.3784 2.31406 9.98119 0 11.7638C0.00480096 12.3209 0.0480096 12.878 0.124825 13.4302C0.806561 13.2219 1.5075 13.0911 2.21804 13.0378C4.80576 12.8392 7.66233 13.5707 10.2501 15.0869C12.8426 16.6079 14.883 18.749 15.9968 21.1129C16.3041 21.762 16.5393 22.4402 16.6977 23.1426C17.2114 22.9391 17.7155 22.7018 18.1956 22.4257C18.5845 19.5192 15.8528 15.4938 11.4935 12.9361Z" fill="url(#paint4_linear_17602_387)"/>
<path d="M22.4109 11.4877C21.0474 9.23035 18.7141 7.0602 15.848 5.3793C12.977 3.6984 9.95719 2.72958 7.33587 2.65207C5.33867 2.59394 3.78796 3.0832 2.9862 4.00357C6.31806 3.43197 10.7109 4.3911 14.9742 6.88581C19.2326 9.38052 22.238 12.7617 23.3951 15.9636C23.7936 14.8059 23.4479 13.2074 22.4109 11.4877Z" fill="url(#paint5_linear_17602_387)"/>
<defs>
<linearGradient id="paint0_linear_17602_387" x1="38.3585" y1="-66.058" x2="-22.3359" y2="-5.48301" gradientUnits="userSpaceOnUse">
<stop offset="0.0001" stop-color="#C7F284"/>
<stop offset="1" stop-color="#00BEF0"/>
</linearGradient>
<linearGradient id="paint1_linear_17602_387" x1="25.9486" y1="-26.0533" x2="-7.58163" y2="10.1603" gradientUnits="userSpaceOnUse">
<stop offset="0.0001" stop-color="#C7F284"/>
<stop offset="1" stop-color="#00BEF0"/>
</linearGradient>
<linearGradient id="paint2_linear_17602_387" x1="11.8664" y1="12.9803" x2="-20.8626" y2="47.3876" gradientUnits="userSpaceOnUse">
<stop offset="0.0001" stop-color="#C7F284"/>
<stop offset="1" stop-color="#00BEF0"/>
</linearGradient>
<linearGradient id="paint3_linear_17602_387" x1="18.0652" y1="-2.58262" x2="-3.09264" y2="22.0334" gradientUnits="userSpaceOnUse">
<stop offset="0.0001" stop-color="#C7F284"/>
<stop offset="1" stop-color="#00BEF0"/>
</linearGradient>
<linearGradient id="paint4_linear_17602_387" x1="21.1993" y1="-11.0124" x2="-3.14574" y2="17.3649" gradientUnits="userSpaceOnUse">
<stop offset="0.0001" stop-color="#C7F284"/>
<stop offset="1" stop-color="#00BEF0"/>
</linearGradient>
<linearGradient id="paint5_linear_17602_387" x1="16.1008" y1="4.94338" x2="4.92381" y2="23.9867" gradientUnits="userSpaceOnUse">
<stop offset="0.0001" stop-color="#C7F284"/>
<stop offset="1" stop-color="#00BEF0"/>
</linearGradient>
</defs>
</svg>
