<svg width="46" height="48" viewBox="0 0 46 48" fill="none" xmlns="http://www.w3.org/2000/svg">
<path d="M5.32421 0.0903793C4.73959 -0.245065 4.09702 0.420721 4.45887 0.98192L15.3182 17.9212C15.6337 18.4071 15.1083 18.9977 14.5765 18.7553L0.683278 12.3641C0.209398 12.1498 -0.223275 12.7288 0.128272 13.1102L9.04185 23.5944C9.24016 23.8316 9.24016 24.1735 9.04185 24.4043L0.128272 34.8898C-0.216837 35.2724 0.210686 35.8502 0.683278 35.6359L14.5829 29.2447C15.1147 29.001 15.635 29.5916 15.3246 30.0788L4.46531 47.0181C4.10346 47.5793 4.75118 48.2451 5.33065 47.9096L45.5615 24.7525C46.1462 24.4171 46.1462 23.5778 45.5615 23.2475L5.32421 0.0903793Z" fill="#FF4B2F"/>
</svg>
