<svg width="56" height="56" viewBox="0 0 56 56" fill="none" xmlns="http://www.w3.org/2000/svg">
<g clip-path="url(#clip0_315_740)">
<path d="M27.9999 0C22.462 0 17.0485 1.64214 12.4439 4.71883C7.83936 7.79548 4.25063 12.1685 2.13138 17.2848C0.0121264 22.4012 -0.542359 28.031 0.538026 33.4625C1.61841 38.894 4.28506 43.8832 8.20096 47.7991C12.1168 51.715 17.106 54.3816 22.5375 55.462C27.9689 56.5424 33.5988 55.9879 38.7151 53.8686C43.8314 51.7494 48.2045 48.1605 51.2811 43.556C54.3578 38.9514 56 33.5379 56 28C56 20.574 53.05 13.4519 47.799 8.20095C42.5479 2.94991 35.426 0 27.9999 0ZM37.7901 41.9982H18.2118C17.0952 41.9982 16.0244 41.5547 15.2349 40.7652C14.4454 39.9756 14.0017 38.9048 14.0017 37.7883V18.21C14.0017 17.0934 14.4454 16.0225 15.2349 15.233C16.0244 14.4435 17.0952 13.9999 18.2118 13.9999H37.7901C38.9066 13.9999 39.9774 14.4435 40.7669 15.233C41.5564 16.0225 42.0001 17.0934 42.0001 18.21V37.7883C42.0001 38.9048 41.5564 39.9756 40.7669 40.7652C39.9774 41.5547 38.9066 41.9982 37.7901 41.9982Z" fill="#FF5F3A"/>
</g>
<defs>
<clipPath id="clip0_315_740">
<rect width="56" height="56" fill="white"/>
</clipPath>
</defs>
</svg>
