<svg width="48" height="48" viewBox="0 0 48 48" fill="none" xmlns="http://www.w3.org/2000/svg">
<circle cx="24" cy="24.0742" r="24" fill="#121212"/>
<path d="M37.8558 31.1107L33.2336 35.94C33.1331 36.0449 33.0115 36.1285 32.8764 36.1857C32.7413 36.2429 32.5956 36.2723 32.4483 36.2722H10.5366C10.4321 36.2722 10.3298 36.2425 10.2424 36.1866C10.1549 36.1308 10.0861 36.0513 10.0445 35.9578C10.0028 35.8644 9.99004 35.7612 10.0078 35.6608C10.0255 35.5604 10.0729 35.4673 10.1443 35.3928L14.77 30.5636C14.8702 30.4589 14.9914 30.3755 15.126 30.3183C15.2607 30.2612 15.406 30.2316 15.5529 30.2313H37.4634C37.5679 30.2313 37.6702 30.2611 37.7577 30.3169C37.845 30.3728 37.9138 30.4523 37.9556 30.5457C37.9972 30.6391 38.01 30.7424 37.9922 30.8427C37.9745 30.9431 37.9271 31.0363 37.8558 31.1107ZM33.2336 21.386C33.1331 21.2811 33.0115 21.1975 32.8764 21.1403C32.7413 21.0832 32.5956 21.0537 32.4483 21.0538H10.5366C10.4321 21.0538 10.3298 21.0835 10.2424 21.1394C10.1549 21.1953 10.0861 21.2748 10.0445 21.3682C10.0028 21.4616 9.99004 21.5648 10.0078 21.6652C10.0255 21.7656 10.0729 21.8587 10.1443 21.9332L14.77 26.7625C14.8702 26.8671 14.9914 26.9505 15.126 27.0077C15.2607 27.0648 15.406 27.0945 15.5529 27.0947H37.4634C37.5679 27.0947 37.6702 27.0649 37.7577 27.0091C37.845 26.9532 37.9138 26.8737 37.9556 26.7803C37.9972 26.6869 38.01 26.5836 37.9922 26.4833C37.9745 26.3829 37.9271 26.2898 37.8558 26.2153L33.2336 21.386ZM10.5366 17.9171H32.4483C32.5956 17.9172 32.7413 17.8878 32.8764 17.8306C33.0115 17.7734 33.1331 17.6898 33.2336 17.5849L37.8558 12.7556C37.9271 12.6812 37.9745 12.588 37.9922 12.4876C38.01 12.3873 37.9972 12.284 37.9556 12.1906C37.9138 12.0972 37.845 12.0177 37.7577 11.9618C37.6702 11.906 37.5679 11.8762 37.4634 11.8762H15.5529C15.406 11.8765 15.2607 11.9061 15.126 11.9632C14.9914 12.0204 14.8702 12.1038 14.77 12.2085L10.1455 17.0377C10.0742 17.1121 10.0268 17.2052 10.009 17.3054C9.99124 17.4057 10.0039 17.5088 10.0454 17.6022C10.087 17.6956 10.1555 17.7751 10.2428 17.831C10.33 17.887 10.4322 17.9169 10.5366 17.9171Z" fill="url(#solana_gradient_0)"/>
<defs>
<linearGradient id="solana_gradient_0" x1="12.3635" y1="36.8537" x2="34.6714" y2="11.04" gradientUnits="userSpaceOnUse">
<stop offset="0.08" stop-color="#9945FF"/>
<stop offset="0.3" stop-color="#8752F3"/>
<stop offset="0.5" stop-color="#5497D5"/>
<stop offset="0.6" stop-color="#43B4CA"/>
<stop offset="0.72" stop-color="#28E0B9"/>
<stop offset="0.97" stop-color="#19FB9B"/>
</linearGradient>
</defs>
</svg>
