<?xml version="1.0" standalone="no"?>
<!DOCTYPE svg PUBLIC "-//W3C//DTD SVG 20010904//EN"
 "http://www.w3.org/TR/2001/REC-SVG-20010904/DTD/svg10.dtd">
<svg version="1.0" xmlns="http://www.w3.org/2000/svg"
 width="700.000000pt" height="700.000000pt" viewBox="0 0 700.000000 700.000000"
 preserveAspectRatio="xMidYMid meet">
<metadata>
Created by potrace 1.14, written by Peter Selinger 2001-2017
</metadata>
<g transform="translate(0.000000,700.000000) scale(0.100000,-0.100000)"
fill="#000000" stroke="none">
<path d="M3278 6995 c-1 -1 -42 -5 -89 -9 -47 -4 -95 -8 -106 -10 -11 -3 -44
-7 -74 -11 -102 -12 -217 -34 -344 -67 -44 -11 -89 -22 -101 -24 -37 -7 -226
-71 -346 -117 -141 -55 -364 -163 -471 -229 -43 -26 -81 -48 -83 -48 -5 0
-203 -133 -234 -157 -8 -6 -64 -50 -125 -98 -333 -266 -624 -606 -845 -990
-47 -83 -170 -327 -170 -340 0 -3 -9 -24 -20 -48 -57 -123 -157 -435 -186
-582 -2 -11 -10 -54 -19 -95 -29 -147 -36 -200 -52 -370 -15 -165 -8 -592 12
-711 2 -13 6 -46 9 -74 9 -78 23 -156 51 -285 54 -251 162 -550 288 -800 61
-122 169 -312 187 -330 3 -3 31 -43 62 -90 170 -255 431 -534 708 -755 92 -74
370 -265 386 -265 4 0 15 -6 23 -14 26 -22 298 -158 408 -204 282 -116 583
-199 862 -238 25 -3 57 -8 71 -10 163 -25 682 -25 842 1 13 2 46 7 73 10 74
11 87 13 120 19 17 4 46 9 65 12 85 14 287 67 430 114 178 57 568 235 660 300
15 11 33 20 39 20 6 0 11 5 11 10 0 6 5 10 10 10 15 0 220 141 330 227 152
118 324 280 450 422 36 41 70 79 76 85 6 6 48 61 94 121 150 197 277 405 383
628 26 53 47 99 47 102 0 2 11 28 24 57 57 127 151 421 182 573 17 81 54 301
59 350 4 33 9 71 11 85 9 47 11 525 4 605 -15 159 -21 210 -25 225 -2 8 -7 35
-10 60 -17 129 -80 384 -136 552 -348 1037 -1168 1857 -2205 2207 -171 57
-416 117 -554 136 -19 3 -46 7 -60 10 -13 2 -52 7 -86 11 -33 3 -74 8 -90 10
-33 5 -540 14 -546 9z m1615 -1772 c187 -70 315 -221 346 -408 9 -52 12 -394
9 -1360 l-3 -1290 -22 -59 c-60 -157 -180 -276 -333 -328 l-65 -23 -1325 0
c-1280 0 -1327 1 -1384 19 -113 38 -230 132 -293 238 -18 29 -42 90 -53 134
-20 79 -21 102 -18 1385 l3 1304 22 60 c48 125 146 238 257 294 124 63 45 60
1486 58 l1315 -2 58 -22z"/>
</g>
</svg>
