<svg width="173" height="44" viewBox="0 0 173 44" fill="none" xmlns="http://www.w3.org/2000/svg">
<path d="M22.0104 0C17.6571 0 13.4016 1.29025 9.78202 3.70765C6.16243 6.12504 3.34136 9.56096 1.67545 13.5809C0.00953243 17.6009 -0.426341 22.0244 0.422935 26.292C1.27221 30.5595 3.36843 34.4796 6.44664 37.5564C9.52485 40.6332 13.4468 42.7284 17.7164 43.5773C21.986 44.4261 26.4115 43.9905 30.4334 42.3253C34.4553 40.6602 37.8929 37.8404 40.3114 34.2225C42.73 30.6046 44.0208 26.3512 44.0208 22C44.0208 16.1652 41.7019 10.5694 37.5741 6.44359C33.4464 2.31778 27.8479 0 22.0104 0ZM29.7062 32.9986H14.316C13.4383 32.9986 12.5966 32.6501 11.976 32.0298C11.3553 31.4094 11.0066 30.5681 11.0066 29.6908V14.3078C11.0066 13.4305 11.3553 12.5891 11.976 11.9688C12.5966 11.3485 13.4383 11 14.316 11H29.7062C30.584 11 31.4257 11.3485 32.0463 11.9688C32.6669 12.5891 33.0157 13.4305 33.0157 14.3078V29.6908C33.0157 30.5681 32.6669 31.4094 32.0463 32.0298C31.4257 32.6501 30.584 32.9986 29.7062 32.9986Z" fill="#FF562E"/>
<path d="M57.585 36.0267H62.7132V24.1129C62.7132 19.5715 65.3676 16.6495 69.1941 16.6495C72.7476 16.6495 74.907 19.2117 74.907 23.3038V36.0267H80.0352V22.809C80.0352 16.2002 76.3025 11.9744 70.1401 11.9744C68.6373 11.928 67.1426 12.2097 65.7599 12.7998C64.3772 13.3899 63.1398 14.2742 62.134 15.3912L61.5949 12.5588H57.585V36.0267ZM97.0319 36.6111C104.453 36.6111 109.718 31.5308 109.718 24.2921C109.718 17.0988 104.456 11.973 97.0319 11.973C89.565 11.973 84.303 17.0988 84.303 24.2921C84.303 31.528 89.565 36.6083 97.0319 36.6083V36.6111ZM89.3857 24.2921C89.3394 23.2761 89.5055 22.2617 89.8734 21.3135C90.2413 20.3654 90.8029 19.5042 91.5223 18.7851C92.2418 18.066 93.1033 17.5047 94.0519 17.137C95.0006 16.7693 96.0155 16.6033 97.0319 16.6495C98.0451 16.6077 99.056 16.777 100 17.1469C100.944 17.5167 101.801 18.079 102.516 18.7978C103.231 19.5166 103.789 20.3763 104.153 21.3222C104.518 22.2681 104.682 23.2795 104.634 24.2921C104.682 25.3046 104.518 26.316 104.153 27.2619C103.789 28.2078 103.231 29.0675 102.516 29.7863C101.801 30.5051 100.944 31.0674 100 31.4372C99.056 31.8071 98.0451 31.9765 97.0319 31.9346C96.0152 31.9809 95.0001 31.8148 94.0513 31.4469C93.1024 31.079 92.2408 30.5175 91.5213 29.7981C90.8018 29.0786 90.2403 28.2172 89.8726 27.2687C89.5049 26.3202 89.3391 25.3055 89.3857 24.2893V24.2921ZM114.482 36.0267H119.61V2.75513H114.484L114.482 36.0267ZM135.442 36.6111C136.925 36.6614 138.401 36.3809 139.763 35.7899C141.124 35.1989 142.337 34.3122 143.313 33.1943L143.897 36.0267H147.896V12.556H142.775V24.4699C142.775 29.0113 140.166 31.9332 136.388 31.9332C132.88 31.9332 130.766 29.371 130.766 25.2789V12.556H125.638V25.7737C125.638 32.3825 129.281 36.6083 135.443 36.6083L135.442 36.6111ZM163.194 36.6111C169.176 36.6111 173 33.9138 173 29.688C173 25.9115 169.987 23.3934 164.093 22.2701C159.595 21.3715 158.201 20.5611 158.201 18.8989C158.201 17.1457 159.82 16.112 162.564 16.112C165.577 16.112 167.376 17.3263 167.557 19.4833H172.594C172.28 14.7172 168.595 11.9758 162.564 11.9758C156.626 11.9758 153.164 14.4939 153.164 18.8548C153.164 22.6767 155.952 24.9688 161.979 25.9584C166.116 26.6778 167.961 27.8011 167.961 29.5998C167.961 31.353 166.207 32.3867 163.238 32.3867C159.865 32.3867 157.841 30.9477 157.751 28.5647H152.716C152.716 33.4162 156.898 36.6083 163.195 36.6083L163.194 36.6111Z" fill="#072D63"/>
</svg>
