<svg viewBox="0 0 444 444" fill="none" xmlns="http://www.w3.org/2000/svg">
<path d="M221.999 0C178.092 0 135.171 13.0198 98.6625 37.4136C62.1549 61.807 33.7014 96.4787 16.8988 137.044C0.0961456 177.609 -4.30013 222.246 4.26578 265.31C12.8317 308.374 33.9744 347.931 65.0219 378.978C96.0689 410.026 135.626 431.169 178.69 439.734C221.754 448.3 266.39 443.904 306.956 427.101C347.52 410.298 382.193 381.844 406.586 345.336C430.98 308.829 444 265.908 444 222C444 163.122 420.61 106.655 378.978 65.0218C337.344 23.3885 280.878 0 221.999 0ZM299.621 332.986H144.394C135.541 332.986 127.051 329.469 120.791 323.209C114.532 316.95 111.014 308.46 111.014 299.607V144.379C111.014 135.526 114.532 127.036 120.791 120.776C127.051 114.516 135.541 111 144.394 111H299.621C308.474 111 316.963 114.516 323.223 120.776C329.483 127.036 333.001 135.526 333.001 144.379V299.607C333.001 308.46 329.483 316.95 323.223 323.209C316.963 329.469 308.474 332.986 299.621 332.986Z" fill="#FF5F3A"/>
</svg>
