<svg width="240" height="241" viewBox="0 0 240 241" fill="none" xmlns="http://www.w3.org/2000/svg">
<path d="M149.455 72.38H87.1148C79.7142 72.38 73.7148 78.3794 73.7148 85.78V148.12C73.7148 155.521 79.7142 161.52 87.1148 161.52H149.455C156.855 161.52 162.855 155.521 162.855 148.12V85.78C162.855 78.3794 156.855 72.38 149.455 72.38Z" fill="#072D63"/>
<path d="M45.3949 63.31C58.6055 63.31 69.3149 52.6006 69.3149 39.39C69.3149 26.1793 58.6055 15.47 45.3949 15.47C32.1842 15.47 21.4749 26.1793 21.4749 39.39C21.4749 52.6006 32.1842 63.31 45.3949 63.31Z" fill="#FF7044"/>
<path d="M121.645 63.31C134.856 63.31 145.565 52.6006 145.565 39.39C145.565 26.1793 134.856 15.47 121.645 15.47C108.434 15.47 97.7249 26.1793 97.7249 39.39C97.7249 52.6006 108.434 63.31 121.645 63.31Z" fill="#FFC136"/>
<path d="M198.045 63.31C211.256 63.31 221.965 52.6006 221.965 39.39C221.965 26.1793 211.256 15.47 198.045 15.47C184.834 15.47 174.125 26.1793 174.125 39.39C174.125 52.6006 184.834 63.31 198.045 63.31Z" fill="#FF7044"/>
<path d="M41.9549 225.53C55.1656 225.53 65.8749 214.821 65.8749 201.61C65.8749 188.399 55.1656 177.69 41.9549 177.69C28.7443 177.69 18.0349 188.399 18.0349 201.61C18.0349 214.821 28.7443 225.53 41.9549 225.53Z" fill="#FFC136"/>
<path d="M118.205 225.53C131.416 225.53 142.125 214.821 142.125 201.61C142.125 188.399 131.416 177.69 118.205 177.69C104.994 177.69 94.2849 188.399 94.2849 201.61C94.2849 214.821 104.994 225.53 118.205 225.53Z" fill="#FF7044"/>
<path d="M194.605 225.53C207.815 225.53 218.525 214.821 218.525 201.61C218.525 188.399 207.815 177.69 194.605 177.69C181.394 177.69 170.685 188.399 170.685 201.61C170.685 214.821 181.394 225.53 194.605 225.53Z" fill="#FFC136"/>
<path d="M95.375 115.63C95.375 102.42 106.085 91.71 119.295 91.71C132.505 91.71 143.215 102.42 143.215 115.63" fill="#FFC136"/>
<path d="M143.215 114.91C143.215 128.12 132.505 138.83 119.295 138.83C106.085 138.83 95.375 128.12 95.375 114.91" fill="#FF7044"/>
</svg>
