<svg width="240" height="241" viewBox="0 0 240 241" fill="none" xmlns="http://www.w3.org/2000/svg">
<path d="M150.74 109.33H88.4C80.9994 109.33 75 115.329 75 122.73V185.07C75 192.471 80.9994 198.47 88.4 198.47H150.74C158.141 198.47 164.14 192.471 164.14 185.07V122.73C164.14 115.329 158.141 109.33 150.74 109.33Z" fill="#072D63"/>
<path d="M119.59 176C132 176 142.06 165.94 142.06 153.53C142.06 141.12 132 131.06 119.59 131.06C107.18 131.06 97.12 141.12 97.12 153.53C97.12 165.94 107.18 176 119.59 176Z" fill="#FF7044"/>
<path d="M119.59 131.8C132 131.8 142.06 121.74 142.06 109.33C142.06 96.9201 132 86.86 119.59 86.86C107.18 86.86 97.12 96.9201 97.12 109.33C97.12 121.74 107.18 131.8 119.59 131.8Z" fill="#FFC136"/>
<path d="M119.59 87.44C132 87.44 142.06 77.3798 142.06 64.97C142.06 52.5602 132 42.5 119.59 42.5C107.18 42.5 97.12 52.5602 97.12 64.97C97.12 77.3798 107.18 87.44 119.59 87.44Z" fill="#FF7044"/>
<path d="M97.13 198.46C97.13 186.05 107.19 175.99 119.6 175.99C132.01 175.99 142.07 186.05 142.07 198.46" fill="#FFC136"/>
</svg>
