<svg width="240" height="241" viewBox="0 0 240 241" fill="none" xmlns="http://www.w3.org/2000/svg">
<path d="M155.32 71.8H92.9801C85.5795 71.8 79.5801 77.7994 79.5801 85.2V147.54C79.5801 154.941 85.5795 160.94 92.9801 160.94H155.32C162.721 160.94 168.72 154.941 168.72 147.54V85.2C168.72 77.7994 162.721 71.8 155.32 71.8Z" fill="#072D63"/>
<path d="M122.57 52.34C135.781 52.34 146.49 41.6307 146.49 28.42C146.49 15.2093 135.781 4.5 122.57 4.5C109.359 4.5 98.6499 15.2093 98.6499 28.42C98.6499 41.6307 109.359 52.34 122.57 52.34Z" fill="#FF7044"/>
<path d="M122.57 236.93C135.781 236.93 146.49 226.221 146.49 213.01C146.49 199.799 135.781 189.09 122.57 189.09C109.359 189.09 98.6499 199.799 98.6499 213.01C98.6499 226.221 109.359 236.93 122.57 236.93Z" fill="#FF7044"/>
<path d="M214.38 139.56C227.591 139.56 238.3 128.851 238.3 115.64C238.3 102.429 227.591 91.72 214.38 91.72C201.169 91.72 190.46 102.429 190.46 115.64C190.46 128.851 201.169 139.56 214.38 139.56Z" fill="#FF7044"/>
<path d="M190.46 76.26C203.671 76.26 214.38 65.5507 214.38 52.34C214.38 39.1294 203.671 28.42 190.46 28.42C177.249 28.42 166.54 39.1294 166.54 52.34C166.54 65.5507 177.249 76.26 190.46 76.26Z" fill="#FFC136"/>
<path d="M55.66 76.26C68.8706 76.26 79.58 65.5507 79.58 52.34C79.58 39.1294 68.8706 28.42 55.66 28.42C42.4493 28.42 31.74 39.1294 31.74 52.34C31.74 65.5507 42.4493 76.26 55.66 76.26Z" fill="#FFC136"/>
<path d="M55.66 202.86C68.8706 202.86 79.58 192.151 79.58 178.94C79.58 165.729 68.8706 155.02 55.66 155.02C42.4493 155.02 31.74 165.729 31.74 178.94C31.74 192.151 42.4493 202.86 55.66 202.86Z" fill="#FFC136"/>
<path d="M192.63 208.05C205.841 208.05 216.55 197.341 216.55 184.13C216.55 170.919 205.841 160.21 192.63 160.21C179.419 160.21 168.71 170.919 168.71 184.13C168.71 197.341 179.419 208.05 192.63 208.05Z" fill="#FFC136"/>
<path d="M25.92 139.56C39.1307 139.56 49.84 128.851 49.84 115.64C49.84 102.429 39.1307 91.72 25.92 91.72C12.7093 91.72 2 102.429 2 115.64C2 128.851 12.7093 139.56 25.92 139.56Z" fill="#FF7044"/>
</svg>
