<svg width="330" height="85" viewBox="0 0 330 85" fill="none" xmlns="http://www.w3.org/2000/svg">
<path d="M41.9851 0.916382C33.6812 0.916382 25.5638 3.37959 18.6593 7.99462C11.7549 12.6096 6.3737 19.1691 3.19594 26.8436C0.0181833 34.5181 -0.813252 42.9629 0.806755 51.1101C2.42676 59.2573 6.42533 66.7411 12.2971 72.615C18.1688 78.4888 25.65 82.4888 33.7943 84.1093C41.9386 85.7299 50.3804 84.8982 58.0522 81.7193C65.7239 78.5404 72.2813 73.1571 76.8946 66.2503C81.508 59.3434 83.9704 51.2232 83.9704 42.9164C83.9704 31.7773 79.5469 21.0943 71.6732 13.2178C63.7994 5.34124 53.1203 0.916382 41.9851 0.916382ZM56.6651 63.9137H27.3081C25.6338 63.9137 24.0282 63.2484 22.8443 62.0641C21.6605 60.8798 20.9952 59.2736 20.9952 57.5988V28.2314C20.9952 26.5565 21.6605 24.9502 22.8443 23.7659C24.0282 22.5816 25.6338 21.9163 27.3081 21.9163H56.6651C58.3393 21.9163 59.9449 22.5816 61.1288 23.7659C62.3127 24.9502 62.9779 26.5565 62.9779 28.2314V57.5988C62.9779 59.2736 62.3127 60.8798 61.1288 62.0641C59.9449 63.2484 58.3393 63.9137 56.6651 63.9137Z" fill="#FF5F3A"/>
<path d="M109.844 69.6947H119.626V46.9501C119.626 38.2802 124.69 32.7019 131.989 32.7019C138.767 32.7019 142.886 37.5934 142.886 45.4056V69.6947H152.668V44.461C152.668 31.8441 145.548 23.7767 133.793 23.7767C130.927 23.6882 128.075 24.2259 125.438 25.3524C122.8 26.479 120.44 28.1672 118.522 30.2996L117.493 24.8924H109.844V69.6947ZM185.09 70.8103C199.246 70.8103 209.289 61.1116 209.289 47.2922C209.289 33.5597 199.251 23.7741 185.09 23.7741C170.847 23.7741 160.809 33.5597 160.809 47.2922C160.809 61.1063 170.847 70.8051 185.09 70.8051V70.8103ZM170.505 47.2922C170.416 45.3527 170.733 43.4161 171.435 41.6059C172.137 39.7958 173.208 38.1518 174.58 36.779C175.953 35.4061 177.596 34.3345 179.406 33.6325C181.215 32.9305 183.151 32.6136 185.09 32.7019C187.023 32.622 188.951 32.9454 190.752 33.6514C192.553 34.3575 194.188 35.4309 195.552 36.8032C196.915 38.1755 197.979 39.8168 198.674 41.6226C199.37 43.4284 199.682 45.3592 199.591 47.2922C199.682 49.2252 199.37 51.156 198.674 52.9619C197.979 54.7677 196.915 56.4089 195.552 57.7812C194.188 59.1536 192.553 60.2269 190.752 60.933C188.951 61.6391 187.023 61.9624 185.09 61.8825C183.151 61.9709 181.214 61.6538 179.404 60.9515C177.594 60.2492 175.951 59.1771 174.578 57.8037C173.206 56.4302 172.135 54.7856 171.433 52.9749C170.732 51.1641 170.416 49.2269 170.505 47.287V47.2922ZM218.376 69.6947H228.159V6.17627H218.379L218.376 69.6947ZM258.357 70.8103C261.187 70.9064 264.003 70.3709 266.6 69.2426C269.197 68.1143 271.51 66.4216 273.371 64.2875L274.486 69.6947H282.114V24.8871H272.345V47.6316C272.345 56.3016 267.369 61.8799 260.162 61.8799C253.47 61.8799 249.438 56.9884 249.438 49.1762V24.8871H239.656V50.1208C239.656 62.7377 246.605 70.8051 258.36 70.8051L258.357 70.8103ZM311.295 70.8103C322.705 70.8103 329.999 65.661 329.999 57.5936C329.999 50.3839 324.252 45.5766 313.01 43.4322C304.43 41.7166 301.771 40.1694 301.771 36.9961C301.771 33.6492 304.859 31.6757 310.093 31.6757C315.84 31.6757 319.273 33.9939 319.617 38.1118H329.226C328.626 29.0129 321.598 23.7793 310.093 23.7793C298.767 23.7793 292.162 28.5866 292.162 36.9119C292.162 44.2084 297.481 48.5842 308.978 50.4734C316.869 51.8469 320.388 53.9914 320.388 57.4252C320.388 60.7721 317.042 62.7456 311.379 62.7456C304.946 62.7456 301.084 59.9985 300.913 55.4491H291.307C291.307 64.7111 299.285 70.8051 311.298 70.8051L311.295 70.8103Z" fill="#273140"/>
</svg>
