<svg viewBox="0 0 240 241" fill="none" xmlns="http://www.w3.org/2000/svg">
<g clip-path="url(#clip0_272_737)">
<path d="M175.275 61.41H65.3351C52.2791 61.41 41.6951 71.994 41.6951 85.05V194.97C41.6951 208.026 52.2791 218.61 65.3351 218.61H175.275C188.331 218.61 198.915 208.026 198.915 194.97V85.05C198.915 71.994 188.331 61.41 175.275 61.41Z" fill="#002D67"/>
<path d="M120.355 178.99C142.237 178.99 159.975 161.252 159.975 139.37C159.975 117.488 142.237 99.75 120.355 99.75C98.4736 99.75 80.7351 117.488 80.7351 139.37C80.7351 161.252 98.4736 178.99 120.355 178.99Z" fill="#FF6233"/>
<path d="M120.355 101.03C142.237 101.03 159.975 83.2916 159.975 61.41C159.975 39.5285 142.237 21.79 120.355 21.79C98.4736 21.79 80.7351 39.5285 80.7351 61.41C80.7351 83.2916 98.4736 101.03 120.355 101.03Z" fill="#FFBD00"/>
<path d="M80.7151 218.63C80.7151 196.75 98.4551 179.01 120.335 179.01C142.215 179.01 159.955 196.75 159.955 218.63" fill="#FFBD00"/>
</g>
</svg>
