<svg viewBox="0 0 240 241" fill="none" xmlns="http://www.w3.org/2000/svg">
<g clip-path="url(#clip0_272_748)">
<path d="M175.275 80.6899H65.3351C52.2791 80.6899 41.6951 91.2739 41.6951 104.33V196.63C41.6951 209.686 52.2791 220.27 65.3351 220.27H175.275C188.331 220.27 198.915 209.686 198.915 196.63V104.33C198.915 91.2739 188.331 80.6899 175.275 80.6899Z" fill="#002D67"/>
<path d="M120.355 188.43C142.237 188.43 159.975 170.691 159.975 148.81C159.975 126.928 142.237 109.19 120.355 109.19C98.4736 109.19 80.7351 126.928 80.7351 148.81C80.7351 170.691 98.4736 188.43 120.355 188.43Z" fill="#FF6233"/>
<path d="M169.435 83.83L158.855 83.79L158.915 71.07C158.995 49.51 141.535 31.91 119.995 31.83H119.835C98.355 31.83 80.835 49.25 80.755 70.75L80.695 83.47L70.115 83.43L70.175 70.71C70.295 43.39 92.555 21.25 119.835 21.25H120.035C147.415 21.37 169.615 43.73 169.495 71.11L169.435 83.83Z" fill="#002D67"/>
</g>
</svg>
